<svg xmlns="http://www.w3.org/2000/svg" xmlns:xlink="http://www.w3.org/1999/xlink" width="150" height="150" viewBox="0 0 150 150">
    <defs>
        <clipPath id="clip-path">
            <path id="path6276" d="M355.223-417.094H296.58s-3.18-4.023 0-6.731a5.552 5.552 0 0 1 5.333-.9 1.755 1.755 0 0 0 2.174-1.374 7.023 7.023 0 0 1 4.612-5.1c3.106-1.258 5.07.663 6.206 2.637a.882.882 0 0 0 1.6-.163c.984-3.116 4.415-7.248 15.688-7.248 14.337 0 12.744 7.622 11.463 10.79a.73.73 0 0 0 .829 1c2.212-.473 6.316-1.086 8.157.359 2.581 2.029 2.581 6.73 2.581 6.73z" class="cls-1" transform="translate(-295.166 435.97)"/>
        </clipPath>
        <clipPath id="clip-path-2">
            <path id="path6348" d="M94.965-384.955l-.8-2.442 11.355 1.453z" transform="translate(-94.169 387.398)"/>
        </clipPath>
        <clipPath id="clip-path-3">
            <path id="path6366" d="M111.707-381.859l-9.157 2.886 1.365 3.52z" transform="translate(-102.549 381.859)"/>
        </clipPath>
        <clipPath id="clip-path-4">
            <path id="path6610" d="M64.658-133.387l1.521-.52-1.41-4.128-1.521.519z" transform="translate(-63.247 138.034)"/>
        </clipPath>
        <clipPath id="clip-path-5">
            <path id="path6628" d="M175.207-171.507a.946.946 0 0 1-.177-.309l-.009-.034a.972.972 0 0 1-.037-.2v-.1a.918.918 0 0 1 .009-.1l-3.488-.779.731 2.141.679 1.987z" transform="translate(-171.502 173.037)"/>
        </clipPath>
        <clipPath id="clip-path-6">
            <path id="path6762" d="M330.457-319.961a6 6 0 0 0-2.619-.8 14.178 14.178 0 0 1-1.822-.157l-.094-.023 8.865-22.785a12.492 12.492 0 0 1 6.333 15.836 12.488 12.488 0 0 1-10.663 7.929z" transform="translate(-325.922 343.722)"/>
        </clipPath>
        <linearGradient id="linear-gradient" x1="-2.175" x2="-2.172" y1="41.602" y2="41.602" gradientUnits="objectBoundingBox">
            <stop offset="0" stop-color="#edf9f4"/>
            <stop offset="1" stop-color="#b5e6ea"/>
        </linearGradient>
        <linearGradient id="linear-gradient-2" x1="-2.937" x2="-2.933" y1="15.635" y2="15.635" xlink:href="#linear-gradient"/>
        <linearGradient id="linear-gradient-3" x1="-5.659" x2="-5.647" y1="7.79" y2="7.79" gradientUnits="objectBoundingBox">
            <stop offset="0" stop-color="#d8f1e3"/>
            <stop offset="1" stop-color="#b5e6ea"/>
        </linearGradient>
        <linearGradient id="linear-gradient-4" x1="-12.14" x2="-12.131" y1="10.995" y2="10.995" xlink:href="#linear-gradient-3"/>
        <linearGradient id="linear-gradient-5" x1="-5.326" x2="-5.324" y1="3.794" y2="3.794" xlink:href="#linear-gradient-3"/>
        <style>
            .cls-1{fill:#36a5f6}.cls-4{fill:#fff}.cls-6{fill:#196265}.cls-7{fill:#fccd37}.cls-8{fill:#a2debd}.cls-9{fill:#65cbc2}.cls-16{fill:#788af0}.cls-17{fill:#f89b17}.cls-18{fill:#f8a37b}.cls-19{fill:#f68a76}.cls-20{fill:#1f2c54}.cls-21{fill:#338d8c}.cls-22{fill:#183c5e}.cls-24{fill:#f0d6ed}.cls-25{fill:#f57c1b}
        </style>
    </defs>
    <g id="Group_3377" transform="translate(-32 -97)">
        <g id="Group_3341" transform="translate(32 97)">
            <g id="Path_3373" fill="#fff" stroke="none">
                <path d="M149.85 149.85H.15V.15h149.7v149.7z"/>
                <path fill="#ddd" d="M.3.3v149.4h149.4V.3H.3M0 0h150v150H0V0z"/>
            </g>
            <g id="g6266" transform="translate(2.063 25.872)">
                <g id="g6268">
                    <g id="g6272" transform="translate(64.105 10.118)">
                        <g id="g6274" clip-path="url(#clip-path)">
                            <path id="path6286" d="M355.223-417.094H296.58s-3.18-4.023 0-6.731a5.552 5.552 0 0 1 5.333-.9 1.755 1.755 0 0 0 2.174-1.374 7.023 7.023 0 0 1 4.612-5.1c3.106-1.258 5.07.663 6.206 2.637a.882.882 0 0 0 1.6-.163c.984-3.116 4.415-7.248 15.688-7.248 14.337 0 12.744 7.622 11.463 10.79a.73.73 0 0 0 .829 1c2.212-.473 6.316-1.086 8.157.359 2.585 2.03 2.585 6.731 2.585 6.731" class="cls-1" transform="translate(-295.166 435.97)"/>
                        </g>
                    </g>
                    <path id="path6288" d="M226.577-435.717s11.011-24.592-2.665-38.828c-31.326 13.131-18.328 43.9-18.328 43.9l20.993-5.077" class="cls-1" transform="translate(-163.003 474.544)"/>
                    <path id="path6290" d="M231.075-474.544l-.323.139-5.324 31.3-12.534-15.328q-.141.3-.273.6l12.675 15.5-1.536 9.033.625-.151 3.063-18 10.478-4.684c0-.214-.007-.428-.014-.642l-10.345 4.625 3.762-22.111c-.085-.091-.166-.184-.253-.274" class="cls-4" transform="translate(-170.166 474.544)"/>
                    <path id="path6292" fill="#3682f6" d="M179.273-437.618s-6.753-26.007-25.111-30.531c-15.527 16.61.365 36.743.365 36.743l20.526 11.437 4.22-17.649" transform="translate(-122.018 469.826)"/>
                    <path id="path6294" d="M174.081-455.5l-6.548 9.955-9.749-22.486c-.144-.038-.287-.079-.432-.115-.061.065-.118.132-.177.2l5.222 12.043-10.532-3.406c-.035.1-.067.2-.1.3l-.085.264 11.031 3.567 8.7 20.07-18.675-5.392c.091.235.183.467.276.7l18.7 5.4 6.18 14.251.347.193.136-.568-10.56-24.376 6.629-10.078q-.179-.263-.363-.525" class="cls-6" transform="translate(-125.208 469.826)"/>
                    <path id="path6296" d="M154.445-338.2s-17.164-14.435-30.374-7.2c-1.642 30.714 37.31 34.971 37.31 34.971l-6.936-27.771" class="cls-7" transform="translate(-104.805 380.772)"/>
                    <path id="path6298" d="M124.17-343.831l-.015.353 24.682 17.7-15.915 4.478q.251.239.506.472l16.023-4.512 9.64 6.914-.222-.888L140.1-332.77l-2.108-12.392q-.311-.075-.624-.142l2.048 12.044-14.953-10.724c-.1.051-.2.1-.294.153" class="cls-4" transform="translate(-104.903 379.203)"/>
                    <path id="path6300" d="M407.875-420.177l6.935-3.828 3.541-.709 2.676.393-13.152 4.143" class="cls-4" transform="translate(-314.207 437.784)"/>
                    <path id="path6302" d="M407.875-419.071l12.987-3.338.165-.8" class="cls-8" transform="translate(-314.207 436.677)"/>
                    <path id="path6304" d="M421.325-411.652l-.016.027-.545 2.016-12.764-.932 13.325-1.111" class="cls-9" transform="translate(-314.3 428.148)"/>
                    <path id="path6306" d="M423.948-420.386l-1.853-1.5-13.9 3.774 11.966-.356 3.787-1.915" class="cls-4" transform="translate(-314.444 435.7)"/>
                    <path id="path6308" d="M575.341-319.642a9.781 9.781 0 0 1-1.25-.542.189.189 0 0 0-.254.081.188.188 0 0 0 .08.254 10.13 10.13 0 0 0 1.3.563q.239.084.482.157a.188.188 0 0 0 .167-.029.187.187 0 0 0 .068-.1.189.189 0 0 0-.126-.235q-.234-.071-.465-.152" class="cls-9" transform="translate(-436.624 360.686)"/>
                    <path id="path6310" d="M477.02-421.522c-.589.075-1.2.172-1.873.3a.19.19 0 0 0-.152.22.189.189 0 0 0 .22.151c.665-.123 1.272-.219 1.854-.293a.2.2 0 0 0 .088-.036.189.189 0 0 0 .075-.176.189.189 0 0 0-.211-.163" class="cls-9" transform="translate(-363.72 435.43)"/>
                    <path id="path6312" d="M488.575-421.926a.19.19 0 0 0 .077-.15.189.189 0 0 0-.187-.19c-.605-.006-1.245.02-1.9.075a.188.188 0 0 0-.172.2.188.188 0 0 0 .2.172c.645-.054 1.274-.079 1.867-.074a.185.185 0 0 0 .114-.037" class="cls-9" transform="translate(-372.128 435.979)"/>
                    <path id="path6314" d="M564.85-326.883a.185.185 0 0 0-.266 0 .188.188 0 0 0 0 .267 10.494 10.494 0 0 0 1.489 1.209.188.188 0 0 0 .217 0l.044-.046a.189.189 0 0 0-.051-.262 10.218 10.218 0 0 1-1.436-1.166" class="cls-9" transform="translate(-429.774 365.653)"/>
                    <path id="path6316" d="M558.952-334.167a.189.189 0 0 0 .026-.266q-.16-.2-.311-.4a9.761 9.761 0 0 1-.725-1.134.188.188 0 0 0-.256-.075.19.19 0 0 0-.075.256 10.092 10.092 0 0 0 .753 1.178q.156.21.322.412a.188.188 0 0 0 .258.032l.007-.006" class="cls-9" transform="translate(-424.653 372.385)"/>
                    <path id="path6318" d="M554.359-344.636l.04-.023a.189.189 0 0 0 .062-.223 12.865 12.865 0 0 1-.574-1.766.189.189 0 0 0-.229-.137.189.189 0 0 0-.137.229 13.183 13.183 0 0 0 .591 1.817.188.188 0 0 0 .246.1" class="cls-9" transform="translate(-421.648 380.299)"/>
                    <path id="path6320" d="M537.536-400.834q.236.288.457.586c.223.3.435.611.631.925a.189.189 0 0 0 .26.059l.012-.008a.189.189 0 0 0 .047-.252c-.2-.321-.419-.64-.647-.948q-.227-.306-.469-.6a.18.18 0 0 0-.266-.026.189.189 0 0 0-.026.265" class="cls-9" transform="translate(-409.829 420.398)"/>
                    <path id="path6322" d="M543.866-391.278a13.706 13.706 0 0 1 .748 1.7.188.188 0 0 0 .241.114l.048-.026a.188.188 0 0 0 .065-.215 14.084 14.084 0 0 0-.768-1.75.189.189 0 0 0-.255-.08.189.189 0 0 0-.08.255" class="cls-9" transform="translate(-414.514 413.322)"/>
                    <path id="path6324" d="M529.43-408.916a15.337 15.337 0 0 1 1.366 1.267.189.189 0 0 0 .249.022l.019-.015a.189.189 0 0 0 .006-.267 15.777 15.777 0 0 0-1.4-1.3.188.188 0 0 0-.266.026.189.189 0 0 0 .026.266" class="cls-9" transform="translate(-403.829 426.377)"/>
                    <path id="path6326" d="M511.068-419.008a.189.189 0 0 0 .189-.021l.06-.075a.189.189 0 0 0-.1-.249 14.875 14.875 0 0 0-1.792-.66.189.189 0 0 0-.235.127.189.189 0 0 0 .127.235 14.46 14.46 0 0 1 1.746.643" class="cls-9" transform="translate(-388.946 434.321)"/>
                    <path id="path6328" d="M550.585-367.3a.187.187 0 0 0 .091-.036.187.187 0 0 0 .075-.173l-.026-.237c-.063-.547-.125-1.094-.2-1.639a.189.189 0 0 0-.212-.163.189.189 0 0 0-.162.212c.072.543.134 1.088.2 1.633l.027.237a.189.189 0 0 0 .208.167" class="cls-9" transform="translate(-419.166 397.091)"/>
                    <path id="path6330" d="M521.494-414.309a.189.189 0 0 0 .221 0l.042-.043a.188.188 0 0 0-.045-.263 15.635 15.635 0 0 0-1.624-1 .189.189 0 0 0-.256.077.189.189 0 0 0 .078.255 15.3 15.3 0 0 1 1.585.979" class="cls-9" transform="translate(-396.783 431.092)"/>
                    <path id="path6332" d="M551.678-358.119a.188.188 0 0 0-.163.211c.092.735.184 1.331.286 1.877a.189.189 0 0 0 .22.15l.077-.034a.188.188 0 0 0 .074-.186c-.1-.538-.191-1.127-.283-1.854a.189.189 0 0 0-.211-.164" class="cls-9" transform="translate(-420.172 388.657)"/>
                    <path id="path6334" d="M584.891-316.476a.188.188 0 0 0-.221.149.188.188 0 0 0 .149.221 15.232 15.232 0 0 0 1.892.244.188.188 0 0 0 .125-.037.188.188 0 0 0 .076-.138.189.189 0 0 0-.175-.2 15.038 15.038 0 0 1-1.846-.238" class="cls-9" transform="translate(-444.628 357.938)"/>
                    <path id="path6336" d="M548.159-380.848a.19.19 0 0 0-.134.232c.149.555.276 1.152.389 1.827a.189.189 0 0 0 .217.155l.081-.035a.188.188 0 0 0 .074-.183c-.115-.686-.244-1.3-.4-1.862a.188.188 0 0 0-.231-.134" class="cls-9" transform="translate(-417.593 405.428)"/>
                    <path id="path6338" d="M498.749-422.02q-.331-.039-.662-.064a.189.189 0 0 0-.2.174.189.189 0 0 0 .174.2q.323.024.646.062c.4.047.8.114 1.2.2a.187.187 0 0 0 .151-.033.186.186 0 0 0 .072-.112.188.188 0 0 0-.145-.224c-.406-.086-.82-.154-1.23-.2" class="cls-9" transform="translate(-380.609 435.844)"/>
                    <path id="path6340" d="M93.618-380.869l-1.275 2.507 2.677-.611 9.157-2.886-10.559.99" class="cls-8" transform="translate(-81.436 406.169)"/>
                    <path id="path6342" d="M92.344-370.917l4.547-.283-1.114-.567z" class="cls-9" transform="translate(-81.436 398.723)"/>
                    <g id="g6344" transform="translate(11.386 22.857)">
                        <g id="g6346" clip-path="url(#clip-path-2)">
                            <path id="path6360" fill="url(#linear-gradient)" d="M94.965-384.955l-.8-2.442 11.355 1.453z" transform="translate(-94.169 387.398)"/>
                        </g>
                    </g>
                    <g id="g6362" transform="translate(13.584 24.31)">
                        <g id="g6364" clip-path="url(#clip-path-3)">
                            <path id="path6378" fill="url(#linear-gradient-2)" d="M111.707-381.859l-9.157 2.886 1.365 3.52z" transform="translate(-102.549 381.859)"/>
                        </g>
                    </g>
                    <path id="path6380" d="M95.842-361.809l-.065-.05a.214.214 0 0 1 .021-.3 6 6 0 0 1 .9-.649.213.213 0 0 1 .293.076.214.214 0 0 1-.076.293 5.6 5.6 0 0 0-.836.6.213.213 0 0 1-.237.029" class="cls-9" transform="translate(-83.931 392.139)"/>
                    <path id="path6382" d="M94.883-351.729a.213.213 0 0 1-.1-.1.214.214 0 0 1 .1-.284 3.452 3.452 0 0 1 2.254-.212.215.215 0 0 1 .155.26.214.214 0 0 1-.26.155 3.06 3.06 0 0 0-1.97.186.214.214 0 0 1-.187 0zM98.6-349.3a.214.214 0 0 1-.111-.242 1.931 1.931 0 0 0-.139-1.4 1.751 1.751 0 0 0-.293-.4.214.214 0 0 1 0-.3.214.214 0 0 1 .3 0 2.182 2.182 0 0 1 .365.5 2.376 2.376 0 0 1 .175 1.706.214.214 0 0 1-.259.156zm-11.026-5.23a.214.214 0 0 1-.105-.26 7.3 7.3 0 0 1 .395-.934 6.972 6.972 0 0 1 .641-1.029.212.212 0 0 1 .3-.042.214.214 0 0 1 .042.3 6.548 6.548 0 0 0-.6.966 6.835 6.835 0 0 0-.372.879.214.214 0 0 1-.272.133zm4.882 5.2l-.019-.011a.214.214 0 0 1-.064-.3 8.338 8.338 0 0 1 1.395-1.716.214.214 0 0 1 .3.015.214.214 0 0 1-.016.3 7.95 7.95 0 0 0-1.322 1.63.213.213 0 0 1-.274.08zm3.952 2.575a.213.213 0 0 1-.093-.093.214.214 0 0 1 .093-.288 5.1 5.1 0 0 0 .464-.269 4.138 4.138 0 0 0 1.095-1.046.214.214 0 0 1 .3-.049.214.214 0 0 1 .049.3 4.571 4.571 0 0 1-1.209 1.155 5.556 5.556 0 0 1-.5.291.214.214 0 0 1-.199-.002zm-9.12-4.364a.213.213 0 0 1-.114-.154 6.922 6.922 0 0 1-.021-2.22.214.214 0 0 1 .243-.18.213.213 0 0 1 .18.243 6.49 6.49 0 0 0 .02 2.083.214.214 0 0 1-.174.248.212.212 0 0 1-.135-.022zm5.765 4.987a.215.215 0 0 1-.116-.209.214.214 0 0 1 .231-.195 6.252 6.252 0 0 0 2.074-.162.214.214 0 0 1 .26.155.214.214 0 0 1-.155.26 6.67 6.67 0 0 1-2.215.173zm-4.228-1.949l-.056-.041a5.9 5.9 0 0 1-.842-1.095 5.864 5.864 0 0 1-.383-.768.213.213 0 0 1 .117-.279.213.213 0 0 1 .279.116 5.436 5.436 0 0 0 .355.712 5.443 5.443 0 0 0 .78 1.014.214.214 0 0 1 0 .3.214.214 0 0 1-.251.039zm1.933 1.761a.214.214 0 0 1-.095-.285l.07-.141a6.985 6.985 0 0 1-.934-.523.214.214 0 0 1-.059-.3.213.213 0 0 1 .3-.059 6.453 6.453 0 0 0 .891.5c.229-.441.482-.9.769-1.392a.215.215 0 0 1 .292-.077.213.213 0 0 1 .078.292c-.276.476-.521.918-.743 1.344q.3.115.61.2a.213.213 0 0 1 .149.263.214.214 0 0 1-.264.149 7.278 7.278 0 0 1-.692-.231l-.08.161a.214.214 0 0 1-.286.1zm-1.243 3.22a.214.214 0 0 1-.11-.245 15.946 15.946 0 0 1 .713-2.07.214.214 0 0 1 .28-.114.215.215 0 0 1 .115.28 15.545 15.545 0 0 0-.694 2.014.214.214 0 0 1-.261.152zm-.367 3.422a.213.213 0 0 1-.117-.176l-.006-.1a10.32 10.32 0 0 1 .109-2.1.214.214 0 0 1 .244-.179.213.213 0 0 1 .179.243 9.862 9.862 0 0 0-.105 2.01l.006.1a.214.214 0 0 1-.2.229.213.213 0 0 1-.112-.023zm1 3.28a.21.21 0 0 1-.089-.085 8.073 8.073 0 0 1-.82-2.056.214.214 0 0 1 .157-.259.214.214 0 0 1 .259.156 7.659 7.659 0 0 0 .776 1.947.213.213 0 0 1-.08.291.213.213 0 0 1-.204.004zm2.359 2.476l-.012-.007a6.441 6.441 0 0 1-1.681-1.456.215.215 0 0 1 .029-.3.215.215 0 0 1 .3.029 6.02 6.02 0 0 0 1.569 1.36.214.214 0 0 1 .076.293.214.214 0 0 1-.281.082" class="cls-9" transform="translate(-77.548 387.711)"/>
                    <path id="path6384" d="M112.061-268.615a.214.214 0 0 1-.109-.249.214.214 0 0 1 .264-.147 4.6 4.6 0 0 0 1.006.17.214.214 0 0 1 .2.225.214.214 0 0 1-.225.2 5.023 5.023 0 0 1-1.1-.184l-.038-.015" class="cls-9" transform="translate(-95.896 322.926)"/>
                    <path id="path6386" fill="#c5ccf9" d="M201.2-285.306h88.2v-72.514h-88.2z" transform="translate(-161.739 388.436)"/>
                    <path id="path6388" fill="#2f3f98" d="M284.06-300.73h-77.587v-52.31h77.587zm4.179-69.945h-85.877a2.2 2.2 0 0 0-1.089 1.287h-.073v76.165h88.2v-76.165h-.073a2.2 2.2 0 0 0-1.091-1.287" transform="translate(-161.739 397.919)"/>
                    <path id="path6390" d="M256.023-281.617h-7.746v2.445h7.746v-2.445" class="cls-16" transform="translate(-196.47 332.219)"/>
                    <path id="path6392" d="M323.768-281.617h-7.748v2.445h7.748v-2.445" class="cls-17" transform="translate(-246.445 332.219)"/>
                    <path id="path6394" d="M395.6-281.617h-7.747v2.445h7.747v-2.445" class="cls-16" transform="translate(-299.439 332.219)"/>
                    <path id="path6396" d="M466.719-281.617h-7.747v2.445h7.747v-2.445" class="cls-16" transform="translate(-351.903 332.219)"/>
                    <path id="path6398" d="M249.235-219.526h7.744v-5.2h-7.744v5.2" class="cls-4" transform="translate(-197.177 290.253)"/>
                    <path id="path6400" d="M316.981-219.526h7.746v-5.2h-7.746v5.2" class="cls-4" transform="translate(-247.154 290.253)"/>
                    <path id="path6402" d="M388.806-219.526h7.745v-5.2h-7.745v5.2" class="cls-4" transform="translate(-300.14 290.253)"/>
                    <path id="path6404" d="M459.928-219.526h7.747v-5.2h-7.747v5.2" class="cls-4" transform="translate(-352.608 290.253)"/>
                    <path id="path6406" d="M249.1-171.537h7.747v-5.205H249.1v5.205" class="cls-4" transform="translate(-197.08 254.852)"/>
                    <path id="path6408" d="M316.853-171.537h7.747v-5.205h-7.747v5.205" class="cls-4" transform="translate(-247.059 254.852)"/>
                    <path id="path6410" d="M388.678-171.537h7.746v-5.205h-7.746v5.205" class="cls-4" transform="translate(-300.046 254.852)"/>
                    <path id="path6412" d="M459.8-171.537h7.747v-5.205H459.8v5.205" class="cls-4" transform="translate(-352.514 254.852)"/>
                    <path id="path6414" d="M447.929-377.6a1.841 1.841 0 0 0 1.736-1.931v-3.267c0-1.521-.777-2.756-1.738-2.756s-1.735 1.235-1.735 2.756v3.267a1.841 1.841 0 0 0 1.736 1.931" class="cls-16" transform="translate(-342.475 408.892)"/>
                    <path id="path6416" d="M390.549-377.967a1.841 1.841 0 0 0 1.736-1.931v-3.4c0-1.522-.779-2.755-1.738-2.755s-1.737 1.233-1.737 2.755v3.4a1.842 1.842 0 0 0 1.736 1.931" class="cls-16" transform="translate(-300.143 409.264)"/>
                    <path id="path6418" d="M502.29-377.6a1.842 1.842 0 0 0 1.736-1.931v-3.267c0-1.521-.778-2.756-1.736-2.756s-1.737 1.235-1.737 2.756v3.267a1.841 1.841 0 0 0 1.736 1.931" class="cls-16" transform="translate(-382.577 408.892)"/>
                    <path id="path6420" d="M278.6-377.967a1.841 1.841 0 0 0 1.736-1.931v-3.4c0-1.522-.777-2.755-1.737-2.755s-1.734 1.233-1.734 2.755v3.4a1.841 1.841 0 0 0 1.736 1.931" class="cls-16" transform="translate(-217.56 409.264)"/>
                    <path id="path6422" d="M224.9-377.49a1.841 1.841 0 0 0 1.736-1.931v-3.231c0-1.522-.777-2.755-1.737-2.755s-1.735 1.233-1.735 2.755v3.231a1.841 1.841 0 0 0 1.736 1.931" class="cls-16" transform="translate(-177.944 408.787)"/>
                    <path id="path6424" d="M337.113-377.967a1.841 1.841 0 0 0 1.736-1.931v-3.4c0-1.522-.778-2.755-1.738-2.755s-1.737 1.233-1.737 2.755v3.4a1.842 1.842 0 0 0 1.736 1.931" class="cls-16" transform="translate(-260.723 409.264)"/>
                    <path id="path6426" d="M276.8-326.417l.146.871a.839.839 0 0 1-.908.03l-.051-.03-.215-.871h1.028" class="cls-18" transform="translate(-216.755 365.269)"/>
                    <path id="path6428" d="M252.017-405.311a33.493 33.493 0 0 0 3.369 6.472l-2.05-.839-1.449-3.348s-.643-4.838.13-2.285" class="cls-8" transform="translate(-198.948 424.019)"/>
                    <path id="path6430" d="M264.8-370.609l1.617 9.971h-1.438s-3.229-8.971-3.567-11.609c0-1.494 3.264 0 3.264 0l.124 1.638" class="cls-6" transform="translate(-206.163 399.568)"/>
                    <path id="path6432" d="M249.143-421.643l-.536 1.389-1.161-.841.784-1.637.914 1.089" class="cls-19" transform="translate(-195.856 436.322)"/>
                    <path id="path6434" d="M251.781-427.046a.794.794 0 0 0 .453-.012c.674-.643.509-2.79.509-2.79l-.752-.52-1.186.434-.344 1.344a1.125 1.125 0 0 0 .272 1.034 2.2 2.2 0 0 0 1.047.51" class="cls-18" transform="translate(-198.058 441.955)"/>
                    <path id="path6436" d="M249.555-431.119a.463.463 0 0 1 .582-.231 3.724 3.724 0 0 0 .556.17c.465.1 1.332.089 1.48-.619s-.772-.647-.772-.647l-1.223.084a2.252 2.252 0 0 1-1.054-.193.5.5 0 0 0-.618.327 3.1 3.1 0 0 0 .127 1.52 2.217 2.217 0 0 0 .337.705l.585-1.116" class="cls-20" transform="translate(-196.598 443.592)"/>
                    <path id="path6438" d="M249.767-425.913a.357.357 0 0 1 .425.129c.112.141.1.312-.02.383a.358.358 0 0 1-.425-.13c-.112-.141-.1-.312.02-.382" class="cls-18" transform="translate(-197.497 438.69)"/>
                    <path id="path6440" d="M275.712-324.319s0 .926 1.863 1.481c.382.114.257.227.329.387h-2.14l-.838-.942-.261.224-.6-.594s.1-.859.565-.866c.379.129 1.085.31 1.085.31" class="cls-20" transform="translate(-215.492 363.95)"/>
                    <path id="path6442" d="M256.677-328.386l-.348.8a.839.839 0 0 1-.869-.264l-.038-.045.281-.824.974.332" class="cls-18" transform="translate(-201.741 366.966)"/>
                    <path id="path6444" d="M242.158-417.322s.148-.228-1.167-.908c-1.982 1.982-2.632 9.57-2.632 9.57h5.182a26.229 26.229 0 0 0-1.383-8.662" class="cls-4" transform="translate(-189.153 433)"/>
                    <path id="path6446" d="M264.3-384.979a.229.229 0 0 0-.108-.25l-.845-.49a.983.983 0 0 0-.692-.112l-.916.037-.12.145-.19.81c.184-.044.292-.072.292-.072l.582.016s1.1 1.019 1.642.133c.022.943.3.871.3.871l.057-1.087" class="cls-18" transform="translate(-206.169 409.115)"/>
                    <path id="path6448" d="M238.085-381.743l-.079.643v.026a2.535 2.535 0 0 0 1.859 2.7 22.837 22.837 0 0 0 5.337.944c-1.955 2.51-2.5 9.552-2.5 9.552l1.259.457 4.864-11.584a1.28 1.28 0 0 0-.913-1.748l-4.646-.989h-5.182" class="cls-21" transform="translate(-188.88 406.084)"/>
                    <path id="path6450" d="M237.653-412.984a10.4 10.4 0 0 0-1.533 1.79.676.676 0 0 0 .061.8c1.08 1.243 4.925 2.437 4.925 2.437l-.249 1.4s-5.458-1.073-7.391-3.012c-1.984-1.99 3.144-6.145 3.144-6.145" class="cls-4" transform="translate(-185.207 431.141)"/>
                    <path id="path6452" d="M244.42-403.647a.6.6 0 0 0 .054.711 8.823 8.823 0 0 0 2.953 1.612v.159a8.743 8.743 0 0 1-3.069-1.67.748.748 0 0 1-.068-.893 10.6 10.6 0 0 1 1.546-1.806l.1.114a10.392 10.392 0 0 0-1.52 1.774" class="cls-8" transform="translate(-193.443 423.635)"/>
                    <path id="path6454" d="M239.028-389.31a27.473 27.473 0 0 0 6.264 2.171 1.2 1.2 0 0 1-.033.148 27.3 27.3 0 0 1-6.252-2.142 1.506 1.506 0 0 1 .021-.177" class="cls-8" transform="translate(-189.632 411.666)"/>
                    <path id="path6456" d="M266.327-392.553l1.616-5.776-.3-.083-1.541 5.507-4.638-.806-.052.3 4.912.854" class="cls-22" transform="translate(-206.163 418.38)"/>
                    <path id="path6458" d="M254.319-325.92s-.073.934 1.786 1.489c.382.114.258.227.329.387H254.3l-.838-.942-.261.224-.6-.593s.282-.859.742-.867c.379.129.984.3.984.3" class="cls-20" transform="translate(-199.654 365.125)"/>
                    <path id="path6460" fill="#fab414" d="M116.551-212.976l-3.226-.91-1.706 3.518 3.708 1.941 1.548-3.286-.323-1.263" transform="translate(-95.656 282.254)"/>
                    <path id="path6462" d="M100.263-223.977l-2.939 6.226-4.512-2.667 2.674-5.145 4.777 1.586" class="cls-17" transform="translate(-81.782 290.868)"/>
                    <path id="path6464" d="M256.17-249.194l2.392-2.348 3.186 2.266-2.32 3.483-2.936-2.139-.323-1.262" class="cls-17" transform="translate(-202.293 310.033)"/>
                    <path id="path6466" d="M259.871-265.359l5.568 4.049 2.676-4.507-4.817-3.228-3.428 3.686" class="cls-7" transform="translate(-205.024 322.945)"/>
                    <path id="path6468" d="M179.1-263.487l-2.063.527a1.686 1.686 0 0 1-2.037-1.212l-2.479-9.691a1.687 1.687 0 0 1 1.212-2.046l2.063-.528a1.686 1.686 0 0 1 2.046 1.212l2.48 9.691a1.687 1.687 0 0 1-1.212 2.046" class="cls-17" transform="translate(-140.542 328.436)"/>
                    <path id="path6470" d="M111.181-221.923a26.343 26.343 0 0 0 32.051 18.991 26.343 26.343 0 0 0 18.991-32.051 26.342 26.342 0 0 0-32.05-18.99 26.342 26.342 0 0 0-18.991 32.051" class="cls-6" transform="translate(-94.722 312.438)"/>
                    <path id="path6472" d="M193.042-189.963l-.1-.081c-.17-.142-.341-.282-.512-.421a24.025 24.025 0 0 1 1.187 3.5 23.958 23.958 0 0 1-17.252 29.117 23.9 23.9 0 0 1-20.436-4.162 3.309 3.309 0 0 1-.095.392 24.268 24.268 0 0 0 20.623 4.13 24.33 24.33 0 0 0 17.519-29.568 24.441 24.441 0 0 0-.939-2.9" class="cls-24" transform="translate(-128.277 264.977)"/>
                    <path id="path6474" d="M133.545-234.775a23.847 23.847 0 0 1 14.383-10.559 24.191 24.191 0 0 1 2.443-.492c-.019-.122-.033-.246-.04-.369a24.443 24.443 0 0 0-2.495.5 24.212 24.212 0 0 0-14.468 10.5 3.472 3.472 0 0 1 .177.414" class="cls-24" transform="translate(-111.7 306.088)"/>
                    <path id="path6476" d="M128.706-210.677a21.891 21.891 0 0 0 26.633 15.777 21.89 21.89 0 0 0 15.781-26.63 21.89 21.89 0 0 0-26.634-15.781 21.89 21.89 0 0 0-15.781 26.633" class="cls-16" transform="translate(-107.753 300.042)"/>
                    <path id="path6478" d="M163.277-280.7l.32 3.3 10.069-2.768-1.131-2.839-9.258 2.3" class="cls-4" transform="translate(-133.765 333.246)"/>
                    <path id="path6480" d="M183.929-190.476l16.454-19.037-12.456 23.038z" class="cls-20" transform="translate(-149 279.027)"/>
                    <path id="path6482" d="M201.789-195.815c-.92 1.158-1.79 2.355-2.732 3.5-1.969 2.383-4 4.719-5.919 7.148a60.324 60.324 0 0 0-3.5 5.388l2.5 2.5 10.688-19.769c-.347.411-.7.815-1.038 1.236" class="cls-22" transform="translate(-153.212 269.835)"/>
                    <path id="path6484" d="M202.119-159.509a1.9 1.9 0 0 0 2.314 1.372 1.9 1.9 0 0 0 1.372-2.315 1.9 1.9 0 0 0-2.314-1.372 1.9 1.9 0 0 0-1.372 2.315" class="cls-4" transform="translate(-162.375 243.891)"/>
                    <path id="path6486" d="M206.175-156.758a.83.83 0 0 0 1.01.6.83.83 0 0 0 .6-1.01.83.83 0 0 0-1.01-.6.83.83 0 0 0-.6 1.01" class="cls-9" transform="translate(-165.392 240.874)"/>
                    <path id="path6488" d="M192.037-228.924l-.539.138-1.192-4.658.539-.138 1.192 4.658" class="cls-4" transform="translate(-153.704 296.784)"/>
                    <path id="path6490" d="M227.746-89.37l-.539.138-1.192-4.658.539-.138 1.192 4.658" class="cls-4" transform="translate(-180.048 193.833)"/>
                    <path id="path6492" d="M272.233-174.084l-.138-.539 4.658-1.192.138.539-4.658 1.192" class="cls-4" transform="translate(-214.041 254.169)"/>
                    <path id="path6494" d="M132.679-138.377l-.138-.539 4.658-1.192.138.539-4.658 1.192" class="cls-4" transform="translate(-111.09 227.826)"/>
                    <path id="path6496" d="M269.733-120.21l.187-.315 2.723 1.614-.187.315-2.723-1.613" class="cls-4" transform="translate(-212.298 213.38)"/>
                    <path id="path6498" d="M141.254-196.335l.187-.315 2.723 1.613-.187.315-2.723-1.613" class="cls-4" transform="translate(-117.518 269.539)"/>
                    <path id="path6500" d="M245.742-221.786l-.315-.187 1.613-2.722.315.186-1.613 2.723" class="cls-4" transform="translate(-194.367 290.228)"/>
                    <path id="path6502" d="M169.616-93.308l-.315-.187 1.613-2.722.315.186-1.613 2.723" class="cls-4" transform="translate(-138.209 195.448)"/>
                    <path id="path6504" d="M264.194-203.934l-.23-.285 2.46-1.99.23.285-2.46 1.991" class="cls-4" transform="translate(-208.042 276.59)"/>
                    <path id="path6506" d="M148.087-110.013l-.23-.285 2.46-1.991.23.285-2.46 1.99" class="cls-4" transform="translate(-122.389 207.303)"/>
                    <path id="path6508" d="M220.824-231.651l-.362-.054.466-3.13.362.054-.466 3.13" class="cls-4" transform="translate(-175.951 297.708)"/>
                    <path id="path6510" d="M198.821-83.942l-.363-.058.466-3.13.362.054-.466 3.13" class="cls-4" transform="translate(-159.718 188.741)"/>
                    <path id="path6512" d="M163.472-216.773l-.29.224-1.93-2.507.29-.224 1.93 2.507" class="cls-4" transform="translate(-132.271 286.233)"/>
                    <path id="path6514" d="M254.581-98.447l-.29.224-1.931-2.507.29-.224 1.93 2.507" class="cls-4" transform="translate(-199.483 198.943)"/>
                    <path id="path6516" d="M134.3-167l-.054.362-3.13-.465.054-.363 3.13.465" class="cls-4" transform="translate(-110.036 248.011)"/>
                    <path id="path6518" d="M282.012-145.044l-.054.362-3.13-.465.054-.362 3.13.465" class="cls-4" transform="translate(-219.008 231.811)"/>
                    <path id="path6520" d="M246.007-172.971a2.576 2.576 0 0 0 2.324 2.806 2.577 2.577 0 0 0 2.806-2.324 2.577 2.577 0 0 0-2.324-2.806 2.576 2.576 0 0 0-2.806 2.324" class="cls-4" transform="translate(-194.787 253.793)"/>
                    <path id="path6522" d="M237.4-178.582a1.289 1.289 0 0 0 1.162 1.4 1.288 1.288 0 0 0 1.4-1.162 1.288 1.288 0 0 0-1.162-1.4 1.289 1.289 0 0 0-1.4 1.162" class="cls-4" transform="translate(-188.445 257.071)"/>
                    <path id="path6524" d="M454.976-230l-1.9 3.272-.865 1.487-.26.447c-.5-.492-.977-1.077-1.414-1.5l-2.817-2.7c-1.625-1.557-4.1.912-2.473 2.473l3.756 3.6c.931.892 1.928 2.252 3.36 2.139s2.049-1.292 2.693-2.4l2.944-5.049a1.75 1.75 0 0 0-3.02-1.765" class="cls-17" transform="translate(-341.384 294.762)"/>
                    <path id="path6526" d="M424.737-95.837l.654 1.732a.572.572 0 0 1-.186.675 2.186 2.186 0 0 1-.343.157 20.551 20.551 0 0 1-.875-2.364l.008-.014a.622.622 0 0 1 .742-.187" class="cls-21" transform="translate(-326.094 195.206)"/>
                    <path id="path6528" d="M424.539-92.556l-.875-2.364-.115.066.881 2.342.108-.045" class="cls-20" transform="translate(-325.771 194.491)"/>
                    <path id="path6530" d="M426.991-93.076l.057.157-.3.058-.057-.151.3-.063" class="cls-4" transform="translate(-328.087 193.13)"/>
                    <path id="path6532" d="M427.471-91.8l.057.157-.3.058-.057-.151.3-.063" class="cls-4" transform="translate(-328.441 192.189)"/>
                    <path id="path6534" d="M427.535-97.247l-.726.409a.466.466 0 0 0 .16.47l.026.021.8-.206-.261-.694" class="cls-18" transform="translate(-328.167 196.207)"/>
                    <path id="path6536" d="M435.408-138.913a4.17 4.17 0 0 0-.905 2.14 28.131 28.131 0 0 0 .254 3.476 2.912 2.912 0 0 1-1.25 2.484l-3.894 2.828.261.694s5.329-.8 6.728-3.186 1.731-7.79 1.731-7.79l-2.925-.646" class="cls-20" transform="translate(-330.243 226.945)"/>
                    <path id="path6538" d="M430.493-150.125l-2 4.472a2.725 2.725 0 0 0-1.18.411.854.854 0 0 0-.127.772.276.276 0 0 0 .452.159 1.9 1.9 0 0 1 .69-.438.83.83 0 0 0 .642-.432l2.873-4.506-1.347-.439" class="cls-18" transform="translate(-328.429 235.216)"/>
                    <path id="path6540" d="M474.64-203.615l1.026-.877-.8-4.335-1.234-.631a.357.357 0 0 1 .439-.137 1.128 1.128 0 0 0 .562.041s.231-.286-.207-.479c-.246-.166-.411 0-1.124-.028 0-.11.94-.37.94-.37.293-.094 1.041.485 1.041.485a.521.521 0 0 1 .1.233l.118.8s1.591 4.362 1.591 4.828-.892 1.1-.892 1.1l-1.561-.638" class="cls-18" transform="translate(-362.477 279.713)"/>
                    <path id="path6542" d="M456.33-138.924a2.993 2.993 0 0 0-.247 2.472 11.2 11.2 0 0 0 1.972 3.452 3.035 3.035 0 0 1 .36 2.383 20.537 20.537 0 0 0 .343 7.049h.741s1.111-5.679 1.441-9.671a11.512 11.512 0 0 0-1.276-6.3l-3.333.614" class="cls-20" transform="translate(-349.684 227.406)"/>
                    <path id="path6544" d="M473.011-209.013l2.326.342.09-.615-2.326-.341-.09.614" class="cls-17" transform="translate(-362.259 279.112)"/>
                    <path id="path6546" d="M481.885-208.339l-.09.614-.212-.031.09-.614.213.031" class="cls-4" transform="translate(-368.583 278.184)"/>
                    <path id="path6548" d="M482.221-207.683c.17.024.314.012.355-.266.045-.3-.093-.33-.263-.356l-.091.622" class="cls-20" transform="translate(-369.054 278.136)"/>
                    <path id="path6550" d="M471.741-209.013l-.451-.271.033-.224.509-.12-.09.614" class="cls-4" transform="translate(-360.989 279.112)"/>
                    <path id="path6552" d="M470.737-208.948l-.2-.142.229-.082z" class="cls-22" transform="translate(-360.436 278.776)"/>
                    <path id="path6554" d="M475.332-207.848l-.02.14-2.248-.33.02-.14 2.248.33" class="cls-25" transform="translate(-362.298 278.043)"/>
                    <path id="path6556" d="M475.5-208.978l-.02.14-2.248-.329.02-.14 2.248.33" class="cls-25" transform="translate(-362.42 278.876)"/>
                    <path id="path6558" d="M442.323-180.8c-1.323.972-2.881 5.646-2.881 5.646l1.162.652 1.891-2.595a25.085 25.085 0 0 1-.268 5.308c.206.865 1.187.767 2.779.465a7.893 7.893 0 0 0 2.634-.987s.069-4.168.274-6.378-.2-2.446.356-2.373a19.81 19.81 0 0 0 3.28-2.98l-1.892-.368-4.074 2.387a17.656 17.656 0 0 0-3.261 1.223" class="cls-21" transform="translate(-337.495 260.511)"/>
                    <path id="path6560" d="M459.227-191.728l.983.97a1.7 1.7 0 0 1 .466 1.583l-.115.518-1.334-3.071" class="cls-18" transform="translate(-352.09 265.907)"/>
                    <path id="path6562" d="M450.229-193.129c-2.387 0-1.372 4.582-1.372 4.582s.425 2.972 1.372 4.165c.819 1.033 2.44.722 3.208.226a2.932 2.932 0 0 1 1.239-.457 1.416 1.416 0 0 0 1.424-1.539c0-1.1-1.318-1.958-2.186-2.568a2.862 2.862 0 0 1-1.125-1.663c-.278-1.131-.955-2.747-2.56-2.747" class="cls-20" transform="translate(-344.282 266.941)"/>
                    <path id="path6564" d="M466.583-75.534h1.852c.246.034.52.128.567.412a2.186 2.186 0 0 1 .027.377 20.612 20.612 0 0 1-2.521-.014l-.011-.011a.623.623 0 0 1 .086-.761" class="cls-21" transform="translate(-357.382 180.192)"/>
                    <path id="path6566" d="M469.329-72.569l-2.521-.014.022.131h2.5v-.117" class="cls-22" transform="translate(-357.683 178.012)"/>
                    <path id="path6568" d="M469.76-75.537h.167l-.052.3h-.162l.047-.3" class="cls-4" transform="translate(-359.827 180.192)"/>
                    <path id="path6570" d="M471.124-75.537h.167l-.052.3h-.162l.047-.3" class="cls-4" transform="translate(-360.833 180.192)"/>
                    <path id="path6572" d="M466.614-78.665l.127.823a.465.465 0 0 0 .5.016l.028-.016.089-.823h-.741" class="cls-18" transform="translate(-357.54 182.499)"/>
                    <path id="path6574" d="M475-207.283a.357.357 0 0 0-.439.137l.821.42.034-.015a3.844 3.844 0 0 1 .544-.2 6.894 6.894 0 0 0-.96-.344" class="cls-18" transform="translate(-363.404 277.401)"/>
                    <path id="path6576" d="M116.2-174.474l3.549 5.035-1.22.415-3.373-2.448.153-1.7.891-1.3" class="cls-18" transform="translate(-98.268 253.179)"/>
                    <path id="path6578" d="M99.269-183.639c1.6 1.152.355 11.015.355 11.015l-6.4-1.243s.5-10.009 6.046-9.772" class="cls-9" transform="translate(-82.085 259.943)"/>
                    <path id="path6580" d="M113.081-186.079l.624-.914 1.1.575-.376 1.227-.033.015a3.521 3.521 0 0 0-1.32-.9" class="cls-19" transform="translate(-96.735 262.414)"/>
                    <path id="path6582" d="M115.075-195.41l-.308 1.7a.267.267 0 0 1 .156.384.322.322 0 0 1 0 .13 1.978 1.978 0 0 0 1.414.7c1.109.045.95-2.157.95-2.157l-2.21-.754" class="cls-18" transform="translate(-97.979 268.624)"/>
                    <path id="path6584" d="M111.834-197.311a1.057 1.057 0 0 0-.16-.528c-.479-.661.148-.915.367-.992.243-.086.291-.478.614-.628.494-.229.816.2 1.1.217s.528-.3.872-.024.23.574.324.732.406-.144.69.351c.431.753-.761.753-.761.753a2.107 2.107 0 0 1-1.422-.4.276.276 0 0 0-.335 0 5.868 5.868 0 0 0-.589 1.621l-.22-.291a.78.78 0 0 1-.476-.811" class="cls-20" transform="translate(-95.566 271.66)"/>
                    <path id="path6586" d="M115.076-190.85a.265.265 0 0 0 .3.22.265.265 0 0 0 .22-.3.264.264 0 0 0-.3-.22.264.264 0 0 0-.22.3" class="cls-18" transform="translate(-98.204 265.486)"/>
                    <path id="path6588" d="M67.994-105.546a4.385 4.385 0 0 0-.827 1.8c-.07.275.024.572-.431.572v-1.518l.218-1.262h-.218v-.682s1.115-.19 1.258.208v.882" class="cls-20" transform="translate(-62.545 203.168)"/>
                    <path id="path6590" d="M71.947-105.523l-.8.134a.771.771 0 0 1-.028-.835l.028-.047.8-.2v.946" class="cls-18" transform="translate(-65.697 203.011)"/>
                    <path id="path6592" d="M107.048-80.551s0 .851 1.714 1.362c.351.1.237.208.3.356H107.1l-.771-.866-.24.206-.556-.546s.259-.79.683-.8l.835.285" class="cls-20" transform="translate(-91.165 184.101)"/>
                    <path id="path6594" d="M109.288-83.421l-.32.738a.771.771 0 0 1-.8-.243l-.035-.041.258-.758.9.305" class="cls-18" transform="translate(-93.084 186.233)"/>
                    <path id="path6596" d="M79.018-137.952a14.474 14.474 0 0 0 1.042 4.725 1.159 1.159 0 0 1-.821 1.608 19.3 19.3 0 0 0-5.458 1.9v1.2l8.139-1.113a2.861 2.861 0 0 0 2.457-2.54l.26-2.518-5.62-3.267" class="cls-20" transform="translate(-67.742 226.236)"/>
                    <path id="path6598" d="M99.147-139.349s2.813 5.276 2.813 6.913-3.786 8.02-3.786 8.02h-1.083a52.594 52.594 0 0 1 .925-7.4 1.914 1.914 0 0 0-.551-1.807 29.235 29.235 0 0 1-4.343-5.728h6.026" class="cls-22" transform="translate(-82.01 227.267)"/>
                    <path id="path6600" d="M84.405-170.253c.2.6-.112.512-.715 1.458l-30.744 10.5a1.148 1.148 0 0 1-1.458-.715l-.668-1.955a1.148 1.148 0 0 1 .715-1.458l30.744-10.5c.6-.2.592.737.8 1.336l1.329 1.335" class="cls-7" transform="translate(-50.759 252.057)"/>
                    <path id="path6602" fill="#f9ab37" d="M52.409-154.729l.3.869a1.148 1.148 0 0 0 1.458.715l30.744-10.5c.6-.205.418-2.327.418-2.327l-32.92 11.243" transform="translate(-51.976 246.908)"/>
                    <path id="path6604" d="M55.834-133.134l-.668-1.955a1.148 1.148 0 0 0-1.458-.716l-2.173.742a1.148 1.148 0 0 0-.715 1.458l.371 1.086.3.869a1.148 1.148 0 0 0 1.458.715l2.173-.742a1.148 1.148 0 0 0 .715-1.458" class="cls-22" transform="translate(-50.759 224.698)"/>
                    <g id="g6606" transform="translate(3.276 88.263)">
                        <g id="g6608" clip-path="url(#clip-path-4)">
                            <path id="path6620" fill="url(#linear-gradient-3)" d="M64.658-133.387l1.521-.52-1.41-4.128-1.521.519 1.41 4.128" transform="translate(-63.247 138.034)"/>
                        </g>
                    </g>
                    <path id="path6622" d="M184.3-170.068l.993.076-.776.675-.394-.235.178-.517" class="cls-20" transform="translate(-149.144 249.928)"/>
                    <g id="g6624" transform="translate(31.67 79.082)">
                        <g id="g6626" clip-path="url(#clip-path-5)">
                            <path id="path6638" fill="url(#linear-gradient-4)" d="M175.207-171.507a.946.946 0 0 1-.177-.309l-.009-.034a.972.972 0 0 1-.037-.2v-.1a.918.918 0 0 1 .009-.1l-3.488-.779.731 2.141.679 1.987 2.295-2.6" transform="translate(-171.502 173.037)"/>
                        </g>
                    </g>
                    <path id="path6640" d="M94.6-171.03l2.229 1.379-1.606 1.841-.223 5.234-.866-.168s-1.356-4.043-1.086-5.435a7.48 7.48 0 0 1 1.552-2.851" class="cls-18" transform="translate(-81.929 250.638)"/>
                    <path id="path6642" d="M95.382-139.269l-.008 1.039a.86.86 0 0 1-.142.469c-.174.262-.484.647-.77.592-.429-.083-.932-1.07-.932-1.07l.985-1.2.866.168" class="cls-18" transform="translate(-82.312 227.332)"/>
                    <path id="path6644" d="M554.277-199.919L538.424-249.2h.9l15.852 49.282h-.9" class="cls-7" transform="translate(-410.515 308.306)"/>
                    <path id="path6646" d="M523.026-199.919L507.173-249.2h.9l15.852 49.282h-.9" class="cls-7" transform="translate(-387.461 308.306)"/>
                    <path id="path6648" d="M533.227-200.422v.735h-8.494l-.145-.735h8.639" class="cls-7" transform="translate(-400.308 272.324)"/>
                    <path id="path6650" d="M526.533-218.628v.735h-8.494l-.145-.735h8.639" class="cls-7" transform="translate(-395.37 285.755)"/>
                    <path id="path6652" d="M521-236.833v.735h-8.493l-.145-.735H521" class="cls-7" transform="translate(-391.287 299.186)"/>
                    <path id="path6654" d="M539.126-181.982v.735h-8.493l-.145-.735h8.638" class="cls-7" transform="translate(-404.661 258.721)"/>
                    <path id="path6656" d="M544.662-163.543v.735h-8.493l-.145-.735h8.638" class="cls-7" transform="translate(-408.745 245.118)"/>
                    <path id="path6658" d="M551.353-144.384l.343.735h-8.494l-.145-.735h8.3" class="cls-7" transform="translate(-413.933 230.985)"/>
                    <path id="path6660" d="M557.425-125.227l.343.735h-8.494l-.145-.735h8.3" class="cls-7" transform="translate(-418.413 216.852)"/>
                    <path id="path6662" d="M563.11-106.5l.343.735h-8.494l-.145-.735h8.3" class="cls-7" transform="translate(-422.607 203.035)"/>
                    <path id="path6664" d="M567.822-87.357l.343.735h-8.494l-.145-.735h8.3" class="cls-7" transform="translate(-426.083 188.915)"/>
                    <path id="path6666" d="M519.9-223.761s-.236.326-1.349.61c-.245.062-.509.1-.509.509h1.1l1.123-.194v.194h.606s.169-.992-.185-1.119h-.786" class="cls-20" transform="translate(-395.48 289.538)"/>
                    <path id="path6668" d="M524.9-226.477l.058.712a.686.686 0 0 0 .743.025l.042-.025v-.712h-.843" class="cls-18" transform="translate(-400.541 291.542)"/>
                    <path id="path6670" d="M541.373-223.221s-.236.327-1.348.61c-.245.063-.509.1-.509.509h1.1l1.123-.194v.194h.607s.169-.991-.186-1.119h-.784" class="cls-20" transform="translate(-411.321 289.14)"/>
                    <path id="path6672" d="M546.376-225.935l.058.712a.686.686 0 0 0 .743.025l.042-.025v-.712h-.842" class="cls-18" transform="translate(-416.381 291.143)"/>
                    <path id="path6674" d="M523.2-297.527l.273 17.892h1.3s1.984-14.445 1.561-17.892-3.138 0-3.138 0" class="cls-20" transform="translate(-399.282 345.086)"/>
                    <path id="path6676" d="M528.451-293.233a46.289 46.289 0 0 0 1.5 8.539c1.042 3.042 2.924 9.357 2.924 9.357h1.349s-2.253-13.2-1.738-17.9h-4.031" class="cls-22" transform="translate(-403.158 340.788)"/>
                    <path id="path6678" d="M512.431-327.954s-1.606 3.746-2.014 3.746c-.326 0 .122-3.059.122-3.059h-1.345s-1.692 5.243-.347 6.2 4.3-2.711 4.3-2.711l-.718-4.177" class="cls-7" transform="translate(-388.312 366.403)"/>
                    <path id="path6680" d="M535.929-291.649l-.487 1.2c-.235.473-1.1.485-1.668.335a.119.119 0 0 1-.056-.2 16.536 16.536 0 0 1 1.412-1.425l.8.082" class="cls-18" transform="translate(-407.02 339.681)"/>
                    <path id="path6682" d="M524.961-330.955a1.51 1.51 0 0 0-1.293.717 1.016 1.016 0 0 0-.158.514v8.659h4.916v-8.1a1.871 1.871 0 0 0-1.86-1.8c-.749 0-1.262 0-1.6.006" class="cls-7" transform="translate(-399.512 368.621)"/>
                    <path id="path6684" d="M523.361-315.092v-7.777l-.163.005v7.771h.163" class="cls-4" transform="translate(-399.282 362.651)"/>
                    <path id="path6686" d="M530.124-337.26l-.524 1.974a1.248 1.248 0 0 1-1.041.206c-.593-.157-.479-.585-.479-.585l.336-1.265h.938l.77-.334" class="cls-19" transform="translate(-402.878 373.268)"/>
                    <path id="path6688" d="M527.426-343.964a.764.764 0 0 1-.41-.232c-.3-.979.9-3.081.9-3.081l1.819.849-.342 1.532a1.317 1.317 0 0 1-.755.919 2.115 2.115 0 0 1-1.21.012" class="cls-18" transform="translate(-402.063 380.657)"/>
                    <path id="path6690" d="M527.864-348.348a4.224 4.224 0 0 1-1.3-.346c-.635-.3-.014-.917-.014-.917a2.717 2.717 0 0 0 1.346.46c.615.07.805 0 1.131.3.443.412.071 1.311.071 1.311l-.809 1.9-.107-.028s.285-1.18.392-1.579c-.063-.211-.184-.243-.29-.223a.309.309 0 0 0-.23.229l-.543 2.048a5.258 5.258 0 0 1-1.759.026c-.3-.19.32-1.649.32-1.649a.63.63 0 0 1 .635.347c.207.407.654.159.654.159l.5-2.035" class="cls-20" transform="translate(-401.104 382.38)"/>
                    <path id="path6692" d="M512.615-330.2l.047-.259a2.152 2.152 0 0 1 1.2-1.47h.571l-.177 1.22-.806.509h-.838" class="cls-18" transform="translate(-391.475 369.332)"/>
                    <path id="path6694" d="M535.111-341.525a.345.345 0 0 0-.4.23.3.3 0 0 0 .121.415.345.345 0 0 0 .4-.23.3.3 0 0 0-.121-.415" class="cls-18" transform="translate(-407.752 376.424)"/>
                    <path id="path6696" d="M514.857-328.989l-1.113.644h.71l1.177-.986s-.085-.172-.352-.027a1.359 1.359 0 0 0-.422.368" class="cls-18" transform="translate(-392.308 367.481)"/>
                    <path id="path6698" d="M535.613-328.9s2.78 3.088 2.78 4.938-2.256 5.112-2.256 5.112l-1.114-.326a42.649 42.649 0 0 0 1.006-5.11c0-1.074-2.066-2.648-2.066-2.648" class="cls-7" transform="translate(-407.224 367.097)"/>
                    <path id="path6700" d="M535.807-318.932a41.746 41.746 0 0 1-1.01 5.092l.165.042a41.572 41.572 0 0 0 1.008-5.133c0-1.1-2.012-2.648-2.1-2.713l-.1.13c.021.015 2.034 1.561 2.034 2.583" class="cls-4" transform="translate(-407.084 361.748)"/>
                    <path id="path6702" d="M516.3-334.974a2.948 2.948 0 0 1-.774 2.077.321.321 0 0 1-.22.089.811.811 0 0 1-.374-.111.356.356 0 0 1-.21-.194.154.154 0 0 1 .036-.158 2.185 2.185 0 0 0 .607-1.606 1.208 1.208 0 0 1 .935-.1" class="cls-6" transform="translate(-393.02 371.622)"/>
                    <path id="path6704" d="M514.832-332.961a.236.236 0 0 1-.113-.14.154.154 0 0 1 .036-.158 2.185 2.185 0 0 0 .607-1.606 1.013 1.013 0 0 1 .458-.145 3.327 3.327 0 0 1-.987 2.049" class="cls-21" transform="translate(-393.02 371.608)"/>
                    <path id="path6706" d="M517.026-332.367c-.056.165-.155.282-.22.26s-.072-.174-.016-.34.154-.282.22-.259.072.174.016.34" class="cls-6" transform="translate(-394.528 369.911)"/>
                    <path id="path6708" fill="#f78d38" d="M517.591-332.746l-.068-.026v.036l.044.024.023-.035" transform="translate(-395.096 369.957)"/>
                    <path id="path6710" fill="#ee2662" d="M516.785-330.487l-.083-.027h.1z" transform="translate(-394.49 368.293)"/>
                    <path id="path6712" d="M516.814-332.439c-.056.166-.154.282-.219.26s-.072-.174-.016-.34.155-.282.22-.26.072.174.016.34" class="cls-9" transform="translate(-394.372 369.964)"/>
                    <path id="path6714" d="M521.945-338.494l.13.016a.449.449 0 0 1 .4.49l-.043.344a.449.449 0 0 1-.509.376l-.131-.016.152-1.209" class="cls-6" transform="translate(-398.246 374.178)"/>
                    <path id="path6716" d="M506.845-343.718c-.117.938 0 1.726.269 1.759s.577-.7.695-1.638 0-1.726-.269-1.76-.577.7-.7 1.639" class="cls-20" transform="translate(-387.185 379.242)"/>
                    <path id="path6718" d="M509.674-341.023l-.412.2-.069.549.348.406.225-.7-.092-.458" class="cls-4" transform="translate(-388.951 376.044)"/>
                    <path id="path6720" d="M509.055-343.391a2.786 2.786 0 0 0-.153-1.687 7.824 7.824 0 0 0 3.3 1.749l-.15 1.2s-2.512-.459-3.564.337a2.779 2.779 0 0 0 .566-1.6" class="cls-7" transform="translate(-388.432 379.036)"/>
                    <path id="path6722" d="M509.1-340c-.019.152-.012.279.017.283s.068-.117.087-.27.011-.279-.017-.282-.068.117-.087.269" class="cls-7" transform="translate(-388.872 375.488)"/>
                    <path id="path6724" d="M514.971-331.011a1.314 1.314 0 0 0 .622.1c.323 0 .469-.4.525-.614.02-.076.036-.184-.059-.233l-.52-.072-.568.817" class="cls-18" transform="translate(-393.213 369.261)"/>
                    <path id="path6726" d="M307.794-242.989h14.736s.3 9.18-1.312 9.476a2.28 2.28 0 0 1-2.27-.559 7.027 7.027 0 0 1-4.475 3.093c-2.8.362-6.679.428-6.679.428v-12.437" class="cls-4" transform="translate(-240.377 303.723)"/>
                    <path id="path6728" d="M335.057-205.987c1.044-.159 5.619-1.095 6.642-2.7a3 3 0 0 1-2.639-.308s-1.678 2.5-4 3.008" class="cls-9" transform="translate(-260.488 278.645)"/>
                    <path id="path6730" d="M294.96-206.371l-2.1 5.5-1.326-.987 2.963-4.995.466.485" class="cls-19" transform="translate(-228.378 277.067)"/>
                    <path id="path6732" d="M302.816-212.529a.856.856 0 0 0-.19.581l-.093.793.108.123.372.33c-.013-.164-.032 0-.032 0l.6-1.042s.724-.464-.189-1.149a.264.264 0 0 0-.3-.019.671.671 0 0 0-.275.383" class="cls-19" transform="translate(-236.495 281.563)"/>
                    <path id="path6734" d="M286.9-183.733a34.549 34.549 0 0 0 2.54-3.97L288.3-189l-1.4 1.631v3.638" class="cls-6" transform="translate(-224.965 263.896)"/>
                    <path id="path6736" d="M274.252-112.3l.67.116c.139-.831 2.222-4.77 2.391-6.815a46.229 46.229 0 0 1 .716-4.8l-2.241-.667s-.567 0 .056 4.629c-1.4 1.839-1.777 6.012-1.592 7.536" class="cls-19" transform="translate(-215.6 216.285)"/>
                    <path id="path6738" d="M280.666-130.881s.526 3.166 1.258 6.553c-.764 2.045.4 7.751.422 7.732.088-.083.49.413.49.413s.85-5.036 1.038-7.307.235-5.04.235-5.04l-3.443-2.35" class="cls-18" transform="translate(-220.364 221.02)"/>
                    <path id="path6740" d="M285.957-77.638a.749.749 0 0 0-.261.615c.059.345.141 1.152.141 1.152h.328l-.01-.753c0-.049.7.753.822.753h1.735s.115-.508-.9-.671a3.714 3.714 0 0 1-1.852-1.1" class="cls-22" transform="translate(-224.07 181.742)"/>
                    <path id="path6742" d="M275.12-80.591l-.046.719a.67.67 0 0 0 .118.425 2.691 2.691 0 0 0 .522.542c-.5.162-.961-.4-1.2-.777a.894.894 0 0 1-.13-.615l.085-.566.652.272" class="cls-19" transform="translate(-215.721 184.122)"/>
                    <path id="path6744" d="M272.129-78.319s-.443.039-.516.376-.283 1.018-.283 1.018l.241.192.34-.675a10.037 10.037 0 0 0 .848 1.035h1.894s0-.627-1.185-.655c-1.092-.026-1.34-1.291-1.34-1.291" class="cls-20" transform="translate(-213.477 182.244)"/>
                    <path id="path6746" d="M284.961-184.408h-1.356l.541-1.593 1.06.651-.245.942" class="cls-19" transform="translate(-222.533 261.682)"/>
                    <path id="path6748" d="M308.033-249.373l1.814.706 3.9-10.015-1.814-.706-3.9 10.015" class="cls-17" transform="translate(-240.553 315.82)"/>
                    <path id="path6750" d="M309.2-220.749l-.051-.02.052.02" class="cls-4" transform="translate(-241.379 287.331)"/>
                    <path id="path6752" fill="#c1e9d1" d="M324.651-260.195l-.629-.245a1.827 1.827 0 0 1 .972-.528c.211 0 .208.21-.343.774" transform="translate(-252.348 316.987)"/>
                    <path id="path6754" fill="#fab956" d="M309.2-248.918l-.052-.02s3.317-9.431 3.9-10.015l.629.245c-1.125 1.15-4.452 9.722-4.478 9.79" transform="translate(-241.377 315.5)"/>
                    <path id="path6756" d="M303.18-344.366a56.264 56.264 0 0 1 6.888.212c.366.044 1.922.1.887.086l.784.263c.836.618 1.545 1.356 2.446 1.9a10.4 10.4 0 0 0 2.6 1.127 12.491 12.491 0 0 1 2.207 12.719 12.5 12.5 0 0 1-13.153 7.875 6.17 6.17 0 0 0-1.332-.651 3.326 3.326 0 0 0-.487-.21 16.34 16.34 0 0 0-1.955-1.013 6.9 6.9 0 0 0-2.175-.506 12.5 12.5 0 0 1-4.187-14.554 12.461 12.461 0 0 1 7.481-7.246" class="cls-16" transform="translate(-230.825 378.517)"/>
                    <g id="g6758" transform="translate(72.172 34.313)">
                        <g id="g6760" clip-path="url(#clip-path-6)">
                            <path id="path6772" fill="url(#linear-gradient-5)" d="M330.457-319.961a6 6 0 0 0-2.619-.8 14.178 14.178 0 0 1-1.822-.157l-.094-.023 8.865-22.785a12.492 12.492 0 0 1 6.333 15.836 12.488 12.488 0 0 1-10.663 7.925" transform="translate(-325.922 343.722)"/>
                        </g>
                    </g>
                    <path id="path6774" d="M297-338.614a11.092 11.092 0 0 1 14.359-6.316 11.092 11.092 0 0 1 6.316 14.359 11.092 11.092 0 0 1-14.359 6.316A11.093 11.093 0 0 1 297-338.614zm-1.307-.508a12.494 12.494 0 0 0 7.114 16.174 12.494 12.494 0 0 0 16.174-7.114 12.494 12.494 0 0 0-7.114-16.174 12.494 12.494 0 0 0-16.174 7.114" class="cls-20" transform="translate(-230.823 380.519)"/>
                    <path id="path6776" d="M293.882-219.646l4.273-12.767a.6.6 0 0 1 .766-.368l1.536.6a.6.6 0 0 1 .315.789l-3.428 8.8c-.511-.8-2.383 3.192-3.462 2.949" class="cls-20" transform="translate(-230.114 296.221)"/>
                    <path id="path6778" d="M288.373-218.379l5.718-14.026a.606.606 0 0 1 .7-.386c-.04.28-3.65 10.9-5.154 15.521-.322-.182-.861-1.017-1.265-1.108" class="cls-6" transform="translate(-226.049 296.213)"/>
                    <path id="path6780" d="M325.532-325.247a1.611 1.611 0 0 1-2.085.918 1.611 1.611 0 0 1-.918-2.085 1.611 1.611 0 0 1 2.085-.918 1.611 1.611 0 0 1 .918 2.085" class="cls-4" transform="translate(-251.165 366.025)"/>
                    <path id="path6782" d="M318.069-314.791a.767.767 0 0 1-.993.437.767.767 0 0 1-.437-.993.767.767 0 0 1 .993-.437.767.767 0 0 1 .437.993" class="cls-4" transform="translate(-246.863 357.463)"/>
                    <path id="path6784" d="M283.325-185.656c-.007-.04-.016-.074-.024-.111 1.342-1.731 2.482-2.951 2.482-2.951l-1.141-1.3-2.594 2.463h-.761a1.525 1.525 0 0 0-1.926.248 2.7 2.7 0 0 0-.327 2.225 8.3 8.3 0 0 1 .131 4.088l3.5 1.3.134-3.955v-.006a1.818 1.818 0 0 1 .284-.892 1.593 1.593 0 0 0 .243-1.117" class="cls-4" transform="translate(-219.095 264.644)"/>
                    <path id="path6786" d="M303.386-207.383l-2.1 5.5-1.326-.987 2.963-4.995.467.484" class="cls-18" transform="translate(-234.595 277.814)"/>
                    <path id="path6788" d="M311.242-213.542a.857.857 0 0 0-.19.581l-.093.793.108.123.372.33c-.013-.164-.032 0-.032 0l.6-1.041s.724-.464-.189-1.149a.263.263 0 0 0-.3-.019.672.672 0 0 0-.275.382" class="cls-18" transform="translate(-242.712 282.31)"/>
                    <path id="path6790" d="M279.991-155.912a25.969 25.969 0 0 1 .466 3.78c0 .775-.19 5.655-.19 5.655s-3.323.24-3.969.24c-.16-4-1.072-4.122-1.072-5.987a5.316 5.316 0 0 1 .735-2.31 3.376 3.376 0 0 0 .461-1.3l.022-.076 3.548-.006" class="cls-22" transform="translate(-216.351 239.485)"/>
                    <path id="path6792" d="M284.337-196.918l-2.223.778.219 1.66.014.069c.043.008.086.015.128.026l.021.006h.02a1.521 1.521 0 0 1 1.039 1.04 2.626 2.626 0 0 0 .962-.013.962.962 0 0 0 .505-.218c.469-1.023-.685-3.353-.685-3.353" class="cls-18" transform="translate(-221.432 269.736)"/>
                    <path id="path6794" d="M276.982-197.051c-.6.293-.457 3.377-.561 5.478a2.387 2.387 0 0 1-2.021 2.233 3.683 3.683 0 0 1-2.187-.149 8.587 8.587 0 0 0 1.618-6.679 3.054 3.054 0 0 1 .719-2.54c.9-.8 2.748.246 2.748.246s.506 1.01-.316 1.412" class="cls-20" transform="translate(-214.128 271.281)"/>
                </g>
            </g>
        </g>
    </g>
</svg>
