<svg xmlns="http://www.w3.org/2000/svg" xmlns:xlink="http://www.w3.org/1999/xlink" width="152" height="152" viewBox="0 0 152 152">
    <defs>
        <linearGradient id="gfqdbgn15c" x1="-150.7%" x2="-150.6%" y1="393.6%" y2="393.6%">
            <stop offset="0%" stop-color="#B5E6EA"/>
            <stop offset="100%" stop-color="#D8F1E3"/>
        </linearGradient>
        <linearGradient id="t1dz2c0drf" x1="-2982.8%" x2="-2982.1%" y1="6417.8%" y2="6417.8%">
            <stop offset="0%" stop-color="#B5E6EA"/>
            <stop offset="100%" stop-color="#D8F1E3"/>
        </linearGradient>
        <linearGradient id="p3v2b9swzi" x1="-614.5%" x2="-614.2%" y1="2117.7%" y2="2117.7%">
            <stop offset="0%" stop-color="#D8F1E3"/>
            <stop offset="100%" stop-color="#B5E6EA"/>
        </linearGradient>
        <linearGradient id="7zmalf21nl" x1="-835.5%" x2="-835.3%" y1="490.6%" y2="490.6%">
            <stop offset="0%" stop-color="#B5E6EA"/>
            <stop offset="100%" stop-color="#D8F1E3"/>
        </linearGradient>
        <linearGradient id="e48cciqxeo" x1="-641.6%" x2="-641.4%" y1="846.9%" y2="846.9%">
            <stop offset="0%" stop-color="#D8F1E3"/>
            <stop offset="100%" stop-color="#B5E6EA"/>
        </linearGradient>
        <linearGradient id="9boyroy5gr" x1="-8795.8%" x2="-8793.9%" y1="18175.7%" y2="18175.7%">
            <stop offset="0%" stop-color="#B5E6EA"/>
            <stop offset="100%" stop-color="#D8F1E3"/>
        </linearGradient>
        <path id="ogv7seakfa" d="M.047.091L.001.365l17.533 16.2-12.848 1.951c.115.14.232.28.35.417l12.936-1.964 6.848 6.329-.087-.714L11.4 10.262l-.441-9.87c-.157-.059-.314-.116-.473-.172l.428 9.593L.293 0C.211.03.13.058.049.091H.047z"/>
        <path id="f6otq5d6hd" d="M0 1L0 1.748 3.349 1.748 3.349 1z"/>
        <path id="3tv80zws9g" d="M10.265 3.426L0.141 3.426 0 0 10.402 0z"/>
        <path id="wjeys491qj" d="M9.561 17.694L0 17.694 0 0 10.406 0z"/>
        <path id="glgo6v2yrm" d="M10.531 0L0 0 3.116 6.356 13.568 6.356z"/>
        <path id="2b3s3vd6xp" d="M1.32 1L1.151 1.408 0.209 1.413 0.001 1.007z"/>
    </defs>
    <g fill="none" fill-rule="evenodd">
        <g>
            <g>
                <path fill-rule="nonzero" d="M0 0L150 0 150 150 0 150z" transform="translate(1 1)"/>
                <path stroke="#DDD" stroke-width=".3" d="M0.15 0.15L149.85 0.15 149.85 149.85 0.15 149.85z" transform="translate(1 1)"/>
            </g>
            <path fill="#9BFFF3" fill-rule="nonzero" style="mix-blend-mode:soft-light" d="M74.597 52.845L111.86 26.764 111.86 82.764 32.86 82.764z" transform="translate(1 1)"/>
            <g>
                <path fill="#3E88BE" fill-rule="nonzero" d="M83.764 28.969c-4.248 0-7.692-3.445-7.693-7.693 0-4.249 3.444-7.693 7.693-7.693 2.04 0 3.997.81 5.44 2.253 1.443 1.443 2.254 3.4 2.254 5.44 0 4.249-3.445 7.693-7.694 7.693zm20.6-11.34c-.281-.364-2-.74-3.97-.775-.43-1.619-1.094-3.166-1.973-4.591 1.263-1.168 2.473-2.532 2.335-3.372-.281-1.705-3.977-4.61-4.7-4.7-.465-.06-1.994.929-3.432 2.335-1.42-.856-2.959-1.5-4.565-1.913.069-1.723-.039-3.551-.733-4.049-1.4-1.007-6.072-.448-6.651 0-.363.28-.737 1.992-.774 3.951-1.656.38-3.246 1.005-4.718 1.855-1.139-1.212-2.435-2.332-3.245-2.2-1.705.281-4.61 3.977-4.7 4.7-.056.432.8 1.785 2.045 3.129-.961 1.497-1.683 3.134-2.14 4.853-1.557-.026-3.084.123-3.532.748-1.007 1.4-.448 6.072 0 6.651.252.326 1.661.662 3.366.753.399 1.807 1.089 3.537 2.042 5.123-1.047 1.036-1.919 2.141-1.8 2.861.281 1.705 3.977 4.61 4.7 4.7 1.08-.335 2.054-.946 2.826-1.771 1.59.982 3.332 1.696 5.154 2.114-.006 1.468.159 2.859.75 3.283 1.4 1.007 6.072.448 6.651 0 .327-.252.663-1.668.754-3.379 1.766-.454 3.447-1.188 4.981-2.173 1.076 1.11 2.25 2.069 3 1.945 1.705-.281 4.61-3.977 4.7-4.7.056-.434-.8-1.8-2.064-3.149.87-1.508 1.505-3.14 1.883-4.839 1.649.049 3.334-.08 3.808-.742 1.007-1.4.448-6.072 0-6.651" transform="translate(1 1) translate(13.5 22.501)"/>
                <path fill="#FFF" fill-rule="nonzero" d="M83.825 10.315c-5.958.007-10.786 4.835-10.793 10.793.007 5.958 4.835 10.786 10.793 10.793 5.958-.007 10.786-4.835 10.793-10.793-.007-5.958-4.835-10.786-10.793-10.793zm0 21.742c-6.045-.006-10.943-4.904-10.95-10.949.007-6.044 4.905-10.942 10.949-10.949 6.045.006 10.944 4.904 10.951 10.949-.007 6.043-4.905 10.94-10.948 10.948" transform="translate(1 1) translate(13.5 22.501)"/>
                <path fill="#FFF" fill-rule="nonzero" d="M99.362 17.941c-.072-.008-.144-.018-.216-.029.249 1.116.374 2.256.375 3.4-.008 8.667-7.033 15.692-15.7 15.7-5.475-.003-10.552-2.857-13.4-7.533-.07.015-.141.028-.213.039 2.876 4.775 8.042 7.696 13.616 7.7 8.777-.01 15.89-7.123 15.9-15.9 0-1.133-.122-2.263-.363-3.371M74.227 8.903c2.745-2.135 6.123-3.292 9.6-3.289.071 0 .141 0 .211.005-.025-.068-.047-.137-.068-.206h-.143c-3.507-.003-6.915 1.16-9.689 3.306.032.061.063.124.092.187" transform="translate(1 1) translate(13.5 22.501)"/>
                <path fill="#53A4DD" fill-rule="nonzero" d="M101.773 55.279c-2.846 0-5.153-2.307-5.153-5.153 0-2.846 2.307-5.153 5.153-5.153 2.846 0 5.153 2.307 5.153 5.153 0 2.846-2.307 5.153-5.153 5.153zm13.8-7.6c-.826-.402-1.743-.581-2.659-.519-.288-1.084-.733-2.12-1.322-3.075.846-.782 1.657-1.7 1.564-2.259-.189-1.142-2.664-3.087-3.15-3.15-.89.311-1.683.85-2.3 1.564-.951-.573-1.981-1.005-3.057-1.281.046-1.154-.026-2.379-.491-2.712-.941-.674-4.067-.3-4.455 0-.4.822-.58 1.734-.519 2.646-1.11.255-2.174.674-3.16 1.243-.763-.812-1.631-1.562-2.174-1.473-1.142.188-3.088 2.664-3.15 3.15.266.807.738 1.531 1.37 2.1-.644 1.002-1.128 2.099-1.434 3.25-1.043-.018-2.066.082-2.366.5-.675.941-.3 4.067 0 4.455.696.36 1.473.532 2.255.5.267 1.21.729 2.37 1.367 3.432-.7.694-1.285 1.434-1.206 1.916.188 1.142 2.664 3.088 3.15 3.15.723-.225 1.375-.633 1.893-1.186 1.065.658 2.232 1.136 3.452 1.416 0 .983.106 1.915.5 2.2.941.674 4.067.3 4.455 0 .36-.698.532-1.478.5-2.263 1.182-.305 2.309-.796 3.336-1.456.721.743 1.507 1.386 2.011 1.3 1.142-.188 3.088-2.664 3.15-3.15-.27-.811-.746-1.538-1.383-2.109.583-1.01 1.009-2.103 1.262-3.241 1.1.033 2.233-.053 2.55-.5.674-.941.3-4.067 0-4.455" transform="translate(1 1) translate(13.5 22.501)"/>
                <path fill="#FFF" fill-rule="nonzero" d="M101.813 42.776c-3.99.005-7.224 3.239-7.229 7.229.005 3.99 3.239 7.224 7.229 7.229 3.99-.005 7.224-3.239 7.229-7.229-.005-3.99-3.239-7.224-7.229-7.229zm0 14.563c-4.048-.004-7.329-3.285-7.334-7.333.005-4.048 3.286-7.329 7.334-7.333 4.048.005 7.328 3.285 7.333 7.333-.005 4.048-3.285 7.328-7.333 7.333" transform="translate(1 1) translate(13.5 22.501)"/>
                <path fill="#FFF" fill-rule="nonzero" d="M112.221 47.888c-.049-.006-.1-.012-.145-.02.167.748.25 1.512.251 2.278-.007 5.804-4.71 10.507-10.514 10.514-3.667-.002-7.069-1.914-8.977-5.046-.047.01-.095.019-.142.026 1.927 3.198 5.387 5.154 9.121 5.156 5.88-.007 10.643-4.772 10.65-10.651 0-.76-.082-1.516-.243-2.258M95.385 41.835c1.838-1.428 4.1-2.202 6.428-2.2h.141c-.017-.045-.031-.092-.046-.138h-.1c-2.349-.002-4.632.777-6.49 2.214.021.041.042.083.061.125" transform="translate(1 1) translate(13.5 22.501)"/>
                <path fill="#FCCD37" fill-rule="nonzero" d="M57.031 33.409s10.976-18.113 1.691-30.544c-25.709 7.2-18.559 32.467-18.559 32.467l16.868-1.922" transform="translate(1 1) translate(13.5 22.501)"/>
                <path fill="#FFF" fill-rule="nonzero" d="M58.722 2.862l-.266.077-7.191 23.9-8.289-13.177c-.093.147-.183.294-.271.442l8.382 13.321-2.075 6.9.5-.057 4.137-13.746 8.628-2.636c.018-.167.036-.334.052-.5l-8.518 2.6 5.08-16.882c-.057-.079-.112-.159-.171-.238" transform="translate(1 1) translate(13.5 22.501)"/>
                <path fill="#3682F6" fill-rule="nonzero" d="M53.034 32.065S51.785 7.741 36.121 1.38c-13.724 11.448-3.282 28.7-3.282 28.7l14.9 10.914 5.295-8.924" transform="translate(1 1) translate(13.5 22.501)"/>
                <path fill="#196265" fill-rule="nonzero" d="M47.943 12.868l-6.074 7.129-5.422-18.485c-.109-.044-.216-.09-.326-.132-.054.045-.1.091-.158.136l2.9 9.9-7.884-3.679c-.037.074-.071.148-.107.222l-.092.2 8.258 3.853 4.839 16.5-14.044-6.016c.048.192.1.382.148.569l14.066 6.025 3.436 11.716.252.184.161-.43-5.874-20.028 6.149-7.218c-.076-.149-.153-.297-.232-.445" transform="translate(1 1) translate(13.5 22.501)"/>
                <path fill="#36A5F6" fill-rule="nonzero" d="M48.378 36.043s-14.566-14-25.572-9.632c-4.263 23.8 25.707 30.9 25.707 30.9l-.135-21.268" transform="translate(1 1) translate(13.5 22.501)"/>
                <g transform="translate(1 1) translate(13.5 22.501) translate(22.76 26.32)">
                    <mask id="1x028d283b" fill="#fff">
                        <use xlink:href="#ogv7seakfa"/>
                    </mask>
                    <g fill="url(#gfqdbgn15c)" fill-rule="nonzero" mask="url(#1x028d283b)">
                        <path d="M.047.091L.001.365l17.533 16.2-12.848 1.951c.115.14.232.28.35.417l12.936-1.964 6.848 6.329-.087-.714L11.4 10.262l-.441-9.87c-.157-.059-.314-.116-.473-.172l.428 9.593L.293 0C.211.03.13.058.049.091"/>
                    </g>
                </g>
                <path fill="#F84217" fill-rule="nonzero" d="M93.655 58.587s-37.236 5.884-55.805.806c-3.274-12.639 0-38.117 0-38.117h55.805v37.312" transform="translate(1 1) translate(13.5 22.501)"/>
                <path fill="#1F2C54" fill-rule="nonzero" d="M94.244 21.433h-56.7c-.548-.003-.992-.446-.995-.994.003-.548.447-.991.995-.994h56.7c.548.003.99.446.994.994-.003.548-.446.99-.994.994" transform="translate(1 1) translate(13.5 22.501)"/>
                <path fill="#FBD658" fill-rule="nonzero" d="M84.731 53.748L44.81 53.748 44.81 26.248 45.447 26.248 45.447 53.107 84.728 53.107 84.728 53.744" transform="translate(1 1) translate(13.5 22.501)"/>
                <path fill="#F8A37B" fill-rule="nonzero" d="M41.556 43.913L42.115 46.566 44.903 45.796 43.079 41.989 41.555 43.913" transform="translate(1 1) translate(13.5 22.501)"/>
                <path fill="#F8A37B" fill-rule="nonzero" d="M40.86 44.653c-.265.102-.553.124-.83.063-1.351-1.047-1.455-5-1.455-5l1.277-1.091 2.246.57.88 2.39c.233.656.12 1.385-.3 1.939-.493.533-1.12.923-1.816 1.129" transform="translate(1 1) translate(13.5 22.501)"/>
                <path fill="#1F2C54" fill-rule="nonzero" d="M42.241 40.663c-.233-.374-.479-1.331-.872-1.13-.287.146-1.309.519-1.658.631-.831.265-2.416.413-2.82-.852-.117-.616.101-1.247.574-1.659.337-.277.764-.42 1.2-.4 1.017.028 2.456.346 2.909.094.313-.223.709-.297 1.081-.202.373.094.685.347.855.692.2.92.218 1.872.055 2.8-.08.475-.243.933-.483 1.351l-.838-1.326" transform="translate(1 1) translate(13.5 22.501)"/>
                <path fill="#F8A37B" fill-rule="nonzero" d="M43.113 40.485c-.294-.082-.605.049-.752.316-.178.279-.13.59.108.694.294.082.605-.049.752-.316.178-.279.13-.59-.108-.694" transform="translate(1 1) translate(13.5 22.501)"/>
                <path fill="#338D8C" fill-rule="nonzero" d="M43.694 45.206c5.19-.29 5.63 4.326 6.065 9.343.294 4.007.332 8.029.114 12.041H37.795s0-5.349.129-10.7c.123-5.189.282-10.379 5.77-10.686" transform="translate(1 1) translate(13.5 22.501)"/>
                <path fill="#F68A76" fill-rule="nonzero" d="M38.443 63.943s-1.186-.819-1.626-.623c-.44.196-.094 1.019-.094 1.019l1.72-.4" transform="translate(1 1) translate(13.5 22.501)"/>
                <path fill="#F8A37B" fill-rule="nonzero" d="M46.939 55.201l.564 3.826-9.249 4.61 1.008 1s10.385-1.869 11.852-3.241c1.467-1.372.452-6.859.452-6.859l-4.628.662" transform="translate(1 1) translate(13.5 22.501)"/>
                <path fill="#F68A76" fill-rule="nonzero" d="M36.583 61.243c-2.118-.748-.825-8.032-.825-8.032l1.252-.012s1.691 8.792-.427 8.044" transform="translate(1 1) translate(13.5 22.501)"/>
                <path fill="#F8A37B" fill-rule="nonzero" d="M39.827 64.445l-2.178 1.4c-.877.4-1.653-.227-2.285-1.115-.182-.252-.206-.586-.061-.862s.434-.445.745-.438c.783.012 1.734.171 2.206.2l1.573.808" transform="translate(1 1) translate(13.5 22.501)"/>
                <path fill="#338D8C" fill-rule="nonzero" d="M35.425 53.213l1.479.888s6.238-10.092 3.154-7.435c-2.015 1.808-3.598 4.045-4.633 6.547" transform="translate(1 1) translate(13.5 22.501)"/>
                <path fill="#1F2C54" fill-rule="nonzero" d="M42.763 100.421s-.006 1.446-2.911 2.314c-.6.178-.4.354-.514.6h3.343l1.309-1.471.407.35.944-.927s-.441-1.342-1.159-1.354l-1.418.483" transform="translate(1 1) translate(13.5 22.501)"/>
                <path fill="#F8A37B" fill-rule="nonzero" d="M42.221 99.169l.543 1.252c.494.141 1.026-.02 1.358-.413l.06-.07-.439-1.288-1.522.519" transform="translate(1 1) translate(13.5 22.501)"/>
                <path fill="#338D8C" fill-rule="nonzero" d="M51.567 54.539s-1.981-9.215-6.663-9c-4.682.215 2.035 9.659 2.035 9.659l4.628-.662" transform="translate(1 1) translate(13.5 22.501)"/>
                <path fill="#F8A37B" fill-rule="nonzero" d="M36.61 61.398c-2.935-2.371 2.831-14.758 2.831-14.758l1.4.14s-.107 16.426-4.227 14.618" transform="translate(1 1) translate(13.5 22.501)"/>
                <path fill="#196265" fill-rule="nonzero" d="M41.556 45.662L41.733 44.754 44.133 44.277 44.905 45.236 41.558 45.662" transform="translate(1 1) translate(13.5 22.501)"/>
                <path fill="#F8A37B" fill-rule="nonzero" d="M39.44 46.639l-.178-2.362s1.178-1.808 2.293-1.322c.084.502.032 1.018-.151 1.493l-.567 2.331-1.4-.14" transform="translate(1 1) translate(13.5 22.501)"/>
                <path fill="#1F2C54" fill-rule="nonzero" d="M37.796 66.59s-1.683 10.554-1.287 15.436c.396 4.882 5.746 17.637 5.746 17.637l2.329-.677s.177-8.533-2.11-14.134c-.49-1.235-.49-2.61 0-3.845 1.047-2.64 1.919-5.346 2.61-8.1l-.178-6.321h-7.11" transform="translate(1 1) translate(13.5 22.501)"/>
                <path fill="#F68A76" fill-rule="nonzero" d="M39.588 46.54h-.041l-.168-2.228c.157-.228 1.16-1.615 2.089-1.267.058.467-.002.942-.173 1.38l-.007.027c.082-.02.165-.035.249-.041.184-.478.227-.998.124-1.5l-.018-.042-.042-.018c-1.187-.514-2.383 1.287-2.433 1.364l-.021.032.188 2.494.138.014c.032-.075.07-.146.114-.215" transform="translate(1 1) translate(13.5 22.501)"/>
                <path fill="#1F2C54" fill-rule="nonzero" d="M47.298 101.185c-1.005.778-2.174 1.316-3.419 1.573-.523.133-1.087-.045-1.087.818h2.884l2.4-.415v.415h1.3s.361-2.119-.4-2.391H47.3" transform="translate(1 1) translate(13.5 22.501)"/>
                <path fill="#F8A37B" fill-rule="nonzero" d="M47.553 99.663l-.255 1.522c.473.328 1.093.348 1.587.053l.089-.053-.129-1.522h-1.292" transform="translate(1 1) translate(13.5 22.501)"/>
                <path fill="#183C5E" fill-rule="nonzero" d="M41.351 66.59l5.6 33.525h2.242s1.931-9.031.439-16.324c-.259-1.266-.292-2.567-.1-3.845 1.42-9.417.337-13.355.337-13.355h-8.523" transform="translate(1 1) translate(13.5 22.501)"/>
                <path fill="#196265" fill-rule="nonzero" d="M75.87 103.456L77.97 83.091 77.233 82.926 75.112 103.456 75.867 103.456" transform="translate(1 1) translate(13.5 22.501)"/>
                <path fill="#65CBC2" fill-rule="nonzero" d="M90.975 80.859s6.305-14.458 1.94-18.642c-2.592-2.484-7.416-2.123-10.909-1.42-2.414.481-4.153 2.599-4.156 5.06v14.822l13.125.18" transform="translate(1 1) translate(13.5 22.501)"/>
                <path fill="#196265" fill-rule="nonzero" d="M77.372 62.486c.951-1.262 2.284-2.185 3.8-2.632 1.302-.36 2.649-.535 4-.521.133 0 .264.002.393.006 3.06.13 5.783 1.977 7.037 4.77l.831 2.306-3.65 1.18-.794-1.745.608 8.661H79.444l.1-9.97-3.532.062 1.354-2.119" transform="translate(1 1) translate(13.5 22.501)"/>
                <path fill="#F8A37B" fill-rule="nonzero" d="M93.298 66.461s1.537 3 .789 4.064c-.748 1.064-10.707-1.184-10.707-1.184v-1.309l7.53.5-.939-.994 3.328-1.076M75.113 67.537s-2.427 1.575-2.429 2.767c-.002 1.192 4.445.289 4.445.289l-2.016-3.056" transform="translate(1 1) translate(13.5 22.501)"/>
                <path fill="#F68A76" fill-rule="nonzero" d="M83.435 58.388l-.185 1.392s-.079.722 1.212.722c.378.02.754-.07 1.081-.262.248-.168.377-.463.334-.759l-.4-3-2.042 1.9" transform="translate(1 1) translate(13.5 22.501)"/>
                <path fill="#F8A37B" fill-rule="nonzero" d="M83.11 58.532c-.303.082-.625.066-.918-.046-1.385-1.445-1.124-6.167-1.124-6.167l3.922-.1.741 2.975c.198.794.006 1.635-.517 2.265-.58.556-1.31.93-2.1 1.078" transform="translate(1 1) translate(13.5 22.501)"/>
                <path fill="#1F2C54" fill-rule="nonzero" d="M80.061 51.595c.411-.5 1.092-.685 1.7-.464.285.167 1.269-1.457 3.219-1.336 1.341.083 3.131 2.161.932 6.283-.145-.46-1.143-3-1.819-2.526-.553.472-1.225.781-1.943.894-.858.088-1.706-.248-2.271-.9-.243-.278-.362-.644-.328-1.011.034-.368.217-.706.507-.935" transform="translate(1 1) translate(13.5 22.501)"/>
                <path fill="#F8A37B" fill-rule="nonzero" d="M85.712 53.957c-.312-.142-.68-.028-.857.266-.11.117-.166.273-.156.433.01.16.085.308.208.41.312.142.68.028.857-.266.11-.117.165-.273.156-.433-.01-.16-.085-.308-.208-.41" transform="translate(1 1) translate(13.5 22.501)"/>
                <path fill="#1F2C54" fill-rule="nonzero" d="M85.309 49.297s.443-.862 1.964-.533c2.739.745 2.4 4.028 2.114 5.705-.151.89.08 1.801.637 2.511 1.355 1.727 3.376 5.051.692 6.949-.502.372-1.143.503-1.751.357-.501-.132-.927-.462-1.18-.914-.298-.527-.368-1.152-.194-1.732.172-.433.198-.91.075-1.358-.292-.522-1.969-1.541-2.078-3.12-.109-1.579.893-2.187 1.138-3.852.432-2.931-.206-3.3-.206-3.3l-1.21-.712" transform="translate(1 1) translate(13.5 22.501)"/>
                <path fill="#FCCD37" fill-rule="nonzero" d="M86.283 50.502L84.983 49.795 85.308 49.295 86.518 50.007 86.282 50.499" transform="translate(1 1) translate(13.5 22.501)"/>
                <path fill="#196265" fill-rule="nonzero" d="M92.41 104.03L93.148 103.865 90.985 82.927 90.247 83.092 92.41 104.03" transform="translate(1 1) translate(13.5 22.501)"/>
                <path fill="#FCCD37" fill-rule="nonzero" d="M91.113 83.237H77.237c-.054-.846.438-1.632 1.222-1.953 2.527-.77 7.647-2.371 11.258-1.85.638.183 1.175.614 1.491 1.197.316.583.385 1.269.19 1.903-.051.249-.148.486-.284.7" transform="translate(1 1) translate(13.5 22.501)"/>
                <path fill="#338D8C" fill-rule="nonzero" d="M64.932 102.306l-3.34-2.434c-.46-.357-1.104-.357-1.564 0-.199.199-.38.415-.542.645-.016.271 4.57 3.281 4.57 3.281l.035-.007c.588-.244.935-.856.841-1.486" transform="translate(1 1) translate(13.5 22.501)"/>
                <path fill="#65CBC2" fill-rule="nonzero" d="M59.486 100.519L64.056 103.8 63.845 104.008 59.326 100.726 59.486 100.519" transform="translate(1 1) translate(13.5 22.501)"/>
                <path fill="#FFF" fill-rule="nonzero" d="M63.612 101.34L63.312 101.124 63.012 101.739 63.304 101.951 63.619 101.34M62.967 100.87L62.667 100.654 62.367 101.269 62.659 101.481 62.974 100.87" transform="translate(1 1) translate(13.5 22.501)"/>
                <path fill="#F8A37B" fill-rule="nonzero" d="M66.27 100.752l-1.337 1.554c-.4-.014-.757-.256-.917-.623l-.029-.067.331-.979 1.953.115" transform="translate(1 1) translate(13.5 22.501)"/>
                <path fill="#1F2C54" fill-rule="nonzero" d="M84.122 80.783s-3.976 5.818-9.887 8.477c-1.547 3.614-8.433 12.144-8.433 12.144l-1.454-.789L76.848 79l7.27 1.784" transform="translate(1 1) translate(13.5 22.501)"/>
                <path fill="#338D8C" fill-rule="nonzero" d="M78.489 102.058l-4.133-.006c-.548.076-1.162.285-1.264.92-.044.278-.064.56-.06.841.146.229 5.626-.031 5.626-.031l.024-.026c.334-.544.254-1.245-.193-1.7" transform="translate(1 1) translate(13.5 22.501)"/>
                <path fill="#65CBC2" fill-rule="nonzero" d="M73.033 103.812L78.659 103.781 78.61 104.073 73.025 104.073 73.033 103.811" transform="translate(1 1) translate(13.5 22.501)"/>
                <path fill="#FFF" fill-rule="nonzero" d="M76.854 102.049L76.482 102.049 76.598 102.725 76.959 102.725 76.859 102.046M76.056 102.049L75.684 102.049 75.8 102.725 76.161 102.725 76.061 102.046" transform="translate(1 1) translate(13.5 22.501)"/>
                <path fill="#F8A37B" fill-rule="nonzero" d="M78.659 100.015l-.169 2.043c-.332.224-.763.238-1.108.035l-.063-.037-.36-1.836 1.7-.205" transform="translate(1 1) translate(13.5 22.501)"/>
                <path fill="#183C5E" fill-rule="nonzero" d="M89.601 74.512v1.727c.006 2.72-1.938 5.054-4.615 5.538-3.095.54-6.278.241-9.218-.867 3.419 5.9 2.991 19.7 2.991 19.7h-1.63l-7.27-22.1c-.362-.938-.237-1.994.335-2.82.572-.828 1.516-1.318 2.521-1.31l16.887.131" transform="translate(1 1) translate(13.5 22.501)"/>
                <g transform="translate(1 1) translate(13.5 22.501) translate(85.254 69.026)">
                    <mask id="bflgaw7bje" fill="#fff">
                        <use xlink:href="#f6otq5d6hd"/>
                    </mask>
                    <g fill="url(#t1dz2c0drf)" fill-rule="nonzero" mask="url(#bflgaw7bje)">
                        <path d="M0 1L0 1.748 3.349 1.748 3.349 1 0 1"/>
                    </g>
                </g>
                <g transform="translate(1 1) translate(13.5 22.501) translate(49.306 45.479)">
                    <mask id="5kepbyss3h" fill="#fff">
                        <use xlink:href="#3tv80zws9g"/>
                    </mask>
                    <g fill="url(#p3v2b9swzi)" fill-rule="nonzero" mask="url(#5kepbyss3h)">
                        <path d="M10.265 3.426L0.141 3.426 0 0 10.402 0 10.261 3.426"/>
                    </g>
                </g>
                <path fill="#FFF" fill-rule="nonzero" d="M70.864 48.905L61.024 48.905 60.954 35.505 71.36 35.505 70.867 48.905" transform="translate(1 1) translate(13.5 22.501)"/>
                <g transform="translate(1 1) translate(13.5 22.501) translate(72.309 31.211)">
                    <mask id="09zt2pf3uk" fill="#fff">
                        <use xlink:href="#wjeys491qj"/>
                    </mask>
                    <g fill="url(#7zmalf21nl)" fill-rule="nonzero" mask="url(#09zt2pf3uk)">
                        <path d="M9.561 17.694L0 17.694 0 0 10.406 0 9.562 17.694"/>
                    </g>
                </g>
                <path fill="#F6841C" fill-rule="nonzero" d="M82.277 27.818L71.714 40.357 67.754 37.847 57.824 48.894 60.251 48.894 68.123 39.922 72.074 42.463 83.542 28.884 82.276 27.818" transform="translate(1 1) translate(13.5 22.501)"/>
                <path fill="#F6841C" fill-rule="nonzero" d="M79.982 28.333L83.851 30.788 84.761 25.25z" transform="translate(1 1) translate(13.5 22.501)"/>
                <path fill="#FCCD37" fill-rule="nonzero" d="M81.98 27.675L71.491 40.13 67.524 37.63 57.399 48.896 59.829 48.896 67.829 39.781 71.829 42.3 83.247 28.743 81.981 27.677" transform="translate(1 1) translate(13.5 22.501)"/>
                <path fill="#FCCD37" fill-rule="nonzero" d="M79.685 28.19L83.554 30.645 84.464 25.107z" transform="translate(1 1) translate(13.5 22.501)"/>
                <path fill="#F6841C" fill-rule="nonzero" d="M84.464 25.108L84.764 25.251 84.685 25.731 84.37 25.695 84.47 25.108" transform="translate(1 1) translate(13.5 22.501)"/>
                <path fill="#183C5E" fill-rule="nonzero" d="M41.822 58.029L42.569 58.807 41.769 63.39 41.011 63.826 41.819 58.026" transform="translate(1 1) translate(13.5 22.501)"/>
                <path fill="#F68A76" fill-rule="nonzero" d="M9.739 63.852s3.5 6.96 5.639 7.358c2.139.398 11.861-3.121 11.861-3.121v-1.388l-9.725.233-2.307-4.773-5.469 1.691" transform="translate(1 1) translate(13.5 22.501)"/>
                <path fill="#1F2C54" fill-rule="nonzero" d="M13.529 55.376c-11.52.583-10.213 20.172-10.213 20.172h12.35s2.153-7.159-2.137-20.172M13.867 101.569s.007 1.552 3.124 2.483c.639.191.431.38.552.649h-3.587l-1.4-1.579-.437.375-1.013-1s.473-1.44 1.244-1.452l1.522.519" transform="translate(1 1) translate(13.5 22.501)"/>
                <path fill="#F8A37B" fill-rule="nonzero" d="M14.692 99.67l-.824 1.9c-.53.151-1.1-.022-1.457-.443l-.065-.076.471-1.382h1.875" transform="translate(1 1) translate(13.5 22.501)"/>
                <path fill="#F68A76" fill-rule="nonzero" d="M11.396 52.233l-.391 3.627c.346.592.944.993 1.623 1.087 1.108.12 1.194-.679 1.194-.679l.255-2.363-1.593-.6-1.087-1.069" transform="translate(1 1) translate(13.5 22.501)"/>
                <path fill="#F8A37B" fill-rule="nonzero" d="M14.142 54.622c.288.049.584.005.845-.125 1.153-1.461.488-5.807.488-5.807l-3.638.255-.419 2.819c-.112.752.141 1.513.681 2.049.587.463 1.297.744 2.042.809" transform="translate(1 1) translate(13.5 22.501)"/>
                <path fill="#1F2C54" fill-rule="nonzero" d="M13.509 49.199c.791.217 1.612.305 2.431.262 1.27-.087.621-1.547.621-1.547-.854.197-1.745.162-2.581-.1-1.089-.283-1.363-.529-2.113-.228-1.019.41-.974 2.177-.974 2.177l.134 3.743.2.26s.281-2.425.361-3.171c.245-.317.471-.293.636-.189.176.12.269.328.241.538l-.413 3.826s2.324 1.313 2.964 1.19c.64-.123.532-3 .532-3-.427-.22-.946-.152-1.3.173-.615.556-1.212-.156-1.212-.156l.471-3.779" transform="translate(1 1) translate(13.5 22.501)"/>
                <path fill="#F8A37B" fill-rule="nonzero" d="M11.929 50.28c.314.052.54.33.524.649.013.351-.2.631-.476.624-.314-.052-.54-.33-.524-.649-.013-.352.2-.631.476-.624" transform="translate(1 1) translate(13.5 22.501)"/>
                <path fill="#1F2C54" fill-rule="nonzero" d="M15.667 75.548s5.744 3.223 8.627 7.119c.733.985.757 2.328.058 3.338l-9.663 13.937h-2.158s2.85-10.341 6.3-16.44c.331-2.254-3.162-7.955-3.162-7.955" transform="translate(1 1) translate(13.5 22.501)"/>
                <path fill="#F68A76" fill-rule="nonzero" d="M27.24 66.702l1.739.279 1.632 1.768s-.8.385-1.989-.85c-2.356-.167-1.716-.59-1.716-.59l.334-.607" transform="translate(1 1) translate(13.5 22.501)"/>
                <path fill="#F8A37B" fill-rule="nonzero" d="M7.89 65.903s3.5 6.96 5.639 7.358c2.139.398 11.48-4.17 11.48-4.17l.382-1.5-9.724 1.392-2.307-4.773-5.469 1.69" transform="translate(1 1) translate(13.5 22.501)"/>
                <path fill="#1F2C54" fill-rule="nonzero" d="M29.127 102.409c.964.746 2.086 1.262 3.28 1.508.5.128 1.043-.043 1.043.785h-2.767l-2.3-.4v.4h-1.241s-.346-2.032.38-2.293h1.608" transform="translate(1 1) translate(13.5 22.501)"/>
                <path fill="#F8A37B" fill-rule="nonzero" d="M28.881 100.949l.244 1.46c-.453.314-1.049.334-1.522.051l-.085-.051-.361-1.46h1.724M29.07 68.352c.013-.16-.082-.31-.232-.369l-1.456-.567c-.36-.14-.76-.143-1.121-.007l-1.439.283-.154.258-.1 1.327c.28-.115.443-.186.443-.186l.924-.118s1.985 1.342 2.628-.193c.267 1.486.686 1.3.686 1.3l-.177-1.732" transform="translate(1 1) translate(13.5 22.501)"/>
                <path fill="#183C5E" fill-rule="nonzero" d="M3.316 75.548s-1.8 7.56 14.775 10.159c1.15.185 2.08 1.039 2.36 2.17 1.422 5.614 6.654 13.657 6.654 13.657h2.142l-3.474-15.339c-.249-1.099-.826-2.096-1.654-2.859l-8.452-7.787H3.316" transform="translate(1 1) translate(13.5 22.501)"/>
                <path fill="#196265" fill-rule="nonzero" d="M13.663 105.279L10.876 84.972 10.367 85.042 13.145 105.279 13.664 105.279" transform="translate(1 1) translate(13.5 22.501)"/>
                <path fill="#65CBC2" fill-rule="nonzero" d="M14.445 85.007H2.228v-2.4c4.285-1.971 12.217 1.2 12.217 1.2v1.2" transform="translate(1 1) translate(13.5 22.501)"/>
                <path fill="#196265" fill-rule="nonzero" d="M2.228 84.75v-.514c-.068 0-1.714-.054-1.714-2.742 0-2.915 1.821-7.33 1.84-7.374l-.475-.2C1.802 74.105 0 78.475 0 81.491c0 3.219 2.206 3.257 2.228 3.257" transform="translate(1 1) translate(13.5 22.501)"/>
                <path fill="#FCCD37" fill-rule="nonzero" d="M5.057 74.722c-3-.7-3.374-.307-3.374-.307s.923-3.548.042-5.667c3.679-2.124 4.36.4 4.36.4s.636 2.146-1.028 5.571" transform="translate(1 1) translate(13.5 22.501)"/>
                <path fill="#196265" fill-rule="nonzero" d="M1.026 105.279L3.805 85.042 3.296 84.972 0.505 105.279 1.024 105.279" transform="translate(1 1) translate(13.5 22.501)"/>
                <path fill="#65CBC2" fill-rule="nonzero" d="M107.582 71.518H23.054c0-.533.692-.966 1.545-.966h81.437c.853 0 1.545.433 1.545.966" transform="translate(1 1) translate(13.5 22.501)"/>
                <path fill="#196265" fill-rule="nonzero" d="M23.549 105.278L22.956 105.178 25.674 71.487 26.266 71.587 23.548 105.279M107.288 105.278L107.88 105.178 105.162 71.487 104.569 71.587 107.287 105.279" transform="translate(1 1) translate(13.5 22.501)"/>
                <path fill="#183C5E" fill-rule="nonzero" d="M31.821 70.091L26.267 70.091 26.267 70.553 31.821 70.553 31.821 70.091M37.781 70.454h-3.939v-.6h3.939c1.068-.003 1.972-.791 2.121-1.849L42.596 51.4l.589.1-2.694 16.6c-.193 1.35-1.347 2.353-2.71 2.357" transform="translate(1 1) translate(13.5 22.501)"/>
                <path fill="#88D6BF" fill-rule="nonzero" d="M42.596 51.402L42.196 51.713 39.66 66.913 40.016 67.313 42.597 51.405" transform="translate(1 1) translate(13.5 22.501)"/>
                <path fill="#FFF" fill-rule="nonzero" d="M53.443 67.309c0 .233.188.421.421.421.233 0 .421-.188.421-.421 0-.233-.188-.421-.421-.421-.233 0-.421.188-.421.421" transform="translate(1 1) translate(13.5 22.501)"/>
                <path fill="#F68A76" fill-rule="nonzero" d="M104.511 51.24c-1.178 3.919-1.01 17.914-1.01 17.914h-1.848c-.306 0-.608.073-.88.214l-2.3 1.187h4.5c.891 0 1.657-.633 1.825-1.508l2.6-13.531s-1.708-8.195-2.886-4.275" transform="translate(1 1) translate(13.5 22.501)"/>
                <path fill="#F68A76" fill-rule="nonzero" d="M103.188 50.76L104.123 53.283 106.748 52.122 104.405 48.649 103.188 50.76" transform="translate(1 1) translate(13.5 22.501)"/>
                <path fill="#F8A37B" fill-rule="nonzero" d="M102.612 51.588c-.245.138-.525.202-.806.183-1.478-.832-2.155-4.7-2.155-4.7l1.094-1.257 2.289.233 1.212 2.218c.323.61.317 1.343-.016 1.948-.406.595-.966 1.069-1.619 1.372" transform="translate(1 1) translate(13.5 22.501)"/>
                <path fill="#1F2C54" fill-rule="nonzero" d="M103.389 47.469c-.283-.333-.664-1.237-1.021-.983-.26.185-1.691.7-2.018.861-.777.381-1.872.776-2.411-.426-1.129-2.518 5.975-3.061 6.282-2.409.33.875.487 1.806.461 2.741-.009.48-.103.953-.278 1.4l-1.016-1.18" transform="translate(1 1) translate(13.5 22.501)"/>
                <path fill="#F8A37B" fill-rule="nonzero" d="M104.219 47.168c-.3-.038-.588.136-.693.42-.134.3-.042.6.206.666.3.038.588-.136.693-.42.134-.3.042-.6-.206-.666" transform="translate(1 1) translate(13.5 22.501)"/>
                <path fill="#1F2C54" fill-rule="nonzero" d="M114.158 102.257s-.007 1.56-3.14 2.5c-.643.192-.434.382-.555.653h3.606l1.412-1.587.439.377 1.018-1s-.475-1.448-1.25-1.46l-1.53.521" transform="translate(1 1) translate(13.5 22.501)"/>
                <path fill="#F8A37B" fill-rule="nonzero" d="M113.576 100.906l.586 1.351c.533.152 1.106-.022 1.465-.445l.065-.076-.474-1.389-1.642.56" transform="translate(1 1) translate(13.5 22.501)"/>
                <path fill="#FCCD37" fill-rule="nonzero" d="M106.542 50.807c6.985-.768 13.4 12.3 13.4 12.3l-8.443 5.927s-9.115-8.344-7.636-15.723c.26-1.324 1.342-2.332 2.681-2.5" transform="translate(1 1) translate(13.5 22.501)"/>
                <path fill="#1F2C54" fill-rule="nonzero" d="M119.199 103.022c-.97.75-2.099 1.27-3.3 1.516-.5.129-1.048-.043-1.048.789h2.781l2.313-.4v.4h1.249s.348-2.043-.382-2.305h-1.616" transform="translate(1 1) translate(13.5 22.501)"/>
                <path fill="#F8A37B" fill-rule="nonzero" d="M119.445 101.555l-.246 1.467c.456.316 1.055.336 1.531.051l.086-.051-.124-1.467h-1.246" transform="translate(1 1) translate(13.5 22.501)"/>
                <path fill="#1F2C54" fill-rule="nonzero" d="M111.498 69.031s-4.628 8.4-4.019 12.847c.609 4.447 6.475 19.827 6.475 19.827l1.461-.67s-.175-11.658-1.681-15.972c-.203-1.294.018-2.618.629-3.776 2.1-4.327 4.745-11.465 4.745-11.465l-4.268-3.139-3.344 2.347" transform="translate(1 1) translate(13.5 22.501)"/>
                <path fill="#F8A37B" fill-rule="nonzero" d="M104.481 55.474c-1.96 1.987-4.036 3.857-6.216 5.6-2.396 1.467-4.976 2.61-7.672 3.4-.336.098-.697.062-1.008-.1l-.941-.491c-.29-.152-.62-.211-.946-.171l-3.641.452c.706.747 1.821.935 2.733.461.466.843.47 1.362 1.266 1.61.291.088.599.11.9.066 3.625-.508 7.184-1.413 10.611-2.7 3.197-1.49 6.197-3.37 8.93-5.6l-4.013-2.517" transform="translate(1 1) translate(13.5 22.501)"/>
                <path fill="#183C5E" fill-rule="nonzero" d="M113.487 67.635l5.7 34.679h1.7s1.983-13.881.757-20.332c1.146-9.487 1.363-15.776-1.711-18.878l-6.455 4.531" transform="translate(1 1) translate(13.5 22.501)"/>
                <g transform="translate(1 1) translate(13.5 22.501) translate(72.417 64.196)">
                    <mask id="bp3qk9g2yn" fill="#fff">
                        <use xlink:href="#glgo6v2yrm"/>
                    </mask>
                    <g fill="url(#e48cciqxeo)" fill-rule="nonzero" mask="url(#bp3qk9g2yn)">
                        <path d="M10.531 0L0 0 3.116 6.356 13.568 6.356 10.531 0"/>
                    </g>
                </g>
                <path fill="#FFF" fill-rule="nonzero" d="M78.282 67.375c0 .203.164.367.367.367.203 0 .367-.164.367-.367 0-.203-.164-.367-.367-.367-.203 0-.367.164-.367.367" transform="translate(1 1) translate(13.5 22.501)"/>
                <path fill="#FCCD37" fill-rule="nonzero" d="M15.381 40.627l-3.588-.019c.154-.63.212-1.281.171-1.929-.043-.317-.227-.599-.5-.766-3.517-2.2-2.655-4.711-2.655-4.711s.383-3.189 4.9-3.473c4.819-.3 4.508 3.977 4.508 3.977.009 1.647-.87 3.17-2.3 3.988-.357.235-.591.615-.641 1.039-.084.632-.05 1.274.1 1.894" transform="translate(1 1) translate(13.5 22.501)"/>
                <path fill="#65CBC2" fill-rule="nonzero" d="M11.793 40.599l-.007 1.285c-.047.433.262.824.694.879l2.185.012c.43-.055.74-.44.7-.872l.007-1.285-3.583-.019" transform="translate(1 1) translate(13.5 22.501)"/>
                <path fill="#338D8C" fill-rule="nonzero" d="M12.707 42.77L12.951 43.359 14.31 43.366 14.61 42.781 12.71 42.771" transform="translate(1 1) translate(13.5 22.501)"/>
                <path fill="#FFF" fill-rule="nonzero" d="M12.114 34.005c.31-.159.689-.087.92.174.103.103.16.243.158.388v.783c-.453.072-.908-.119-1.174-.493-.2-.264-.158-.639.096-.852zm2.123.75c0-.123.18-1.1.784-.556.065.057.097.142.088.228-.047.345-.537.576-.883.689-.004-.12 0-.241.01-.361h.001zm-1.2.755h.147l-.028 5.091h.245l.028-5.111c.182-.02.363-.05.541-.094v.278l-.023 1.684-.045 3.246h.245l.073-5.28c.292-.082.564-.226.795-.423.837-.792-.589-1.66-.969-.549-.076.274-.104.56-.084.843-.186.052-.374.095-.564.127 0 0 .007-.47 0-.772.002-.171-.057-.337-.167-.468-.631-.7-1.975-.2-1.435.816.273.41.744.645 1.236.613" transform="translate(1 1) translate(13.5 22.501)"/>
                <path fill="#FBD658" fill-rule="nonzero" d="M18.305 28.883c-.074-.074-.074-.194 0-.268l1.822-1.8c.074-.074.194-.074.268 0 .036.035.056.084.056.134s-.02.099-.056.134l-1.822 1.8c-.074.074-.194.074-.268 0M10.309 28.835c.074-.074.074-.194 0-.268l-1.8-1.822c-.074-.074-.194-.074-.268 0-.074.074-.074.194 0 .268l1.8 1.822c.036.036.084.056.134.056.051 0 .1-.02.135-.056M13.737 28.189c-.05 0-.099-.02-.134-.056-.036-.036-.056-.085-.055-.135l.014-2.562c0-.05.02-.099.056-.134.036-.036.085-.055.135-.055s.099.02.134.056c.036.036.055.085.055.135L13.928 28c0 .05-.02.099-.056.134-.036.036-.085.056-.135.055" transform="translate(1 1) translate(13.5 22.501)"/>
                <path fill="#F89B17" fill-rule="nonzero" d="M100.921 41.402l2.488-.013c-.107-.437-.147-.889-.118-1.338.03-.22.158-.415.348-.531 2.439-1.525 1.841-3.267 1.841-3.267s-.265-2.211-3.4-2.409c-3.342-.21-3.126 2.758-3.126 2.758-.005 1.143.607 2.2 1.6 2.766.247.163.41.427.444.721.057.438.032.884-.073 1.313" transform="translate(1 1) translate(13.5 22.501)"/>
                <path fill="#65CBC2" fill-rule="nonzero" d="M103.407 41.383l.005.891c.03.3-.183.57-.482.61l-1.515.008c-.297-.037-.513-.301-.488-.6v-.891l2.485-.013" transform="translate(1 1) translate(13.5 22.501)"/>
                <g transform="translate(1 1) translate(13.5 22.501) translate(101.456 41.885)">
                    <mask id="8u8ou9uhgq" fill="#fff">
                        <use xlink:href="#2b3s3vd6xp"/>
                    </mask>
                    <g fill="url(#9boyroy5gr)" fill-rule="nonzero" mask="url(#8u8ou9uhgq)">
                        <path d="M1.32 1L1.151 1.408 0.209 1.413 0.001 1.007 1.321 1"/>
                    </g>
                </g>
                <path fill="#FBD658" fill-rule="nonzero" d="M103.255 37.4c-.184.26-.5.392-.814.342v-.543c-.001-.1.038-.198.109-.269.16-.181.423-.23.638-.121.176.148.205.408.067.591zm-1.533.179c-.24-.078-.58-.239-.613-.478-.007-.06.016-.118.061-.158.419-.379.545.3.544.385.008.083.01.167.008.251zm1.679-.152c.374-.707-.558-1.051-1-.566-.077.09-.118.206-.116.325v.535c-.132-.022-.262-.052-.391-.088.014-.197-.006-.394-.058-.584-.263-.771-1.252-.169-.672.38.16.136.348.236.551.293l.051 3.662h.17l-.031-2.251-.017-1.168v-.193c.123.03.249.052.375.065l.019 3.544h.17l-.019-3.531h.1c.341.022.668-.14.857-.425M98.891 33.252c.025-.025.039-.058.039-.093 0-.035-.014-.068-.039-.093l-1.263-1.25c-.025-.025-.058-.039-.093-.039-.035 0-.068.014-.093.039-.051.051-.051.135 0 .186l1.263 1.25c.051.051.135.051.186 0M104.439 33.225c-.025-.025-.039-.058-.039-.093 0-.035.014-.068.039-.093l1.25-1.263c.025-.025.058-.039.093-.039.035 0 .068.014.093.039.025.025.039.058.039.093 0 .035-.014.068-.039.093l-1.25 1.263c-.025.025-.058.039-.093.039-.035 0-.068-.014-.093-.039M102.061 32.776c.035 0 .068-.014.093-.039.025-.025.038-.058.038-.093l-.01-1.777c0-.073-.06-.131-.132-.131-.035 0-.069.014-.093.04-.025.024-.039.058-.038.093l.01 1.777c0 .035.014.068.039.093.025.025.058.038.093.038" transform="translate(1 1) translate(13.5 22.501)"/>
            </g>
        </g>
    </g>
</svg>
