<svg xmlns="http://www.w3.org/2000/svg" xmlns:xlink="http://www.w3.org/1999/xlink" width="150" height="150" viewBox="0 0 150 150">
    <defs>
        <linearGradient id="linear-gradient" x1="-19.408" x2="-19.407" y1="75.668" y2="75.668" gradientUnits="objectBoundingBox">
            <stop offset="0" stop-color="#f1f8f7"/>
            <stop offset="1" stop-color="#bfe3ee"/>
        </linearGradient>
        <linearGradient id="linear-gradient-2" x1="-24.065" x2="-24.064" y1="28.63" y2="28.63" xlink:href="#linear-gradient"/>
        <linearGradient id="linear-gradient-3" x1="-4.923" x2="-4.922" y1="36.102" y2="36.102" xlink:href="#linear-gradient"/>
        <linearGradient id="linear-gradient-4" x1="-3.939" x2="-3.938" y1="43.202" y2="43.202" xlink:href="#linear-gradient"/>
        <clipPath id="clip-path">
            <path id="path3480" d="M3917.981-3277.619l.569-1.746-8.12 1.039z" transform="translate(-3910.43 3279.365)"/>
        </clipPath>
        <clipPath id="clip-path-2">
            <path id="path3500" d="M3910.43-3253.592l6.548 2.063-.977 2.518z" transform="translate(-3910.43 3253.592)"/>
        </clipPath>
        <clipPath id="clip-path-3">
            <path id="path3532" d="M1236.332-3098.676l-5.295-2.922-2.7-.541-2.043.3z" transform="translate(-1226.292 3102.139)"/>
        </clipPath>
        <clipPath id="clip-path-4">
            <path id="path3560" d="M1175.414-3086.964l1.415-1.148 10.611 2.881-9.135-.272z" transform="translate(-1175.414 3088.112)"/>
        </clipPath>
        <style>
            .cls-17{fill:#fff}.cls-2{fill:#0a3c5f}.cls-3{fill:#ffbf9f}.cls-4{fill:#64c0c6}.cls-5{fill:#212b54}.cls-6{fill:#cee8e8}.cls-7{fill:#ffb08d}.cls-8{fill:#222954}.cls-9{fill:#018a89}.cls-10{fill:#135759}.cls-11{fill:#afd8c7}.cls-12{fill:#b7dddf}.cls-14{fill:#fdd247}.cls-15{fill:#fdac47}.cls-18{fill:#ef926a}.cls-19{fill:#f9a880}.cls-20{fill:#d1eaed}.cls-23{fill:#62c1c7}.cls-24{fill:#63c0c4}.cls-26{fill:#704a3a}.cls-28{fill:#825a45}.cls-29{fill:#1c2347}
        </style>
    </defs>
    <g id="Group_3379" transform="translate(-31 -707)">
        <g id="Group_3342" transform="translate(31 707)">
            <g id="Group_3339">
                <g id="Path_3375" fill="#fff" stroke="none">
                    <path d="M149.85 149.85H.15V.15h149.7v149.7z"/>
                    <path fill="#ddd" d="M.3.3v149.4h149.4V.3H.3M0 0h150v150H0V0z"/>
                </g>
                <g id="g3026" transform="translate(26.046 18.574)">
                    <g id="g3028">
                        <g id="g3034" transform="translate(18.211 5.685)">
                            <path id="path3036" d="M1320.009-3316.191l-.345-.189c-4.74-2.583-9.833 1.247-14.745 2.853-5.638 1.843-13.284 1.4-17.51-1.888-2.884-2.245-3.335-8.484-3.311-21.038.016-8.436-1.2-13.85 4.49-16.36 4.468-1.972 12.979-2.535 21.284.034 3.188.987 5.869 3.357 6.406 8.395a116.042 116.042 0 0 1 .208 20.327l3.523 7.867" class="cls-2" transform="translate(-1284 3354.506)"/>
                        </g>
                        <path id="path3038" d="M1576.622-2077.782l9.277 1.928 6.65-.03s-.059.625-1.017.718-1.636.147-1.636.147a2.011 2.011 0 0 1-2.21 1.795c-1.391-.559-1.709-.665-1.709-.665l-9.648-.465.293-3.428" class="cls-3" transform="translate(-1548.683 2134.921)"/>
                        <g id="g3040" transform="translate(17.107 43.255)">
                            <path id="path3042" d="M1173.491-2422.283l10.662 11.385 7.625 2.232-.821 4.638-9.191-.8-8.93-8.38.656-9.074" class="cls-4" transform="translate(-1172.835 2422.283)"/>
                        </g>
                        <g id="g3044" transform="translate(10.676 34.438)">
                            <path id="path3046" d="M768.986-2641.05c-.246 2.805.854 4.732.834 6.976-.035 3.982-7.095 11.762-7.494 18.644-.34 5.864 2.789 9.685 7.336 12.423s6.424-23.012 6.424-23.012l-3.069-11.312-4.031-3.718" class="cls-5" transform="translate(-762.3 2641.05)"/>
                        </g>
                        <g id="g3048" transform="translate(13.027 42.224)">
                            <path id="path3050" d="M823.117-2447.17a46.071 46.071 0 0 1 7.337-.7c3.87-.034 5.836.221 6.293 2.308s-2.115 14.765-2.1 19.3c-1.665.255-11.963-.2-11.963-.2a42.06 42.06 0 0 0-.474-7.909c-.675-4.362-3.621-10.77.91-12.793" class="cls-6" transform="translate(-820.642 2447.872)"/>
                        </g>
                        <g id="g3052" transform="translate(19.873 39.292)">
                            <path id="path3054" d="M999.476-2518.178c-.3-1.125-2.383-2.762-2.9-2.371s.132 5.763.132 5.763l-6.208 10.942 4.116-.423 3.868-9.77.6-.812a4.072 4.072 0 0 0 .389-3.329" class="cls-3" transform="translate(-990.504 2520.608)"/>
                        </g>
                        <g id="g3056" transform="translate(26.095 31.16)">
                            <path id="path3058" d="M1145.464-2722.313l-.57 1.61 1.459 3.419s.139-.07.64-.921a14.062 14.062 0 0 0 .97-2.753l-.943-1.439-1.556.084" class="cls-5" transform="translate(-1144.893 2722.397)"/>
                        </g>
                        <g id="g3060" transform="translate(19.019 42.224)">
                            <path id="path3062" d="M973.133-2447.873c-1.369.012-2.687.1-3.82.216a3.689 3.689 0 0 0 3.614 2.8 3.449 3.449 0 0 0 3.38-2.9 26.545 26.545 0 0 0-3.174-.111" class="cls-3" transform="translate(-969.314 2447.875)"/>
                        </g>
                        <g id="g3064" transform="translate(25.246 30.105)">
                            <path id="path3066" d="M1123.822-2747.521s2.284-2.2 3.933-.245c1.007 1.195-.053 3.924-1.449 5.446-.76-.358-.161-.316-.161-.316s1.759-2.576.655-4c-.561-.724-1.868-.22-1.868-.22l-1.109-.662" class="cls-2" transform="translate(-1123.822 2748.577)"/>
                        </g>
                        <g id="g3068" transform="translate(20.53 35.951)">
                            <path id="path3070" d="M1006.8-2603.433l.188.168-.054 6.173a1.777 1.777 0 0 0 1.785 1.387 2.627 2.627 0 0 0 2.208-1.376l-.2-5.145-3.235-1.292-.694.084" class="cls-7" transform="translate(-1006.799 2603.517)"/>
                        </g>
                        <g id="g3072" transform="translate(18.949 30.398)">
                            <path id="path3074" d="M969.742-2740.962c-2.553.658-2.484 4.118-1.631 5.064s3.038.966 3.038.966.47 3.961 3.873 4c.9.021 1.717-1.671 1.749-5.332.02-2.238-1.081-6.235-7.03-4.7" class="cls-3" transform="translate(-967.579 2741.304)"/>
                        </g>
                        <g id="g3076" transform="translate(12.814 42.848)">
                            <path id="path3078" d="M815.522-2427.344a53.135 53.135 0 0 0 5.269 12.38c1.342 2.079 2.8 1.328 4.156-.531a74.855 74.855 0 0 0 4.076-7.722l-3.655-2.13-1.649 2.614s-1.541-6.049-2.33-7.956a2.973 2.973 0 0 0-4.28-1.25c-1.241.75-2.161 2.25-1.588 4.6" class="cls-4" transform="translate(-815.347 2432.377)"/>
                        </g>
                        <g id="g3080" transform="translate(25.246 30.111)">
                            <path id="path3082" d="M1125.98-2748.412a4.061 4.061 0 0 0-2.154 1.049l1.109.662a2.832 2.832 0 0 1 1.031-.168l.013-1.543" class="cls-2" transform="translate(-1123.826 2748.412)"/>
                        </g>
                        <path id="path3084" d="M865.828-1890.606l4.825 24.567s-.11 16.907.525 33.652c-.76 1.538-4.035.834-4.209 0-.923-6.981-4.242-17.937-4.406-23.5s.455-6.449.455-6.449-10.52-15.739-9.859-21.531 3.119-7.11 3.119-7.11l9.55.376" class="cls-8" transform="translate(-838.793 1955.649)"/>
                        <path id="path3086" d="M769.905-1890.888s-3.317 3.586-4 7.059 2.9 16.747 3.417 21.535c-2.538 4.731-1.154 24.853-1.439 29.547 3.2.9 3.774-.074 4.526-.187a284.1 284.1 0 0 1 4.52-28.066c.865-13.03 1.708-29.984 1.708-29.984l-8.731.094" class="cls-2" transform="translate(-754.996 1955.65)"/>
                        <path id="path3088" d="M862.522-1832.376l-.135-.012c1.3-13.491 3-27.871 3.137-28.873l-.974-.384h1.357l-.524-.261v-.04c-.108-2.745-.624-6.432-1.123-10-.663-4.74-1.29-9.216-.99-11.441a17.542 17.542 0 0 1 2.793-7.4l.109.081a17.389 17.389 0 0 0-2.767 7.334c-.3 2.207.328 6.675.99 11.4.5 3.553 1.011 7.226 1.123 9.973l.97.483h-1.219l.407.161-.007.053c-.022.152-1.8 15.019-3.143 28.919" class="cls-8" transform="translate(-847.677 1955.458)"/>
                        <path id="path3090" d="M906.761-1884.618h-.136a4.833 4.833 0 0 1-.99 3.344 5.729 5.729 0 0 1-3.293 2.083l-.109.162a5.894 5.894 0 0 0 3.51-2.163 4.975 4.975 0 0 0 1.018-3.422" class="cls-8" transform="translate(-885.918 1949.546)"/>
                        <path id="path3092" d="M1124.928-1881.917l.474.019a1.689 1.689 0 0 0-.474-.019" class="cls-2" transform="translate(-1099.637 1946.959)"/>
                        <path id="path3094" d="M1120.319-1876.792a3.566 3.566 0 0 1-2.05-1.556 4.882 4.882 0 0 1-.615-2.834c-.046.006-.091.01-.137.012a5.011 5.011 0 0 0 .637 2.895 3.7 3.7 0 0 0 2.221 1.639c-.019-.052-.037-.1-.055-.156" class="cls-2" transform="translate(-1092.512 1946.245)"/>
                        <g id="g3096" transform="translate(17.356 29.276)">
                            <path id="path3098" d="M937.206-2766.995s.762 4.025-3.383 4.645c-1.176 1.072-1.974 1.114-2.448 3.646s-4.569-2.584-2.958-6.566 4.541-3.9 5.77-3.845 2.9.606 3.019 2.121" class="cls-5" transform="translate(-928.044 2769.128)"/>
                        </g>
                        <g id="g3100" transform="translate(19.03 52.46)">
                            <path id="path3102" d="M969.707-2190.024l-.119-.064 2.1-3.8.119.065-2.1 3.8" class="cls-6" transform="translate(-969.588 2193.888)"/>
                        </g>
                        <path id="path3104" d="M867.5-1916.8l-.156 1.134 12.126.282-.007-1.213-11.963-.2" class="cls-4" transform="translate(-852.431 1980.422)"/>
                        <path id="path3106" d="M802.41-453.366l5.279-.126 3.024 5.384a7.277 7.277 0 0 0 3.78.631 4.089 4.089 0 0 1 .818 2.429h-6.657a12.313 12.313 0 0 0-3.654-3.411l-.03 3.411h-2.79l.234-8.317" class="cls-9" transform="translate(-789.893 576.094)"/>
                        <path id="path3108" d="M1175.427-453.366l5.16-.126 3.033 5.384a7.278 7.278 0 0 0 3.78.631 4.092 4.092 0 0 1 .818 2.429h-6.657a12.317 12.317 0 0 0-3.657-3.411l-.03 3.411h-2.79l.343-8.317" class="cls-9" transform="translate(-1157.5 576.094)"/>
                        <path id="path3110" d="M802.209-272.613l-.032 1.154h2.79s0-.356.01-1.154h-2.767" class="cls-10" transform="translate(-789.893 402.504)"/>
                        <path id="path3112" d="M939.843-272.613a13.631 13.631 0 0 1 .929 1.154h6.657a5.89 5.89 0 0 0-.164-1.154h-7.421" class="cls-10" transform="translate(-922.012 402.504)"/>
                        <path id="path3114" d="M1175.131-272.613l-.047 1.154h2.79s0-.356.01-1.154h-2.752" class="cls-10" transform="translate(-1147.772 402.504)"/>
                        <path id="path3116" d="M1312.75-272.613a13.65 13.65 0 0 1 .929 1.154h6.657a5.887 5.887 0 0 0-.165-1.154h-7.421" class="cls-10" transform="translate(-1291.149 402.504)"/>
                        <path id="path3118" d="M1781.248-2042.542c.04 0-.266 2.951-.266 2.951l1.528.106.29-2.779-1.553-.279" class="cls-4" transform="translate(-1746.303 2101.101)"/>
                        <path id="path3120" d="M1761.076-2042.645l-.374 2.691h.257l.415-2.691h-.3" class="cls-4" transform="translate(-1726.445 2101.204)"/>
                        <g id="g3122" transform="translate(21.851 35.011)">
                            <path id="path3124" d="M1041.058-2625.575c-.006.7-.344 1.262-.755 1.262s-.74-.565-.733-1.262.344-1.261.755-1.261.739.565.733 1.261" class="cls-3" transform="translate(-1039.569 2626.836)"/>
                        </g>
                        <path id="path3126" d="M1288.644-1083.029h15.178l2.578-35.235H1284l4.646 35.235" class="cls-11" transform="translate(-1264.387 1214.073)"/>
                        <g id="g3128" transform="translate(35.58 60.478)">
                            <path id="path3130" d="M2028.085-1976.618h-25.453l-6.4-18.317h25.454l6.4 18.317" class="cls-12" transform="translate(-1996.234 1994.935)"/>
                        </g>
                        <g id="g3132" transform="translate(36.145 60.82)">
                            <path id="path3134" fill="#ebf2f2" d="M2041.789-1968.482h-24.5l-6.295-17.975h24.5l6.295 17.975" transform="translate(-2010.991 1986.457)"/>
                        </g>
                        <g id="g3136" transform="translate(51.416 74.662)">
                            <path id="path3138" d="M2402.215-1643h-1.293l.6 1.72h1.294l-.6-1.72" class="cls-14" transform="translate(-2400.922 1642.995)"/>
                        </g>
                        <g id="g3140" transform="translate(52.063 72.454)">
                            <path id="path3142" d="M2431.039-1697.774h-1.295l1.372 3.928h1.294l-1.371-3.928" class="cls-14" transform="translate(-2429.744 1697.774)"/>
                        </g>
                        <g id="g3144" transform="translate(53.562 73.155)">
                            <path id="path3146" d="M2485.089-1680.4h-1.294l1.127 3.228h1.294l-1.127-3.228" class="cls-14" transform="translate(-2483.795 1680.397)"/>
                        </g>
                        <g id="g3148" transform="translate(54.239 71.068)">
                            <path id="path3150" d="M2515.008-1732.163h-1.294l1.856 5.313h1.294l-1.855-5.313" class="cls-14" transform="translate(-2513.714 1732.163)"/>
                        </g>
                        <g id="g3152" transform="translate(55.041 69.425)">
                            <path id="path3154" d="M2548.732-1772.947h-1.293l2.43 6.958h1.294l-2.43-6.958" class="cls-14" transform="translate(-2547.439 1772.947)"/>
                        </g>
                        <g id="g3156" transform="translate(55.715 67.369)">
                            <path id="path3158" d="M2578.876-1823.943h-1.294l3.148 9.013h1.294l-3.147-9.013" class="cls-14" transform="translate(-2577.582 1823.943)"/>
                        </g>
                        <g id="g3160" transform="translate(47.17 62.314)">
                            <path id="path3162" d="M2272.893-1944.686a2.741 2.741 0 0 1-2.382-1.766 1.211 1.211 0 0 1 1.149-1.766 2.741 2.741 0 0 1 2.383 1.766 1.211 1.211 0 0 1-1.15 1.766zm-1.638-4.689c-1.614 0-2.466 1.309-1.9 2.924a4.538 4.538 0 0 0 3.944 2.923c1.614 0 2.466-1.309 1.9-2.923a4.537 4.537 0 0 0-3.944-2.924" class="cls-14" transform="translate(-2269.179 1949.375)"/>
                        </g>
                        <g id="g3164" transform="translate(52.592 62.102)">
                            <path id="path3166" d="M2459.061-1951.747a1.686 1.686 0 0 1-1.465-1.086.745.745 0 0 1 .707-1.086 1.686 1.686 0 0 1 1.466 1.086.745.745 0 0 1-.708 1.086zm-1.007-2.883a1.233 1.233 0 0 0-1.17 1.8 2.792 2.792 0 0 0 2.426 1.8 1.233 1.233 0 0 0 1.169-1.8 2.79 2.79 0 0 0-2.425-1.8" class="cls-5" transform="translate(-2456.777 1954.631)"/>
                        </g>
                        <g id="g3168" transform="translate(42.552 61.812)">
                            <path id="path3170" d="M2090.333-1959.752a3.241 3.241 0 0 0-2.816-2.088 1.431 1.431 0 0 0-1.358 2.088 3.239 3.239 0 0 0 2.816 2.087 1.432 1.432 0 0 0 1.358-2.087" class="cls-15" transform="translate(-2086.034 1961.84)"/>
                        </g>
                        <g id="g3172" transform="translate(43.762 67.025)">
                            <path id="path3174" d="M2135.48-1830.408a3.241 3.241 0 0 0-2.817-2.087 1.432 1.432 0 0 0-1.359 2.087 3.241 3.241 0 0 0 2.817 2.088 1.432 1.432 0 0 0 1.358-2.088" class="cls-9" transform="translate(-2131.18 1832.495)"/>
                        </g>
                        <g id="g3176" transform="translate(44.972 72.237)">
                            <path id="path3178" fill="#62c1c8" d="M2180.656-1701.073a3.24 3.24 0 0 0-2.816-2.087 1.431 1.431 0 0 0-1.358 2.087 3.24 3.24 0 0 0 2.816 2.087 1.432 1.432 0 0 0 1.359-2.087" transform="translate(-2176.357 1703.16)"/>
                        </g>
                        <g id="g3180" transform="translate(49.2 69.112)">
                            <path id="path3182" d="M2322.923-1780.278h-2.055l-.152-.435h2.055l.151.435" class="cls-17" transform="translate(-2320.717 1780.713)"/>
                        </g>
                        <g id="g3184" transform="translate(51.106 69.111)">
                            <path id="path3186" d="M2393.571-1780.284h-2.055l-.152-.434h2.055l.152.434" class="cls-17" transform="translate(-2391.364 1780.718)"/>
                        </g>
                        <g id="g3188" transform="translate(54.034 66.364)">
                            <path id="path3190" d="M2502.106-1848.45h-2.056l-.152-.435h2.055l.152.435" class="cls-17" transform="translate(-2499.899 1848.884)"/>
                        </g>
                        <g id="g3192" transform="translate(51.239 77.235)">
                            <path id="path3194" d="M2400.807-1578.722h-2.374l-.152-.434h2.375l.151.434" class="cls-15" transform="translate(-2398.281 1579.156)"/>
                        </g>
                        <g id="g3196" transform="translate(46.574 77.235)">
                            <path id="path3198" d="M2227.733-1578.726h-2.375l-.152-.434h2.375l.151.434" class="cls-12" transform="translate(-2225.206 1579.16)"/>
                        </g>
                        <g id="g3200" transform="translate(53.559 77.235)">
                            <path id="path3202" d="M2486.888-1578.723h-2.375l-.152-.435h2.375l.152.435" class="cls-15" transform="translate(-2484.362 1579.158)"/>
                        </g>
                        <g id="g3204" transform="translate(55.88 77.235)">
                            <path id="path3206" d="M2572.971-1578.721h-2.371l-.152-.434h2.375l.151.434" class="cls-15" transform="translate(-2570.445 1579.155)"/>
                        </g>
                        <g id="g3208" transform="translate(58.2 77.235)">
                            <path id="path3210" d="M2659.059-1578.725h-2.375l-.152-.434h2.375l.151.434" class="cls-15" transform="translate(-2656.532 1579.159)"/>
                        </g>
                        <g id="g3212" transform="translate(51.833 78.795)">
                            <path id="path3214" d="M2617.758-1539.537h-24.128v-.9h24.127v.9" class="cls-12" transform="translate(-2593.63 1540.44)"/>
                        </g>
                        <g id="g3216" transform="translate(63.619 93.975)">
                            <path id="path3218" d="M3320.852-1126.344h15.178l2.958-37.451h-22.4l4.265 37.451" class="cls-11" transform="translate(-3316.587 1163.795)"/>
                        </g>
                        <g id="g3220" transform="translate(72.581 48.771)">
                            <path id="path3222" d="M3212.666-2283.347v4.9l-4.533.757v-3.717l2.375-4 2.158 2.065" class="cls-18" transform="translate(-3208.133 2285.412)"/>
                        </g>
                        <g id="g3224" transform="translate(69.211 44.056)">
                            <path id="path3226" d="M3111.895-2397.129a26.749 26.749 0 0 1-.355 3.992c-.229.321-3.293 2.007-5.048 1.228s-1.869-8.111-1.365-9.488 5.909-.964 5.909-.964a13.491 13.491 0 0 1 .86 5.232" class="cls-19" transform="translate(-3104.865 2402.419)"/>
                        </g>
                        <g id="g3228" transform="translate(68.126 40.767)">
                            <path id="path3230" d="M3092.1-2479.211s-4.211 1.055-5.415-.206.768-3.774 2.96-4.256 6.379-.837 6.1 1.514a6.393 6.393 0 0 1-3.648 2.948" class="cls-2" transform="translate(-3086.314 2484.027)"/>
                        </g>
                        <g id="g3232" transform="translate(47.096 67.052)">
                            <path id="path3234" d="M2338.6-1830.018l-2.218-.226-2.1-1.581h-3.213s-.317.744 1.245 1.106 2.172 2.846 3.213 2.77a4.286 4.286 0 0 0 1.312-.213l9.855.887-8.089-2.743" class="cls-18" transform="translate(-2331.036 1831.825)"/>
                        </g>
                        <g id="g3236" transform="translate(72.728 42.633)">
                            <path id="path3238" d="M3235.773-2436.528c1.581 2.87-1.664 5.484-2.189 7.021a1.664 1.664 0 0 1-1.862-1.672c-1.055-.137-2.1-2.325-1.709-3.608 1.159-1.136 3.557-2.923 3.557-2.923a2.528 2.528 0 0 1 2.2 1.182" class="cls-5" transform="translate(-3229.93 2437.71)"/>
                        </g>
                        <g id="g3240" transform="translate(47.836 57.126)">
                            <path id="path3242" d="M2520.5-2076.872l-7.763 9.022a92.525 92.525 0 0 1-16 .773c.136 1.765.34 3.552.34 3.552s12.6 1.358 19.075 1.177c5.793-5.2 8.984-8.327 10.726-11.857s-4.164-5.242-6.379-2.667" class="cls-20" transform="translate(-2496.736 2078.109)"/>
                        </g>
                        <g id="g3244" transform="translate(74.953 48.315)">
                            <path id="path3246" d="M3268.649-2295.73c0 .681-.414 1.461-.662 1.461s-.674-.552-.674-1.233.3-1.234.674-1.234.662.324.662 1.005" class="cls-19" transform="translate(-3267.313 2296.735)"/>
                        </g>
                        <g id="g3248" transform="translate(64.493 55.199)">
                            <path id="path3250" d="M3047.809-2121.642c.667-2 4.218-3.21 7.976-3.784 3.586-.548 7.815-.887 9.419.424 2.325 1.9-.255 16.307-.424 24.029-3.593.136-16.875.017-17.379 0 .254-6.593-1.408-15.221.407-20.669" class="cls-12" transform="translate(-3046.948 2125.912)"/>
                        </g>
                        <g id="g3252" transform="translate(50.83 69.784)">
                            <path id="path3254" d="M2386.729-1762.875h-2.188l.323-.429 2.437-.714-.571 1.143" class="cls-18" transform="translate(-2384.54 1764.018)"/>
                        </g>
                        <g id="g3256" transform="translate(48.035 64.569)">
                            <path id="path3258" d="M2298.365-1892.482l4.765 6.274.489-.509-4.7-6.258-.911-.441.357.934" class="cls-5" transform="translate(-2298.008 1893.416)"/>
                        </g>
                        <g id="g3260" transform="translate(48.907 67.227)">
                            <path id="path3262" d="M2322.333-1827.438s-.667-.124-.723.172a4.521 4.521 0 0 0 1.608 3.159c1.257.856 2.579.733 2.541-.152a2.965 2.965 0 0 0-.942-2.009c-.333-.2-2.1-.285-2.484-1.17" class="cls-19" transform="translate(-2321.604 1827.463)"/>
                        </g>
                        <g id="g3264" transform="translate(61.294 55.506)">
                            <path id="path3266" d="M2875.945-2111.317l-2.885-3.785-.458-2.936s-.8.224-.8.723.407 1.7 0 1.822-3.733-3.016-4.4-2.8-.289 4.97.22 5.547 4.5 1.137 4.5 1.137l8.842 10.81-5.023-10.521" class="cls-19" transform="translate(-2867.053 2118.301)"/>
                        </g>
                        <g id="g3268" transform="translate(62.903 55.517)">
                            <path id="path3270" d="M3006.4-2109.279l3.157-2.855 7.581 7.094s2.788-9.046 4.536-11.15 3.667-2.37 4.9-.922 1.485 3.994.094 6.845-4.26 9.1-5.618 11.523-2.918 3.225-5.431.425-9.215-10.959-9.215-10.959" class="cls-20" transform="translate(-3006.401 2118.021)"/>
                        </g>
                        <g id="g3272" transform="translate(66.026 120.459)">
                            <path id="path3274" d="M2965.631-504.38v3.323l3.409.393.932-.787.472-5.2-4.812 2.275" class="cls-18" transform="translate(-2965.631 506.654)"/>
                        </g>
                        <g id="g3276" transform="translate(54.69 118.279)">
                            <path id="path3278" d="M2549.01-559.843l-1.151 6.831 3.729.67 1.937-8.4-4.516.9" class="cls-18" transform="translate(-2547.859 560.746)"/>
                        </g>
                        <g id="g3280" transform="translate(48.441 80.138)">
                            <path id="path3282" fill="#202d54" d="M2572.143-1507.119h-9.487l-13.876 7.024a5.556 5.556 0 0 0-3 4.237l-3.934 29.872 5.486 1.043 6.7-25.815s12.152-2.1 17.446-5.465.663-10.895.663-10.895" transform="translate(-2541.845 1507.119)"/>
                        </g>
                        <g id="g3284" transform="translate(60.777 80.138)">
                            <path id="path3286" fill="#0c3d60" d="M2956.986-1507.115h9.549s1.7 2.512 1.154 7.5-4.955 6.109-9.045 7.331l-4.09 1.222-4.005 26.877h-5.934s-.346-29.83 1.08-32.036 11.292-10.9 11.292-10.9" transform="translate(-2944.577 1507.115)"/>
                        </g>
                        <g id="g3288" transform="translate(58.951 125.139)">
                            <path id="path3290" d="M2770.487-384.825l.192-.649a2.948 2.948 0 0 1 1.952-1.974l3.478-1.078s1.6-2 2.242-2a28.422 28.422 0 0 1 3.205.624l1.543-.551.641 5.624h-13.254" class="cls-12" transform="translate(-2770.487 390.521)"/>
                        </g>
                        <g id="g3292" transform="translate(58.951 129.902)">
                            <path id="path3294" d="M2770.782-272.346a2.805 2.805 0 0 0-.1.285l-.193.649h13.254l-.106-.934h-12.853" class="cls-23" transform="translate(-2770.487 272.346)"/>
                        </g>
                        <g id="g3296" transform="translate(47.997 125.139)">
                            <path id="path3298" d="M2348.1-384.823l.193-.649a2.946 2.946 0 0 1 1.951-1.974l3.478-1.078s1.6-2 2.243-2a28.429 28.429 0 0 1 3.2.624l1.543-.551.641 5.624H2348.1" class="cls-12" transform="translate(-2348.101 390.52)"/>
                        </g>
                        <g id="g3300" transform="translate(47.997 129.902)">
                            <path id="path3302" d="M2348.4-272.347c-.038.093-.073.188-.1.285l-.193.649h13.254l-.106-.934H2348.4" class="cls-23" transform="translate(-2348.101 272.347)"/>
                        </g>
                        <g id="g3304" transform="translate(0 79.699)">
                            <path id="path3306" d="M497.4-1518.022h103.506v1.992H497.4v-1.992" class="cls-24" transform="translate(-497.398 1518.022)"/>
                        </g>
                        <g id="g3308" transform="translate(36.901 78.795)">
                            <path id="path3310" fill="#d9e8e8" d="M2196.8-1539.537h-41.805v-.9h41.805v.9" transform="translate(-2154.993 1540.44)"/>
                        </g>
                        <g id="g3312" transform="translate(42.605 76.44)">
                            <path id="path3314" d="M2125.725-1598.888h4.706s6.065 1.449 6.155 3.259c-1.448 0-7.286.52-7.762.317a12.91 12.91 0 0 1-1.9-1.7h-1.289l.091-1.878" class="cls-26" transform="translate(-2125.635 1598.888)"/>
                        </g>
                        <path id="path3316" fill="#fcc40c" d="M1528.179-2120.9a8.618 8.618 0 0 1 .968 3.012c.339 2.037 1.742 14.369 1.742 14.369l15.817 2.172v3.259s-16.479 2.625-18.9 1.561-5.984-11.834-5.932-18.554 4.951-7.473 6.3-5.819" transform="translate(-1496.63 2177.015)"/>
                        <path id="path3318" d="M1466.1-563.394l-1.878 4.277 3.779 2.059 4.1-7.06-6 .724" class="cls-28" transform="translate(-1438.636 682.261)"/>
                        <g id="g3320" transform="translate(41.502 56.98)">
                            <path id="path3322" d="M2090.821-2078.745l3.824-2.986 4.412.566.2.475a24.962 24.962 0 0 1 3.711-.045c.2.181-2.76 1.742-3.6 1.99a23.959 23.959 0 0 1-4.277 0l-3.779 3.032-.5-3.032" class="cls-28" transform="translate(-2090.821 2081.732)"/>
                        </g>
                        <path id="path3324" d="M1180.28-2141.558a18.474 18.474 0 0 1 6.436-1.932c3.411-.286 5.663-.185 6.688 1.126s.622 4.05.37 6.218-2.823 18.671-2.823 18.671l-17.663 1.059s.733-3.226 1.933-9.663c1.065-5.716 2.168-13.713 5.059-15.478" class="cls-15" transform="translate(-1156.311 2198.107)"/>
                        <g id="g3326" transform="translate(42.207 116.967)">
                            <path id="path3328" d="M2074.527-587.626v4.356l4.345.407.34-10.443-4.684 5.679" class="cls-28" transform="translate(-2074.527 593.306)"/>
                        </g>
                        <g id="g3330" transform="translate(18.523 55.893)">
                            <path id="path3332" d="M1299.363-2107.573c3.333 2.766 12.174 9.911 12.174 9.911l13.214-7.693 2.829 2.874s-13.373 12.354-15.274 12.445-15.432-8.169-18.645-11.473 1.174-9.82 5.7-6.064" class="cls-14" transform="translate(-1292.557 2108.705)"/>
                        </g>
                        <g id="g3334" transform="translate(18.278 80.632)">
                            <path id="path3336" d="M1314.28-1494.874a1.821 1.821 0 0 0 1.093 1.255c.837.226 21.029 6.546 22.545 7.134s2.941 1.946 2.737 4.978-2.33 29.643-2.33 29.643l-6.132-.2s-.906-18.351-.815-21.27a12.09 12.09 0 0 1 .52-3.892c-3.19-1.4-24.28 2.616-28.4-5.747-3.545-7.2-.46-11.224-.46-11.224l11.239-.673" class="cls-10" transform="translate(-1301.796 1494.874)"/>
                        </g>
                        <path id="path3338" d="M1133.994-1484.6a13.692 13.692 0 0 0-1.648 6.222c-.068 3.6 1.233 8.033 6.455 9.368s17.4.815 17.4.815a12.391 12.391 0 0 0-3.371 3.891c-1.4 2.535-4.933 14.844-6.155 17.062 2.942 1.493 5.883 2.76 5.883 2.76s13.69-23.352 14.776-25.569a5.007 5.007 0 0 0-1.81-6.721c-2.58-1.4-18.578-6.042-19.551-7.083a2.236 2.236 0 0 1-.767-1.418l-11.207.672" class="cls-9" transform="translate(-1117.603 1566.295)"/>
                        <path id="path3340" d="M1412.638-473.159l4.548 2.512 1.329 2.682s4.871 1.9 4.939 1.9.656 1.946.656 1.946h-9.142l-4.638-5.985 2.308-3.055" class="cls-2" transform="translate(-1386.703 594.968)"/>
                        <path id="path3342" d="M1411-419.239l-.666.882 4.638 5.985h9.142s-.112-.371-.244-.789l-8.558-.161-4.312-5.917" class="cls-29" transform="translate(-1386.703 543.221)"/>
                        <g id="g3344" transform="translate(39.621 125.53)">
                            <path id="path3346" d="M2033.255-375.494l1.052-5.318h5.3l2.509 2.163 4.521.986a1.342 1.342 0 0 1 1.04 1.106l.165 1.064h-14.582" class="cls-2" transform="translate(-2033.255 380.812)"/>
                        </g>
                        <g id="g3348" transform="translate(39.621 129.881)">
                            <path id="path3350" d="M2033.447-272.853l-.191.967h14.582l-.15-.967h-14.241" class="cls-29" transform="translate(-2033.255 272.853)"/>
                        </g>
                        <g id="g3352" transform="translate(25.567 48.668)">
                            <path id="path3354" d="M1455.571-2286.762v5.126s.611.8 3.043.8 2.5-.627 2.5-.627v-2.489l-3.445-4.016-2.1 1.209" class="cls-26" transform="translate(-1455.571 2287.971)"/>
                        </g>
                        <g id="g3356" transform="translate(26.881 43.105)">
                            <path id="path3358" d="M1513.636-2426s.975 1.059.975 5.293-.656 5.362-1.8 5.411-3.664-.622-4.134-1.63a10.339 10.339 0 0 1-.383-3.375l-.172-4.574 5.512-1.126" class="cls-28" transform="translate(-1508.123 2425.999)"/>
                        </g>
                        <g id="g3360" transform="translate(24.447 45.423)">
                            <path id="path3362" fill="#1a1e1e" d="M1415.749-2364.527l-1.654.487s-1.26-2.319-1.579-3.024-.152-1.462.352-1.429 4.638.168 4.638.168-.151 2.1-1.311 2.084-.447 1.714-.447 1.714" transform="translate(-1412.353 2368.495)"/>
                        </g>
                        <g id="g3364" transform="translate(23.899 40.396)">
                            <path id="path3366" fill="#2c3233" d="M1409.039-2488.176s-.622-.234-.5-1.226 1.378-.806 1.378-.806-.555-.941.118-1.4a.816.816 0 0 1 1.093 0s-.269-.907.386-1.209 1.311.521 1.311.521a1.057 1.057 0 0 1 1.126-.924.961.961 0 0 1 .991.924 1.337 1.337 0 0 1 1.5-.6.829.829 0 0 1 .672 1.143s1.328-.555 1.664.5c.378 1.19-1.26 2.823-4.941 3.227-3.731.588-4.789-.152-4.789-.152" transform="translate(-1408.52 2493.219)"/>
                        </g>
                        <g id="g3368" transform="translate(26.641 47.239)">
                            <path id="path3370" d="M1484.276-2322.121c0 .729-.354 1.32-.79 1.32s-.79-.591-.79-1.32.353-1.319.79-1.319.79.591.79 1.319" class="cls-28" transform="translate(-1482.697 2323.439)"/>
                        </g>
                        <g id="g3372" transform="translate(69.098 76.417)">
                            <path id="path3374" d="M3461.391-1599.174l-1.9.09-2.511-.362s-4.5 1.969-4.436 2.795c.05.6 2.964.513 4.54.42a2.031 2.031 0 0 0 1.544-.865l.3-.427 5.86.181-3.394-1.833" class="cls-3" transform="translate(-3452.542 1599.446)"/>
                        </g>
                        <g id="g3376" transform="translate(77.178 55.113)">
                            <path id="path3378" d="M3663.275-2127.657c2.108 1.562 3.611 3.41 7.582 10.877s4.512 13.1 1.39 13.178c-4.134.1-19.234-.359-19.234-.359v-3.055l14.29-1.8s-6.674-9.441-7.952-13.021c-1.493-4.186 1.818-7.382 3.924-5.82" class="cls-9" transform="translate(-3653.013 2128.06)"/>
                        </g>
                        <g id="g3380" transform="translate(56.204 118.01)">
                            <path id="path3382" d="M2620.048-564.842l-1.62 4.191 3.829 1.513 3.695-8.274-5.9 2.571" class="cls-3" transform="translate(-2618.428 567.413)"/>
                        </g>
                        <g id="g3384" transform="translate(68.791 119.19)">
                            <path id="path3386" d="M3086.931-538.146l1.578 5.368-4.293.691-2-6.059h4.718" class="cls-3" transform="translate(-3082.213 538.146)"/>
                        </g>
                        <g id="g3388" transform="translate(45.933 78.918)">
                            <path id="path3390" d="M2922.008-1537.4a17.184 17.184 0 0 1 1.031 7.337c-.263 4.4-4.18 9.944-13.86 10.362s-22.462.4-22.462.4l5.169 22.836-5.917 2.068s-7.942-23.87-8.228-26.862 35.6-14.992 35.6-14.992l2.128-1.145h6.538" class="cls-15" transform="translate(-2877.738 1537.398)"/>
                        </g>
                        <g id="g3392" transform="translate(36.055 77.843)">
                            <path id="path3394" d="M2672.952-1562.479s-22.875 7.576-26.526 8.654-3.829 2.574-4.884 5.016-8.889 27.5-8.889 27.5l5.611 1.958 11.748-24.927s19.074-.132 21.758-.374 10.626-2.024 12.122-9.966-2.134-9.445-2.134-9.445l-8.806 1.583" class="cls-14" transform="translate(-2632.654 1564.063)"/>
                        </g>
                        <g id="g3396" transform="translate(50.37 124.557)">
                            <path id="path3398" d="M2438.511-404.959l4.619 1.526.415 4.74h-12.17l.2-1.1a1.046 1.046 0 0 1 .576-.755l4.888-2.34 1.472-2.075" class="cls-2" transform="translate(-2431.375 404.959)"/>
                        </g>
                        <g id="g3400" transform="translate(50.37 129.819)">
                            <path id="path3402" d="M2431.558-274.4l-.183 1h12.17l-.088-1h-11.9" class="cls-8" transform="translate(-2431.375 274.4)"/>
                        </g>
                        <g id="g3404" transform="translate(64.004 123.11)">
                            <path id="path3406" d="M2971.323-438.829l5.02-2.049 2.037 6.331v1.383h-13.237l.277-.948a2.092 2.092 0 0 1 1.126-1.31l5.063-2.35-.285-1.056" class="cls-2" transform="translate(-2965.142 440.879)"/>
                        </g>
                        <g id="g3408" transform="translate(64.004 129.779)">
                            <path id="path3410" d="M2965.452-275.387c-.011.032-.024.063-.033.1l-.277.948h13.237v-1.044h-12.927" class="cls-8" transform="translate(-2965.142 275.387)"/>
                        </g>
                        <g id="g3412" transform="translate(74.821 54.677)">
                            <path id="path3414" d="M3596.073-2114.121s10.625-.339 13.848-.509c-.373-9.232.951-16.36-.576-20.535s-4.673-3.688-4.673-3.688a62.085 62.085 0 0 0-6.63.343c-1.46.305-3.632 2.26-3.5 7.962s1.458 12.083 1.527 16.428" class="cls-10" transform="translate(-3594.54 2138.87)"/>
                        </g>
                        <g id="g3416" transform="translate(61.417 70.927)">
                            <path id="path3418" d="M2785.339-1727.762l3.235-7.9.543.158-3.281 7.739-.4.355-.1-.355" class="cls-10" transform="translate(-2785.339 1735.659)"/>
                        </g>
                        <g id="g3420" transform="translate(59.444 74.322)">
                            <path id="path3422" d="M2777.58-1650.877l-3.349.678-.725-.905-1.585-.307a.758.758 0 0 0-.8.359c-.507.861-1.5 2.688-1.191 3.32.283.583 1.684.771 2.511.831a1.5 1.5 0 0 0 1.035-.316 5.124 5.124 0 0 1 1.229-.764c.611-.2 6.2-.872 6.2-.872l-3.326-2.025" class="cls-3" transform="translate(-2769.874 1651.424)"/>
                        </g>
                        <g id="g3424" transform="translate(48.431 55.037)">
                            <path id="path3426" d="M2971.941-2129.115c1.947 1.856.974 6.991-2.014 10.363s-10.113 8.327-10.113 8.327-6.223 3.168-19.574 3.666a19.8 19.8 0 0 1-.5-3.666l16.7-5.86s8.695-11.124 12.083-13.279c1.7-1.079 3.417.449 3.417.449" class="cls-9" transform="translate(-2939.743 2129.95)"/>
                        </g>
                        <g id="g3428" transform="translate(57.004 79.318)">
                            <path id="path3430" fill="#f3f8f8" d="M2684.641-1527.218h-10.712v-.253h10.712v.253" transform="translate(-2673.928 1527.471)"/>
                        </g>
                        <g id="g3432" transform="translate(76.199 41.284)">
                            <path id="path3434" d="M3631.63-2470.54c-1.528 1.086-2.422 2.863-2.727 5.793s-.306 4.1.712 4.3a11.362 11.362 0 0 0 6.724-1.4l1.773-1.738c2.081-3.3 1.278-6.245-.679-7.23s-5.8.272-5.8.272" class="cls-3" transform="translate(-3628.725 2471.188)"/>
                        </g>
                        <g id="g3436" transform="translate(74.595 37.426)">
                            <path id="path3438" d="M3599.377-2562.041s-6.133 3.779-8.5 4.153c-2.59-1.188-3.022-5.51 1.187-8.09s8.624.717 7.889 2.954l-.58.983" class="cls-2" transform="translate(-3588.917 2566.92)"/>
                        </g>
                        <g id="g3440" transform="translate(79.602 47.839)">
                            <path id="path3442" d="M3717.34-2305.74v4.06l-4.174.17.317-6.353.5-.69 1.98.611 1.38 2.2" class="cls-7" transform="translate(-3713.167 2308.552)"/>
                        </g>
                        <g id="g3444" transform="translate(77.62 40.828)">
                            <path id="path3446" d="M3664.058-2479.927a3.336 3.336 0 0 0 2.417 3.994c.214 1.55 2.014 3.42 3.665 3.254 2.692-2.564 5.83-3.3 5.454-6.547a3.127 3.127 0 0 0-3.514-3.032s-7.271-1.359-8.022 2.331" class="cls-2" transform="translate(-3663.985 2482.502)"/>
                        </g>
                        <g id="g3448" transform="translate(85.382 37.263)">
                            <path id="path3450" d="M3856.582-2567.577a9.089 9.089 0 0 1 9.792-2.987c6.364 1.782 3.581 8.214 2.1 10.641s-4.412 7.586-2.019 10.063c-3.224 1.069-5.845-2.4-5.77-5.974.1-4.832 4.5-9.938 1.8-11.879-2.24-1.612-5.244 1.29-5.244 1.29l-.662-1.154" class="cls-2" transform="translate(-3856.582 2570.963)"/>
                        </g>
                        <g id="g3452" transform="translate(88.647 39.599)">
                            <path id="path3454" d="M3944.2-2494.236c-6.126-4.157 1.256-13.339-.56-17.082-1.46-3.008-6.052-1.073-6.052-1.073a2.86 2.86 0 0 1 2.641.3c2.7 1.942-1.7 7.048-1.8 11.879-.074 3.578 2.545 7.043 5.771 5.974" class="cls-5" transform="translate(-3937.591 2513.003)"/>
                        </g>
                        <g id="g3456" transform="translate(79.074 46.202)">
                            <path id="path3458" d="M3701.745-2347.73c-.073.75-.506 1.319-.967 1.274s-.776-.689-.7-1.438.506-1.319.967-1.273.776.689.7 1.438" class="cls-3" transform="translate(-3700.065 2349.17)"/>
                        </g>
                        <g id="g3460" transform="translate(38.304)">
                            <path id="path3462" fill="#3683f7" d="M2733.68-3461.362l-.433-.168c-5.955-2.3-12.353 1.113-18.524 2.546-7.083 1.645-16.689 1.251-22-1.685-3.623-2-4.19-7.572-4.16-18.775.021-7.528-1.506-12.36 5.64-14.6 5.614-1.759 16.306-2.262 26.74.031 4.006.881 7.373 3 8.048 7.491a73.671 73.671 0 0 1 .26 18.14l4.427 7.02" transform="translate(-2688.442 3495.554)"/>
                        </g>
                        <g id="g3464" transform="translate(38.186 12.882)">
                            <path id="path3466" fill="#ffd147" d="M2176.633-3175.928a18.541 18.541 0 0 0-18.542 18.541c0 3.812 1.147 5.983 3.323 10.3 3.166 6.284-2.058 8.944-2.058 8.944s13.7.094 17.276.094c10.24 0 18.541-9.1 18.541-19.339a18.541 18.541 0 0 0-18.541-18.541" transform="translate(-2158.092 3175.928)"/>
                        </g>
                        <g id="g3468" transform="translate(87.553 9.752)">
                            <path id="path3470" d="M3918-3252.877l.912 1.793-1.914-.437-6.548-2.063 7.55.707" class="cls-11" transform="translate(-3910.448 3253.584)"/>
                        </g>
                        <g id="g3472" transform="translate(92.763 11.645)">
                            <path id="path3474" d="M4042.975-3206.009l-3.252-.2.8-.4 2.455.607" class="cls-24" transform="translate(-4039.723 3206.617)"/>
                        </g>
                        <g id="g3476" transform="translate(87.552 8.713)">
                            <g id="g3478" clip-path="url(#clip-path)">
                                <g id="g3484">
                                    <path id="path3494" fill="url(#linear-gradient)" d="M3917.981-3277.619l.569-1.747-8.12 1.039 7.551.708" transform="translate(-3910.431 3279.365)"/>
                                </g>
                            </g>
                        </g>
                        <g id="g3496" transform="translate(87.552 9.752)">
                            <g id="g3498" clip-path="url(#clip-path-2)">
                                <g id="g3504" transform="translate(-.001 .001)">
                                    <path id="path3514" fill="url(#linear-gradient-2)" d="M3910.412-3253.575l6.549 2.063-.977 2.517-5.572-4.58" transform="translate(-3910.412 3253.575)"/>
                                </g>
                            </g>
                        </g>
                        <g id="g3516" transform="translate(94.454 13.319)">
                            <path id="path3518" d="M4082.517-3164.339a.189.189 0 0 0 .046-.037.153.153 0 0 0-.015-.215 4.236 4.236 0 0 0-.645-.464.152.152 0 0 0-.209.053.155.155 0 0 0 .055.21 4.086 4.086 0 0 1 .6.43.153.153 0 0 0 .169.021" class="cls-24" transform="translate(-4081.674 3165.076)"/>
                        </g>
                        <g id="g3520" transform="translate(88.484 14.445)">
                            <path id="path3522" d="M3936.344-3133.491a2.2 2.2 0 0 0-1.408-.133.154.154 0 0 1-.187-.111.154.154 0 0 1 .112-.186 2.467 2.467 0 0 1 1.611.152.152.152 0 0 1 .075.2.143.143 0 0 1-.07.072.151.151 0 0 1-.133.006zm-2.558 1.747a.153.153 0 0 1-.186-.111 1.7 1.7 0 0 1 .126-1.22 1.518 1.518 0 0 1 .26-.36.153.153 0 0 1 .216 0 .152.152 0 0 1 0 .216 1.254 1.254 0 0 0-.209.289 1.374 1.374 0 0 0-.1 1 .154.154 0 0 1-.079.174.116.116 0 0 1-.028.012zm7.9-3.744a.152.152 0 0 1-.194-.1 4.905 4.905 0 0 0-.266-.628 4.74 4.74 0 0 0-.431-.69.153.153 0 0 1 .031-.214.153.153 0 0 1 .214.03 4.882 4.882 0 0 1 .457.736 4.978 4.978 0 0 1 .283.668.152.152 0 0 1-.075.186zm-3.669 3.656a5.706 5.706 0 0 0-.945-1.167.153.153 0 0 1-.011-.215.154.154 0 0 1 .216-.011 6 6 0 0 1 1 1.227.153.153 0 0 1-.046.211l-.014.008a.153.153 0 0 1-.202-.054zm-2.767 1.894a3.8 3.8 0 0 1-.359-.207 3.288 3.288 0 0 1-.865-.826.154.154 0 0 1 .035-.214.153.153 0 0 1 .213.035 2.956 2.956 0 0 0 .783.748 3.58 3.58 0 0 0 .332.193.154.154 0 0 1 .067.206.155.155 0 0 1-.067.066.154.154 0 0 1-.141-.001zm6.565-3.105a.154.154 0 0 1-.124-.177 4.613 4.613 0 0 0 .014-1.489.153.153 0 0 1 .128-.174.153.153 0 0 1 .174.128 4.97 4.97 0 0 1-.016 1.588.155.155 0 0 1-.081.111.159.159 0 0 1-.097.012zm-4.083 3.567a4.807 4.807 0 0 1-1.583-.123.154.154 0 0 1-.111-.187.153.153 0 0 1 .186-.111 4.462 4.462 0 0 0 1.483.116.155.155 0 0 1 .166.14.154.154 0 0 1-.084.149.139.139 0 0 1-.06.015zm2.9-1.436a.153.153 0 0 1 0-.216 3.966 3.966 0 0 0 .559-.726 4.075 4.075 0 0 0 .253-.51.153.153 0 0 1 .2-.083.154.154 0 0 1 .084.2 4.317 4.317 0 0 1-.274.55 4.193 4.193 0 0 1-.6.782.142.142 0 0 1-.041.03.152.152 0 0 1-.179-.028zm-1.208 1.287a.154.154 0 0 1-.205-.069c-.018-.039-.038-.078-.058-.116a5.092 5.092 0 0 1-.494.166.154.154 0 0 1-.189-.107.153.153 0 0 1 .107-.188q.221-.062.437-.144c-.159-.3-.334-.62-.532-.961a.15.15 0 0 1 .055-.208.153.153 0 0 1 .209.055c.205.353.387.68.55 1a4.565 4.565 0 0 0 .637-.356.153.153 0 0 1 .212.042.154.154 0 0 1-.042.212 5.072 5.072 0 0 1-.668.374l.05.1a.154.154 0 0 1-.069.2zm.86 2.315a.153.153 0 0 1-.187-.109 11.314 11.314 0 0 0-.5-1.441.155.155 0 0 1 .082-.2.152.152 0 0 1 .2.082 11.361 11.361 0 0 1 .511 1.48.154.154 0 0 1-.078.176.2.2 0 0 1-.026.011zm.212 2.451a.153.153 0 0 1-.142-.163v-.069a7.051 7.051 0 0 0-.075-1.438.153.153 0 0 1 .127-.174.154.154 0 0 1 .175.128 7.455 7.455 0 0 1 .078 1.5v.074a.152.152 0 0 1-.084.125.149.149 0 0 1-.075.015zm-.779 2.327a.153.153 0 0 1-.057-.209 5.435 5.435 0 0 0 .554-1.392.153.153 0 0 1 .186-.112.153.153 0 0 1 .112.186 5.8 5.8 0 0 1-.585 1.47.159.159 0 0 1-.065.061.154.154 0 0 1-.143-.006zm-1.744 1.715a.154.154 0 0 1 .055-.209 4.32 4.32 0 0 0 1.122-.973.153.153 0 0 1 .215-.021.154.154 0 0 1 .021.215 4.632 4.632 0 0 1-1.2 1.042h-.008a.154.154 0 0 1-.2-.058" class="cls-24" transform="translate(-3933.543 3137.147)"/>
                        </g>
                        <g id="g3524" transform="translate(91.28 30.916)">
                            <path id="path3526" d="M4003.892-2728.155a.151.151 0 0 0 .077-.177.151.151 0 0 0-.188-.105 3.35 3.35 0 0 1-.719.122.153.153 0 0 0-.145.16.153.153 0 0 0 .161.145 3.6 3.6 0 0 0 .786-.132.091.091 0 0 0 .028-.011" class="cls-24" transform="translate(-4002.916 2728.443)"/>
                        </g>
                        <g id="g3528" transform="translate(19.138 15.855)">
                            <g id="g3530" clip-path="url(#clip-path-3)">
                                <g id="g3536">
                                    <path id="path3546" fill="url(#linear-gradient-3)" d="M1236.334-3098.68l-5.295-2.922-2.7-.541-2.043.3 10.04 3.162" transform="translate(-1226.294 3102.143)"/>
                                </g>
                            </g>
                        </g>
                        <g id="g3548" transform="translate(19.138 16.156)">
                            <path id="path3550" d="M1236.334-3091.526l-9.914-2.549-.126-.614" class="cls-11" transform="translate(-1226.294 3094.689)"/>
                        </g>
                        <g id="g3552" transform="translate(19.026 18.471)">
                            <path id="path3554" d="M1222.391-3037.248l.013.021.416 1.539 9.743-.711-10.172-.848" class="cls-24" transform="translate(-1222.391 3037.248)"/>
                        </g>
                        <g id="g3556" transform="translate(17.669 16.421)">
                            <g id="g3558" clip-path="url(#clip-path-4)">
                                <g id="g3564">
                                    <path id="path3574" fill="url(#linear-gradient-4)" d="M1175.412-3086.955l1.415-1.148 10.611 2.881-9.134-.271-2.891-1.461" transform="translate(-1175.412 3088.104)"/>
                                </g>
                            </g>
                        </g>
                        <g id="g3576" transform="translate(4.567 36.781)">
                            <path id="path3578" d="M611.174-2582.479a7.3 7.3 0 0 0 .954-.414.144.144 0 0 1 .194.062.144.144 0 0 1-.062.194 7.7 7.7 0 0 1-.991.43c-.122.043-.245.083-.368.119a.143.143 0 0 1-.127-.021.143.143 0 0 1-.052-.075.144.144 0 0 1 .1-.179c.119-.036.237-.075.355-.116" class="cls-24" transform="translate(-610.716 2582.908)"/>
                        </g>
                        <g id="g3580" transform="translate(24.266 16.494)">
                            <path id="path3582" d="M1099.668-3086.3c.45.058.917.132 1.431.227a.145.145 0 0 1 .115.168.144.144 0 0 1-.168.115c-.508-.094-.971-.167-1.415-.224a.139.139 0 0 1-.067-.027.143.143 0 0 1-.057-.134.144.144 0 0 1 .161-.125" class="cls-24" transform="translate(-1099.505 3086.299)"/>
                        </g>
                        <g id="g3584" transform="translate(21.968 16.345)">
                            <path id="path3586" d="M1042.534-3089.738a.144.144 0 0 1-.058-.114.145.145 0 0 1 .143-.146c.462 0 .951.015 1.452.057a.144.144 0 0 1 .131.156.144.144 0 0 1-.156.131c-.492-.042-.972-.061-1.426-.057a.136.136 0 0 1-.087-.028" class="cls-24" transform="translate(-1042.476 3089.999)"/>
                        </g>
                        <g id="g3588" transform="translate(6.644 35.434)">
                            <path id="path3590" d="M663.406-2616.3a.142.142 0 0 1 .2 0 .144.144 0 0 1 0 .2 8.022 8.022 0 0 1-1.137.923.144.144 0 0 1-.166 0 .138.138 0 0 1-.034-.036.144.144 0 0 1 .039-.2 7.768 7.768 0 0 0 1.1-.89" class="cls-24" transform="translate(-662.246 2616.345)"/>
                        </g>
                        <g id="g3592" transform="translate(8.345 33.607)">
                            <path id="path3594" d="M704.508-2660.241a.144.144 0 0 1-.02-.2q.122-.149.237-.3a7.439 7.439 0 0 0 .553-.865.144.144 0 0 1 .2-.057.146.146 0 0 1 .058.2 7.783 7.783 0 0 1-.575.9c-.079.106-.161.212-.246.314a.143.143 0 0 1-.2.024h-.005" class="cls-24" transform="translate(-704.455 2661.688)"/>
                        </g>
                        <g id="g3596" transform="translate(9.521 31.459)">
                            <path id="path3598" d="M733.72-2713.337a.157.157 0 0 1-.031-.017.144.144 0 0 1-.047-.171 9.822 9.822 0 0 0 .438-1.348.144.144 0 0 1 .175-.1.144.144 0 0 1 .1.175 10.033 10.033 0 0 1-.451 1.388.144.144 0 0 1-.188.079" class="cls-24" transform="translate(-733.631 2714.982)"/>
                        </g>
                        <g id="g3600" transform="translate(12.332 20.574)">
                            <path id="path3602" d="M804.494-2984.815q-.18.219-.349.447c-.17.229-.332.467-.482.706a.144.144 0 0 1-.2.046l-.009-.007a.144.144 0 0 1-.036-.192c.154-.245.32-.489.494-.724q.173-.234.358-.459a.137.137 0 0 1 .2-.02.145.145 0 0 1 .02.2" class="cls-24" transform="translate(-803.397 2985.054)"/>
                        </g>
                        <g id="g3604" transform="translate(11.323 22.495)">
                            <path id="path3606" d="M779.213-2937.184a10.524 10.524 0 0 0-.571 1.3.144.144 0 0 1-.184.086.155.155 0 0 1-.037-.02.143.143 0 0 1-.05-.164 10.72 10.72 0 0 1 .586-1.336.144.144 0 0 1 .194-.061.144.144 0 0 1 .061.194" class="cls-24" transform="translate(-778.362 2937.394)"/>
                        </g>
                        <g id="g3608" transform="translate(13.747 18.951)">
                            <path id="path3610" d="M839.779-3025.062a11.721 11.721 0 0 0-1.043.967.144.144 0 0 1-.19.016l-.014-.012a.144.144 0 0 1 0-.2 12.065 12.065 0 0 1 1.068-.991.144.144 0 0 1 .2.02.145.145 0 0 1-.02.2" class="cls-24" transform="translate(-838.488 3025.317)"/>
                        </g>
                        <g id="g3612" transform="translate(17.491 16.795)">
                            <path id="path3614" d="M931.6-3078.058a.145.145 0 0 1-.144-.016.144.144 0 0 1-.046-.058.144.144 0 0 1 .073-.189 11.385 11.385 0 0 1 1.368-.5.145.145 0 0 1 .179.1.144.144 0 0 1-.1.179 11.06 11.06 0 0 0-1.333.491" class="cls-24" transform="translate(-931.394 3078.831)"/>
                        </g>
                        <g id="g3616" transform="translate(10.468 26.901)">
                            <path id="path3618" d="M757.277-2826.358a.142.142 0 0 1-.069-.027.144.144 0 0 1-.057-.132l.02-.181c.048-.417.1-.835.15-1.252a.144.144 0 0 1 .162-.124.144.144 0 0 1 .124.162c-.055.415-.1.831-.15 1.247l-.021.181a.144.144 0 0 1-.159.126" class="cls-24" transform="translate(-757.149 2828.075)"/>
                        </g>
                        <g id="g3620" transform="translate(15.489 17.672)">
                            <path id="path3622" d="M881.96-3056.039a.144.144 0 0 1-.169 0 .149.149 0 0 1-.032-.032.144.144 0 0 1 .035-.2 11.866 11.866 0 0 1 1.24-.765.144.144 0 0 1 .2.059.144.144 0 0 1-.059.2 11.573 11.573 0 0 0-1.21.747" class="cls-24" transform="translate(-881.733 3057.058)"/>
                        </g>
                        <g id="g3624" transform="translate(10.149 29.19)">
                            <path id="path3626" d="M749.606-2771.281a.144.144 0 0 1 .125.161c-.071.561-.14 1.016-.218 1.433a.144.144 0 0 1-.168.115.133.133 0 0 1-.059-.026.145.145 0 0 1-.056-.143c.077-.411.146-.86.216-1.415a.144.144 0 0 1 .161-.125" class="cls-24" transform="translate(-749.227 2771.282)"/>
                        </g>
                        <g id="g3628" transform="translate(2.301 37.528)">
                            <path id="path3630" d="M556.037-2564.387a.144.144 0 0 1 .169.114.144.144 0 0 1-.114.169 11.725 11.725 0 0 1-1.445.186.142.142 0 0 1-.1-.028.145.145 0 0 1-.058-.106.144.144 0 0 1 .134-.153 11.546 11.546 0 0 0 1.41-.182" class="cls-24" transform="translate(-554.493 2564.39)"/>
                        </g>
                        <g id="g3632" transform="translate(10.766 24.638)">
                            <path id="path3634" d="M765.011-2884.22a.144.144 0 0 1 .1.176c-.113.424-.211.88-.3 1.395a.143.143 0 0 1-.166.118.135.135 0 0 1-.062-.026.143.143 0 0 1-.056-.139c.088-.524.187-.989.3-1.421a.144.144 0 0 1 .176-.1" class="cls-24" transform="translate(-764.529 2884.225)"/>
                        </g>
                        <g id="g3636" transform="translate(19.679 16.382)">
                            <path id="path3638" d="M986.749-3089.022c.168-.02.337-.037.505-.049a.144.144 0 0 1 .155.132.145.145 0 0 1-.133.155q-.247.018-.493.047c-.3.037-.612.087-.914.151a.146.146 0 0 1-.115-.025.145.145 0 0 1-.055-.086.143.143 0 0 1 .111-.17c.31-.066.626-.118.939-.155" class="cls-24" transform="translate(-985.696 3089.071)"/>
                        </g>
                    </g>
                </g>
            </g>
        </g>
    </g>
</svg>
