<svg xmlns="http://www.w3.org/2000/svg" xmlns:xlink="http://www.w3.org/1999/xlink" width="150.3" height="150.3" viewBox="0 0 150.3 150.3">
    <defs>
        <clipPath id="clip-path">
            <path id="path90" d="M297.015-322.175s-3.158-4.246-3.158-8.839a14.763 14.763 0 0 1 2.983-8.289v-.328h-41.677c-5.067 0-9.213 3.7-9.213 8.218v1.452c0 4.52 4.146 8.217 9.213 8.217h41.677l.176-.109z" transform="translate(-245.95 339.63)"/>
        </clipPath>
        <clipPath id="clip-path-2">
            <path id="path136" d="M350.618-542.753s2.615 6.1 3.279 6.1c.531 0-.2-4.98-.2-4.98h2.19s2.754 8.535.564 10.095-7-4.414-7-4.414z" transform="translate(-349.45 542.753)"/>
        </clipPath>
        <clipPath id="clip-path-3">
            <path id="path154" d="M326.59-548.435s1.366.926 1.366 1.988v14.1h-8v-13.183a3.046 3.046 0 0 1 3.028-2.93c2.862 0 3.606.025 3.606.025z" transform="translate(-319.954 548.46)"/>
        </clipPath>
        <clipPath id="clip-path-4">
            <path id="path184" d="M308.156-544.539s-4.524 5.026-4.524 8.039 3.673 8.322 3.673 8.322l1.814-.531s-1.637-6.571-1.637-8.318 3.363-4.31 3.363-4.31" transform="translate(-303.631 544.539)"/>
        </clipPath>
        <linearGradient id="linear-gradient" x1="-10.019" x2="-10.015" y1="10.644" y2="10.644" gradientUnits="objectBoundingBox">
            <stop offset="0" stop-color="#d8f1e3"/>
            <stop offset="1" stop-color="#b5e6ea"/>
        </linearGradient>
        <linearGradient id="linear-gradient-2" x1="-8.996" x2="-8.992" y1="7.661" y2="7.661" xlink:href="#linear-gradient"/>
        <linearGradient id="linear-gradient-3" x1="-9.473" x2="-9.469" y1="7.489" y2="7.489" gradientUnits="objectBoundingBox">
            <stop offset="0" stop-color="#b5e6ea"/>
            <stop offset="1" stop-color="#d8f1e3"/>
        </linearGradient>
        <style>
            .cls-3{fill:#fff}.cls-4{fill:#1f2c54}.cls-5{fill:#196265}.cls-6{fill:#1a5aeb}.cls-7{fill:#fccd37}.cls-9{fill:#65cbc2}.cls-10{fill:#183c5e}.cls-11{fill:#338d8c}.cls-13{fill:#f84217}.cls-14{fill:#f8a37b}.cls-15{fill:#1a385b}.cls-20{fill:#88d6bf}.cls-21{fill:#f68a76}.cls-24{fill:#f78d38}.cls-25{fill:#f9ab37}.cls-27{fill:#f89b17}.cls-29{fill:#fbc39a}
        </style>
    </defs>
    <g id="Group_3382" transform="translate(-30.85 -998.517)">
        <g id="g18" transform="translate(31 998.667)">
            <g id="g20">
                <path id="path22" fill="#fff" stroke="#ddd" stroke-width="0.3px" d="M150-516.665H0v-150h150v150" transform="translate(0 666.665)"/>
                <path id="path24" fill="#36a5f6" d="M408.114-406.734a7.425 7.425 0 0 1-10.122-2.793 7.424 7.424 0 0 1 2.793-10.122 7.425 7.425 0 0 1 10.122 2.793 7.425 7.425 0 0 1-2.793 10.122zM420-426.064c-.409-.172-2.034.334-3.7 1.241a16.506 16.506 0 0 0-3.843-2.914c.5-1.582.87-3.3.354-3.942-1.049-1.3-5.534-1.975-6.188-1.707-.419.171-1.231 1.729-1.769 3.595a16.49 16.49 0 0 0-4.742.568c-.763-1.479-1.724-2.962-2.544-3.049-1.658-.176-5.309 2.516-5.582 3.168-.171.408.33 2.023 1.232 3.685a16.5 16.5 0 0 0-3.076 3.8c-1.533-.476-3.155-.8-3.771-.3-1.3 1.048-1.975 5.534-1.707 6.188.159.389 1.518 1.119 3.207 1.652a16.514 16.514 0 0 0 .515 5.093c-1.32.719-2.53 1.572-2.609 2.31-.176 1.659 2.517 5.309 3.168 5.583a6.5 6.5 0 0 0 3.184-.971 16.5 16.5 0 0 0 4.154 3.328c-.385 1.368-.591 2.711-.148 3.259 1.049 1.3 5.534 1.975 6.188 1.707a6.29 6.29 0 0 0 1.529-2.832 16.5 16.5 0 0 0 5.333-.681c.694 1.236 1.5 2.325 2.194 2.4 1.658.176 5.309-2.517 5.583-3.168a6.527 6.527 0 0 0-.977-3.2 16.507 16.507 0 0 0 3.145-4.2c1.432.419 2.873.665 3.446.2 1.3-1.048 1.975-5.534 1.707-6.188-.16-.391-1.532-1.126-3.233-1.66a16.491 16.491 0 0 0-.724-4.959c1.408-.744 2.76-1.655 2.843-2.436.176-1.658-2.517-5.309-3.168-5.583" transform="translate(-298.07 485.919)"/>
                <path id="path26" d="M429.95-389.6a10.271 10.271 0 0 0-3.136 13.533 10.269 10.269 0 0 0 13.983 3.858 10.273 10.273 0 0 0 3.859-13.983 10.269 10.269 0 0 0-13.983-3.858q-.373.208-.723.45zm11.834 17.327q-.365.249-.755.471a10.738 10.738 0 0 1-14.621-4.034 10.742 10.742 0 0 1 4.034-14.621 10.737 10.737 0 0 1 14.621 4.034 10.74 10.74 0 0 1-3.279 14.15" class="cls-3" transform="translate(-329.385 453.688)"/>
                <path id="path28" d="M458.627-388.906c-.064.028-.129.054-.2.078a15.135 15.135 0 0 1 1.935 2.675 15.166 15.166 0 0 1-5.7 20.652 15.154 15.154 0 0 1-14.837.061c-.052.047-.105.091-.16.134a15.351 15.351 0 0 0 15.1-.025 15.362 15.362 0 0 0 5.772-20.92 15.331 15.331 0 0 0-1.91-2.656" class="cls-3" transform="translate(-340.744 451.402)"/>
                <path id="path30" d="M410.456-395.474a15.069 15.069 0 0 1 6.489-7.332c.059-.034.12-.063.18-.1-.053-.045-.1-.093-.155-.14-.04.022-.081.042-.122.065a15.267 15.267 0 0 0-6.558 7.39q.084.055.166.113" class="cls-3" transform="translate(-317.974 462.357)"/>
                <path id="path34" d="M192.448-443.268a15.621 15.621 0 0 0-4.678 5.652 15.592 15.592 0 0 0-.77 11.988 15.6 15.6 0 0 0 7.935 9.019 15.594 15.594 0 0 0 11.988.766 15.6 15.6 0 0 0 9.019-7.935 15.591 15.591 0 0 0 .767-11.988 15.594 15.594 0 0 0-7.935-9.019 15.593 15.593 0 0 0-11.988-.766 15.729 15.729 0 0 0-4.341 2.283zm19.1 25.517a16.193 16.193 0 0 1-4.47 2.35 16.057 16.057 0 0 1-12.346-.789 16.055 16.055 0 0 1-8.171-9.288 16.057 16.057 0 0 1 .789-12.345 16.057 16.057 0 0 1 9.288-8.171 16.057 16.057 0 0 1 12.346.789 16.058 16.058 0 0 1 8.171 9.288 16.057 16.057 0 0 1-.789 12.345 16.094 16.094 0 0 1-4.818 5.821" class="cls-3" transform="translate(-143.907 496.322)"/>
                <path id="path36" d="M226.269-427.195c-.1.023-.208.044-.313.061a22.982 22.982 0 0 1 2.129 4.538 23.027 23.027 0 0 1-14.34 29.2 23.01 23.01 0 0 1-22.151-4.105q-.135.082-.277.155a23.308 23.308 0 0 0 22.526 4.232 23.326 23.326 0 0 0 14.527-29.576 23.269 23.269 0 0 0-2.1-4.5" class="cls-3" transform="translate(-148.269 481.076)"/>
                <path id="path38" d="M172-462.575a22.881 22.881 0 0 1 11.753-9.1c.1-.033.2-.06.3-.092-.067-.082-.129-.167-.192-.253-.066.022-.133.04-.2.063a23.174 23.174 0 0 0-11.872 9.169q.11.105.216.216" class="cls-3" transform="translate(-133.129 515.817)"/>
                <path id="path40" d="M171.332-436.327s5.136-23.779-9.6-33.8c-25.221 17.447-7.995 42.206-7.995 42.206l17.6-8.4" class="cls-4" transform="translate(-114.694 514.349)"/>
                <path id="path42" d="M163.637-470.128l-.26.183 1.14 28.642-13.934-11.2q-.068.291-.129.581l14.091 11.322.329 8.265.524-.25-.656-16.476 8.381-6.094c-.043-.188-.086-.376-.132-.565l-8.275 6.016-.805-20.234c-.092-.065-.181-.131-.274-.195" class="cls-5" transform="translate(-116.602 514.349)"/>
                <path id="path44" d="M113.748-417.393s-10.821-21.713-27.882-22.282c-10.616 17.571 7.182 32.389 7.182 32.389l20.267 6.271.433-16.379" class="cls-6" transform="translate(-63.928 490.748)"/>
                <path id="path46" d="M103.418-431.627l-3.925 10.016-12.81-18.043c-.134-.007-.268-.017-.4-.021-.042.069-.079.138-.12.207l6.857 9.668-9.94-1.042c-.013.094-.022.188-.033.281l-.026.249 10.41 1.092 11.434 16.1-17.5-1.273c.124.19.248.379.373.563l17.531 1.275 8.119 11.435.343.106.014-.527-13.882-19.549 3.974-10.141q-.207-.2-.419-.4" class="cls-3" transform="translate(-64.342 490.748)"/>
                <path id="path48" d="M103.074-309s-17.857-9.547-28.175-.687c4.283 27.438 39.486 23.927 39.486 23.927L103.074-309" class="cls-7" transform="translate(-58.047 392.925)"/>
                <path id="path50" d="M74.9-309.678l.052.314 25.108 11.029-13.222 6.935q.266.165.536.322l13.312-6.977 9.807 4.308-.362-.743-19.093-8.387-4.175-10.553q-.289-.008-.578-.009l4.058 10.257-15.211-6.682c-.077.064-.155.124-.231.19" class="cls-3" transform="translate(-58.047 392.918)"/>
                <path id="path52" d="M432.012-344.931s.219-19.232 13.34-24.368c16.376 17.88-1.253 33.938-1.253 33.938l-12.088-9.57" class="cls-4" transform="translate(-334.809 436.207)"/>
                <path id="path54" d="M457.052-369.3l.168.187-5.91 21.878 12.708-6.185v.471l-12.851 6.255-1.706 6.313-.36-.285 3.4-12.585-5.39-6.17c.066-.137.132-.275.2-.412l5.322 6.092 4.176-15.456c.082-.034.163-.069.246-.1" class="cls-5" transform="translate(-346.509 436.207)"/>
                <path id="path56" d="M442.438-297.774s15.42-11.406 27.64-5.678c1.165 16.188-16.691 20.232-16.691 20.232l-16.527-2.862 5.578-11.691" class="cls-6" transform="translate(-338.566 386.422)"/>
                <path id="path58" d="M455.117-300.078l-.833 8.464 15.5-8.107c.1.044.195.085.292.13 0 .064.006.126.01.189l-8.3 4.342 7.375 2.836c-.025.071-.052.14-.078.21l-.071.185-7.724-2.97-13.837 7.235 12.785 5.39c-.156.09-.311.178-.465.262l-12.8-5.4-9.826 5.138-.279-.048.179-.376 16.8-8.783.843-8.569q.218-.066.437-.129" class="cls-3" transform="translate(-338.566 382.56)"/>
                <path id="path60" d="M403.582-231.932s16.006-.31 20.09 9.636c-12.871 17.786-36.4 2.669-36.4 2.669l16.314-12.305" class="cls-7" transform="translate(-300.133 329.748)"/>
                <path id="path62" d="M443.016-213.014c-.049.069-.1.135-.15.2l-21.645-1.25 6.823 9.629q-.247.02-.493.035l-6.869-9.7-8.454-.488.521-.393 16.459.95 6.731-5.933.41.2-6.542 5.767 13.113.758c.031.072.064.143.094.217" class="cls-3" transform="translate(-319.477 320.466)"/>
                <path id="path64" fill="#f6f6f6" d="M218.743-159.382c-4.176-1.553-76.932 0-76.932 0-3.735 0-7.165 4.177-7.165 7.912s3.43 7.912 7.165 7.912c0 0 71.137 2.989 76.969.086a46.408 46.408 0 0 1-.037-15.91" transform="translate(-104.351 274.055)"/>
                <path id="path66" d="M223.782-150.194H141.7v-.374h82.079v.374" class="cls-9" transform="translate(-109.819 266.69)"/>
                <path id="path68" d="M218.969-140.061H135.66v.373h83.223c.023-.128.054-.251.087-.373" class="cls-9" transform="translate(-105.136 258.547)"/>
                <path id="path70" d="M215.179-124.749H131v-.374h84.174v.374" class="cls-9" transform="translate(-101.528 246.97)"/>
                <path id="path72" d="M215.179-117.279H131v-.373h84.174v.373" class="cls-9" transform="translate(-101.528 241.181)"/>
                <path id="path74" d="M218.166-105.619h-83.61v.373h83.664c-.023-.125-.042-.249-.054-.373" class="cls-9" transform="translate(-104.281 231.855)"/>
                <path id="path76" d="M226.162-91.1h-81.818c.083.121.161.246.233.373h81.66c-.031-.124-.054-.248-.075-.373" class="cls-9" transform="translate(-111.866 220.6)"/>
                <path id="path78" d="M135.381-146.528c-3.735 0-7.165-4.177-7.165-7.912s3.43-7.912 7.165-7.912c0 0 72.467-1.546 76.9-.009.187-.973.333-1.543.333-1.543h-76.8a9.492 9.492 0 0 0-9.465 9.464 9.492 9.492 0 0 0 9.465 9.465s73.069 1.685 76.8 0c0-.143-.119-.667-.279-1.463-5.9 2.9-76.958-.09-76.958-.09" class="cls-10" transform="translate(-97.921 277.026)"/>
                <path id="path80" d="M220.661-236.81h-65.369a5.109 5.109 0 0 1-5.092-5.09v-11.359a5.109 5.109 0 0 1 5.094-5.094h65.369a5.109 5.109 0 0 1 5.094 5.094v11.359a5.109 5.109 0 0 1-5.094 5.094" class="cls-11" transform="translate(-116.404 350.226)"/>
                <path id="path82" d="M340.886-256.307c-4.051 10.545.45 21.089.45 21.089h9.278s-3.393-12.051.554-21.089h-10.282" class="cls-10" transform="translate(-262.876 348.638)"/>
                <path id="path84" d="M297.015-322.175s-3.158-4.246-3.158-8.839a14.763 14.763 0 0 1 2.983-8.289v-.328h-41.677c-5.067 0-9.213 3.7-9.213 8.218v1.452c0 4.52 4.146 8.217 9.213 8.217h41.677l.176-.109v-.323" class="cls-3" transform="translate(-190.611 413.213)"/>
                <g id="g86" transform="translate(55.339 73.583)">
                    <g id="g88" clip-path="url(#clip-path)">
                        <path id="path94" d="M379.108-330.8h-82.079v-.373h82.079v.373" class="cls-9" transform="translate(-285.536 333.076)"/>
                        <path id="path96" d="M374.294-320.667h-83.31v.373h83.223c.023-.128.054-.251.087-.373" class="cls-9" transform="translate(-280.852 324.934)"/>
                        <path id="path98" d="M370.5-305.355h-84.17v-.374h84.17v.374" class="cls-9" transform="translate(-277.244 313.356)"/>
                        <path id="path100" d="M370.5-297.886h-84.17v-.373h84.17v.373" class="cls-9" transform="translate(-277.244 307.568)"/>
                        <path id="path102" d="M381.147-290.418h-82.08v-.373h82.08v.373" class="cls-9" transform="translate(-287.116 301.78)"/>
                        <path id="path104" d="M376.334-280.283h-83.31v.373h83.223c.023-.128.054-.251.087-.373" class="cls-9" transform="translate(-282.433 293.636)"/>
                        <path id="path106" d="M372.544-269.651H288.37v-.374h84.174v.374" class="cls-9" transform="translate(-278.825 285.686)"/>
                    </g>
                </g>
                <path id="path108" d="M348.222-343.724h17.963v-1.42H334.86v1.42H340a67.612 67.612 0 0 1-3.189 13.09c-.069.477-.149.951-.2 1.431-.03.289-.048.578-.063.866a10.963 10.963 0 0 1 1.869 1.827h-3.56v1.42h31.324v-1.42h-18.469a6.5 6.5 0 0 1-5.858-3.642 12.364 12.364 0 0 1-1.256-5.769 9.584 9.584 0 0 1 .651-3.16 7.458 7.458 0 0 1 6.972-4.643" class="cls-13" transform="translate(-259.517 417.486)"/>
                <path id="path110" d="M201.259-334.3v-1.628a9.24 9.24 0 0 1 9.213-9.213H166.25a9.24 9.24 0 0 0-9.213 9.213v1.628a9.24 9.24 0 0 0 9.213 9.213h44.222a9.24 9.24 0 0 1-9.213-9.213" class="cls-13" transform="translate(-121.704 417.486)"/>
                <path id="path112" d="M211.539-325.09h-1.974v-20.054h1.974v20.054" class="cls-3" transform="translate(-162.413 417.486)"/>
                <path id="path114" d="M226.15-325.09h-.987v-20.054h.987v20.054" class="cls-3" transform="translate(-174.502 417.486)"/>
                <path id="path116" d="M310.083-325.09h-1.974v-20.054h1.974v20.054" class="cls-3" transform="translate(-238.784 417.486)"/>
                <path id="path118" d="M324.694-325.09h-.987v-20.054h.987v20.054" class="cls-3" transform="translate(-250.873 417.486)"/>
                <path id="path120" d="M346.145-355.232s.5.688 2.842 1.286c.516.131 1.073.221 1.073 1.073h-2.315l-2.367-.409v.409H344.1s-.356-2.091.391-2.359h1.654" class="cls-4" transform="translate(-266.612 425.305)"/>
                <path id="path122" d="M347.9-361.906l-.121 1.5a1.446 1.446 0 0 1-1.566.052l-.088-.052v-1.5h1.775" class="cls-14" transform="translate(-268.249 430.477)"/>
                <path id="path124" d="M306.533-355.232s.5.688 2.842 1.286c.516.131 1.073.221 1.073 1.073h-2.315l-2.367-.409v.409h-1.278s-.356-2.091.391-2.359h1.654" class="cls-4" transform="translate(-235.912 425.305)"/>
                <path id="path126" d="M308.292-361.906l-.121 1.5a1.447 1.447 0 0 1-1.566.052l-.088-.052v-1.5h1.775" class="cls-14" transform="translate(-237.55 430.477)"/>
                <path id="path128" d="M338.52-476.84v26.248h-2.567l-2.54-26.248h5.107" class="cls-4" transform="translate(-258.395 519.551)"/>
                <path id="path130" d="M313.795-476.867a67.91 67.91 0 0 1-2.435 12.384c-1.7 4.952-4.315 13.87-4.315 13.87H304.4s3.668-18.6 2.829-26.254h6.563" class="cls-15" transform="translate(-235.912 519.572)"/>
                <g id="g132" transform="translate(78.626 27.88)">
                    <g id="g134" clip-path="url(#clip-path-2)">
                        <path id="path146" fill="url(#linear-gradient)" d="M350.618-542.753s2.615 6.1 3.279 6.1c.531 0-.2-4.98-.2-4.98h2.19s2.754 8.535.564 10.095-7-4.414-7-4.414l1.168-6.8" transform="translate(-349.45 542.753)"/>
                    </g>
                </g>
                <path id="path148" d="M319.985-473.885l.792 1.959c.382.77 1.784.789 2.716.545a.194.194 0 0 0 .091-.318 26.933 26.933 0 0 0-2.3-2.32l-1.3.133" class="cls-14" transform="translate(-247.988 517.364)"/>
                <g id="g150" transform="translate(71.99 26.596)">
                    <g id="g152" clip-path="url(#clip-path-3)">
                        <path id="path164" fill="url(#linear-gradient-2)" d="M326.59-548.435s1.366.926 1.366 1.988v14.1h-8v-13.183a3.046 3.046 0 0 1 3.028-2.93c2.864 0 3.608.025 3.608.025" transform="translate(-319.954 548.46)"/>
                    </g>
                </g>
                <path id="path166" d="M354.931-520.444V-533.1l.265.009v12.65h-.265" class="cls-20" transform="translate(-275.071 563.154)"/>
                <path id="path168" d="M336.9-564.293v3.682a2.25 2.25 0 0 0 1.718.841c1.106 0 1.106-.8 1.106-.8v-2.36l-1.637-.426-1.187-.939" class="cls-21" transform="translate(-261.096 587.327)"/>
                <path id="path170" d="M339.76-575.776a1.369 1.369 0 0 0 .821-.214c.982-1.565-.137-5.785-.137-5.785l-3.564.639-.113 2.827a2.375 2.375 0 0 0 .89 1.951 3.809 3.809 0 0 0 2.1.581" class="cls-14" transform="translate(-260.993 600.875)"/>
                <path id="path172" d="M335.959-584.2a7.618 7.618 0 0 0 2.428 0c1.245-.221.448-1.593.448-1.593a4.9 4.9 0 0 1-2.558.178c-1.1-.163-1.4-.378-2.11 0-.962.513-.73 2.253-.73 2.253l.531 3.68h.2s.049-2.188.049-2.933c.208-.339.434-.339.607-.255a.557.557 0 0 1 .3.506v3.821s2.434 1.049 3.053.859.205-3.022.205-3.022a1.137 1.137 0 0 0-1.267.31c-.548.614-1.213-.025-1.213-.025l.063-3.781" class="cls-4" transform="translate(-258.394 604.014)"/>
                <path id="path174" d="M365.983-547.474l-.077-.421a3.5 3.5 0 0 0-1.958-2.393h-.93l.288 1.986 1.312.828h1.364" class="cls-14" transform="translate(-281.34 576.473)"/>
                <path id="path176" d="M336.889-573.121a.622.622 0 0 1 .587.585.536.536 0 0 1-.4.667.622.622 0 0 1-.587-.585.536.536 0 0 1 .4-.667" class="cls-14" transform="translate(-260.769 594.169)"/>
                <path id="path178" d="M361.659-544.832l1.811 1.048s-1.136-.011-1.155 0l-1.917-1.6s.139-.28.574-.043a2.2 2.2 0 0 1 .687.6" class="cls-14" transform="translate(-279.308 572.783)"/>
                <g id="g180" transform="translate(68.317 27.479)">
                    <g id="g182" clip-path="url(#clip-path-4)">
                        <path id="path194" fill="url(#linear-gradient-3)" d="M308.156-544.539s-4.524 5.026-4.524 8.039 3.673 8.322 3.673 8.322l1.814-.531s-1.637-6.571-1.637-8.318 3.363-4.31 3.363-4.31" transform="translate(-303.631 544.539)"/>
                    </g>
                </g>
                <path id="path196" d="M320.415-526.366a67.922 67.922 0 0 0 1.645 8.288c-.092.024-.13.031-.269.068a67.655 67.655 0 0 1-1.642-8.356c0-1.792 3.276-4.31 3.415-4.416l.161.211c-.033.025-3.31 2.542-3.31 4.2" class="cls-20" transform="translate(-248.116 561.355)"/>
                <path id="path198" d="M360.426-557.158a4.8 4.8 0 0 0 .829 3.51.522.522 0 0 0 .338.188 1.331 1.331 0 0 0 .626-.1.581.581 0 0 0 .379-.271.251.251 0 0 0-.026-.262 3.558 3.558 0 0 1-.654-2.717 1.967 1.967 0 0 0-1.491-.344" class="cls-24" transform="translate(-279.288 581.819)"/>
                <path id="path200" d="M365.25-553.476a.386.386 0 0 0 .212-.2.251.251 0 0 0-.026-.262 3.558 3.558 0 0 1-.654-2.717 1.663 1.663 0 0 0-.711-.327 5.419 5.419 0 0 0 1.179 3.51" class="cls-25" transform="translate(-282.152 581.664)"/>
                <path id="path202" d="M365.3-551.81c.057.279.193.486.3.464s.152-.267.095-.545-.193-.486-.3-.464-.152.266-.095.545" class="cls-24" transform="translate(-283.087 578.076)"/>
                <path id="path204" d="M365.711-552.407l.116-.027-.009.058-.077.03-.03-.061" class="cls-24" transform="translate(-283.426 578.137)"/>
                <path id="path206" fill="#ee2662" d="M366.548-548.034l.14-.027-.159-.023z" transform="translate(-284.059 574.765)"/>
                <path id="path208" d="M365.715-551.9c.057.279.192.486.3.464s.152-.267.094-.545-.192-.486-.3-.464-.152.267-.095.545" class="cls-7" transform="translate(-283.409 578.142)"/>
                <path id="path210" d="M355.138-564.355h-.214a.731.731 0 0 0-.746.71v.564a.731.731 0 0 0 .746.71h.214v-1.984" class="cls-7" transform="translate(-274.488 587.375)"/>
                <path id="path212" d="M382.139-571.473c0 1.539-.354 2.787-.791 2.787s-.79-1.248-.79-2.787.354-2.787.79-2.787.791 1.248.791 2.787" class="cls-4" transform="translate(-294.932 595.051)"/>
                <path id="path214" d="M379.57-566.437l.625.406v.9l-.644.584-.223-1.172.242-.72" class="cls-3" transform="translate(-293.979 588.989)"/>
                <path id="path216" d="M362.99-571.153a4.53 4.53 0 0 1 .589-2.693 12.74 12.74 0 0 1-5.688 2.156v1.967s4.151-.233 5.688 1.266a4.523 4.523 0 0 1-.59-2.693" class="cls-25" transform="translate(-277.364 594.732)"/>
                <path id="path218" d="M382.971-564.2c0 .25-.038.453-.085.453s-.086-.2-.086-.453.038-.453.086-.453.085.2.085.453" class="cls-7" transform="translate(-296.67 587.602)"/>
                <path id="path220" d="M365.21-548.776a2.136 2.136 0 0 1-1.012.165c-.527 0-.764-.647-.854-1-.032-.124-.06-.3.1-.379l.846-.117.924 1.331" class="cls-14" transform="translate(-281.572 576.332)"/>
                <path id="path222" d="M387.211-316.124a1.927 1.927 0 0 1 .083 1.374l-.251 1.783-.306.206-1.14.471a1.226 1.226 0 0 0 0-.714l-.5-1.844s-.779-3.112 1.334-2.979c-.011-2.535.7-2.116.7-2.116l.049 2.191.036 1.628" class="cls-14" transform="translate(-298.341 397.976)"/>
                <path id="path224" d="M394.011-286.482s-1.477 5.637-2.737 5.738-2.57-8.93-2.57-8.93l-1.713.207s-.666 12.987 3.177 13.223 4.35-2.635 4.35-2.635l-.507-7.6" class="cls-7" transform="translate(-299.884 374.497)"/>
                <path id="path226" d="M418.5-271.069h10.053v-15.268c-2.872-4.383-6.451-3.189-6.451-3.189s-3.254.059-3.762 3.044c0 2.161.16 15.413.16 15.413" class="cls-27" transform="translate(-324.215 374.497)"/>
                <path id="path228" d="M431.676-298.027l.149 2.158-.071.067a1.872 1.872 0 0 1-2.543.036l-.034-1.624 2.5-.638" class="cls-21" transform="translate(-332.612 380.971)"/>
                <path id="path230" d="M425.815-318.07l-.182 3.568a.551.551 0 0 0-.5.7.665.665 0 0 0-.06.263 4.092 4.092 0 0 1-3.179.74c-2.258-.432-.9-4.8-.9-4.8l4.811-.475" class="cls-14" transform="translate(-325.962 396.504)"/>
                <path id="path232" d="M422.655-324.671a2.19 2.19 0 0 1 .572-.988c1.278-1.106.135-1.912-.271-2.173-.449-.288-.361-1.1-.941-1.556-.887-.694-1.742.025-2.31-.08s-.921-.861-1.747-.46-.735 1.049-1 1.322-.751-.482-1.556.381c-1.225 1.314 1.178 1.876 1.178 1.876a4.359 4.359 0 0 0 3.056-.139.572.572 0 0 1 .674.165c.415.568.42 3.545.42 3.545l.581-.483a1.614 1.614 0 0 0 1.343-1.409" class="cls-4" transform="translate(-321.667 405.785)"/>
                <path id="path234" d="M439.182-307.463a.548.548 0 0 1-.715.3.548.548 0 0 1-.3-.715.548.548 0 0 1 .715-.3.548.548 0 0 1 .3.715" class="cls-14" transform="translate(-339.548 388.869)"/>
                <path id="path236" d="M413.822-79.04s-.567.784-3.237 1.464c-.588.15-1.222.252-1.222 1.222H412l2.7-.466v.466h1.456s.405-2.381-.445-2.687h-1.883" class="cls-4" transform="translate(-317.256 211.256)"/>
                <path id="path238" d="M428.566-86.64l.139 1.71a1.646 1.646 0 0 0 1.783.06l.1-.06v-1.71h-2.022" class="cls-14" transform="translate(-332.138 217.146)"/>
                <path id="path240" d="M447.106-79.04s-.567.784-3.237 1.464c-.588.15-1.222.252-1.222 1.222h2.636l2.7-.466v.466h1.456s.405-2.381-.445-2.687h-1.883" class="cls-4" transform="translate(-343.051 211.256)"/>
                <path id="path242" d="M461.85-86.64l.138 1.71a1.646 1.646 0 0 0 1.783.06l.1-.06v-1.71h-2.021" class="cls-14" transform="translate(-357.933 217.146)"/>
                <path id="path244" d="M429.622-274.842s3.013 6.954-.832 10.506a12.433 12.433 0 0 1-9.063 2.948v-2s4.717-.4 6.229-3.553a5.919 5.919 0 0 0-.6-5.883" class="cls-27" transform="translate(-325.288 363.002)"/>
                <path id="path246" d="M406.634-225.9l-2.406.05c-.977-.054-1.627-1.513-1.789-2.6a.22.22 0 0 1 .291-.238 30.659 30.659 0 0 1 3.46 1.364l.444 1.421" class="cls-14" transform="translate(-311.888 327.245)"/>
                <path id="path248" d="M415.6-206.985c-3 8.465 1.688 27.21 1.688 27.21h2.671s-1.26-26.58 2.217-27.21H415.6" class="cls-4" transform="translate(-321.316 310.413)"/>
                <path id="path250" d="M425.646-249.087a5.411 5.411 0 0 1-.537 2.1c-1.512 3.154-6.475 3.572-6.475 3.572v2.023s5.465.566 9.309-2.987a6.513 6.513 0 0 0 1.945-4.711h-4.243" class="cls-7" transform="translate(-324.442 343.043)"/>
                <path id="path252" fill="#f57c1b" d="M445.835-262.38c.106-.047.211-.093.316-.143a6.459 6.459 0 0 0-1.2-4.109l-.237.188a6.1 6.1 0 0 1 1.12 4.065" transform="translate(-344.654 356.64)"/>
                <path id="path254" d="M392.658-308.313s.555-.167.641-1.178.565-.7.565-.7-.249 3.989-.885 4.139-.322-2.262-.322-2.262" class="cls-14" transform="translate(-304.25 390.432)"/>
                <path id="path256" d="M431.954-206.985c-.816 10.38 5.812 27.21 5.812 27.21h3.174a125.962 125.962 0 0 1-2.2-20.862 53.918 53.918 0 0 1 .312-6.348h-7.1" class="cls-10" transform="translate(-334.71 310.413)"/>
                <path id="path308" d="M566.991-276.188l3.256 2.076 1.374-2.862-4.207-4.822-.423 5.608" class="cls-11" transform="translate(-439.417 368.392)"/>
                <path id="path310" d="M490.609-345.3l3.986 10.417 2.546-1.895-5.688-9.589-.844 1.067" class="cls-14" transform="translate(-380.222 418.431)"/>
                <path id="path312" d="M482.856-367.252a1.642 1.642 0 0 1 .587 1.015l.489 1.454-.155.274-.689.793a1.046 1.046 0 0 0-.272-.544l-1.084-1.214s-1.779-2.074-.119-2.778c-.974-1.927-.277-1.878-.277-1.878l.872 1.651.648 1.227" class="cls-14" transform="translate(-372.7 436.851)"/>
                <path id="path314" d="M488.232-362.162s.359-.338.039-1.142.164-.748.164-.748 1.331 3.134.9 3.491-1.107-1.6-1.107-1.6" class="cls-14" transform="translate(-378.325 432.141)"/>
                <path id="path316" d="M515.767-301.771l-1.194.093-4.056-4.728-2.19 2.494a66.214 66.214 0 0 0 4.95 7.722c.167.8 1.039 8.836 1.039 8.836h7.032s-1.12-5.9.859-9.179-6.439-5.238-6.439-5.238" class="cls-11" transform="translate(-393.953 387.464)"/>
                <path id="path318" d="M554.562-148.55l-.038 16.3a4.391 4.391 0 0 0-1.061 0s-1.56-8.568-1.9-12.432 0-4.121 0-4.121l3 .258" class="cls-14" transform="translate(-427.339 265.326)"/>
                <path id="path320" d="M539.386-148.55l-.038 16.3a4.391 4.391 0 0 0-1.061 0s-1.56-8.568-1.9-12.432 0-4.121 0-4.121l3 .258" class="cls-14" transform="translate(-415.577 265.326)"/>
                <path id="path322" d="M535.33-321.859l4.268 1.494-.421 3.186c-.006.045-.018.089-.026.133-.082.015-.164.03-.246.05l-.039.011-.039.008a2.922 2.922 0 0 0-2 2 5.037 5.037 0 0 1-1.847-.024 1.853 1.853 0 0 1-.97-.418c-.9-1.965 1.316-6.438 1.316-6.438" class="cls-14" transform="translate(-413.694 399.441)"/>
                <path id="path324" d="M538.427-323.865a2.81 2.81 0 0 1 .088 2.453 4.123 4.123 0 0 0-.143 3.363 4.485 4.485 0 0 0 1.563 1.411 2.413 2.413 0 0 1 1.133 1.827c.1 1.036.194 2.309 1.081 2.614 2.576.887 3.521.8 3.864-1.345a4.366 4.366 0 0 0-.223-2.1 3.763 3.763 0 0 1 .08-2.819 4.912 4.912 0 0 0 .486-1.683 3.549 3.549 0 0 0-.913-1.755 3.608 3.608 0 0 1-.758-2.586 3.318 3.318 0 0 0-.99-2.922c-1.76-1.5-5.667.862-5.667.862a3.769 3.769 0 0 0 .4 2.683" class="cls-4" transform="translate(-416.901 404.129)"/>
                <path id="path326" d="M570.734-260.366l1.564 1.619c1.039 1.075 1.36 2.573.112 3.4l-5.11 4.059.47.88a2.144 2.144 0 0 1-.187 2.312l-.54.707-1.2-4.1 3.705-4.626a.888.888 0 0 0-.191-1.381l1.374-2.862" class="cls-14" transform="translate(-438.531 351.784)"/>
                <path id="path328" d="M531.395-221.733a17.16 17.16 0 0 0-1.03 5.379c0 1.487 1.288 12.7 1.288 12.7h6.7c-.454-8.283 2.057-9.3 2.057-12.879 0-2.526-1.978-5.2-1.978-5.2H531.4" class="cls-10" transform="translate(-411.032 321.843)"/>
                <path id="path330" d="M547.821-80.774a1.239 1.239 0 0 1 .478 1.047c-.107.587-.259 1.96-.259 1.96h-.6l.019-1.281c0-.084-1.291 1.281-1.509 1.281h-3.185s-.212-.864 1.659-1.142a6.9 6.9 0 0 0 3.4-1.865" class="cls-4" transform="translate(-420.635 212.6)"/>
                <path id="path332" d="M532.7-80.774a1.239 1.239 0 0 1 .478 1.047c-.107.587-.259 1.96-.259 1.96h-.6l.019-1.281c0-.084-1.291 1.281-1.509 1.281h-3.185s-.212-.864 1.659-1.142a6.9 6.9 0 0 0 3.4-1.865" class="cls-15" transform="translate(-408.917 212.6)"/>
                <path id="path334" d="M222-294.6l5.18-3.493 1.671 2.582-5.009 6.733-1.175-.274c-2.037-.475-2.274-4.211-.667-5.549" class="cls-7" transform="translate(-171.23 381.023)"/>
                <path id="path336" d="M278.668-340.252l-3.863 10.093-2.467-1.835 5.511-9.291.818 1.034" class="cls-29" transform="translate(-211.063 414.496)"/>
                <path id="path338" d="M297.876-361.526a1.59 1.59 0 0 0-.569.984l-.473 1.409.15.265.668.769a1.016 1.016 0 0 1 .263-.527l1.051-1.176s1.724-2.01.115-2.692c.944-1.867.268-1.819.268-1.819l-.845 1.6-.628 1.189" class="cls-29" transform="translate(-230.046 432.343)"/>
                <path id="path340" d="M298.563-356.594s-.348-.328-.038-1.107-.159-.724-.159-.724-1.29 3.037-.875 3.383 1.073-1.551 1.073-1.551" class="cls-29" transform="translate(-230.491 427.78)"/>
                <path id="path342" d="M240.048-367.35a1.592 1.592 0 0 1-.175 1.123l-.517 1.394-.283.112-1 .179a1.013 1.013 0 0 0 .126-.576l-.079-1.576s-.807-1.38 1.284-1.744a.488.488 0 0 1 .514.222 1.248 1.248 0 0 1 .133.866" class="cls-29" transform="translate(-184.423 435.545)"/>
                <path id="path344" d="M243.39-367.568s.427.325.725-.459c.428-1.126.957-.843.957-.843s-.9 3.173-1.443 3.182-.239-1.881-.239-1.881" class="cls-29" transform="translate(-188.563 435.898)"/>
                <path id="path346" d="M230.463-355.415l-2.536 10.5 3.072-.115.723-10.779-1.259.388" class="cls-29" transform="translate(-176.644 425.747)"/>
                <path id="path348" d="M229.671-298.082l1.156.09 3.93-4.581 2.122 2.416a64.139 64.139 0 0 1-4.8 7.482c-.162.774-1.006 9.318-1.006 9.318l-7.571-.758a39.938 39.938 0 0 0-.075-9.272c-.532-3.674 6.239-4.7 6.239-4.7" class="cls-7" transform="translate(-173.136 384.494)"/>
                <path id="path350" d="M227.97-149.629l.036 15.789a4.257 4.257 0 0 1 1.028 0s1.511-8.3 1.846-12.045 0-3.993 0-3.993l-2.91.25" class="cls-29" transform="translate(-176.677 266.156)"/>
                <path id="path352" d="M242.674-149.629l.036 15.789a4.257 4.257 0 0 1 1.028 0s1.511-8.3 1.846-12.045 0-3.993 0-3.993l-2.91.25" class="cls-29" transform="translate(-188.072 266.156)"/>
                <path id="path354" d="M237.787-317.545l-4.135 1.448.408 3.087c.006.044.017.086.025.129.079.014.159.029.238.049l.038.011.038.008a2.832 2.832 0 0 1 1.933 1.935 4.881 4.881 0 0 0 1.79-.023 1.792 1.792 0 0 0 .94-.405c.873-1.9-1.275-6.237-1.275-6.237" class="cls-14" transform="translate(-181.08 396.097)"/>
                <path id="path356" d="M228.845-318.434c-1.529.748 1.735 3.147.653 5.289-.623.388-5.26 1.336-7.262.2.645-.528 1.29-.977.747-3.845-.168-.888-.165-3.376 1.338-4.724 1.669-1.5 5.112.456 5.112.456s.941 1.879-.588 2.627" class="cls-4" transform="translate(-172.233 399.614)"/>
                <path id="path358" d="M227.443-237.362a90.133 90.133 0 0 1 1 9c0 1.441-1.248 12.308-1.248 12.308h-6.487c.439-8.026-1.994-9.01-1.994-12.479a17.589 17.589 0 0 1 1.538-5.8l7.192-3.029" class="cls-7" transform="translate(-169.502 333.955)"/>
                <path id="path360" d="M226.491-83.961a1.2 1.2 0 0 0-.463 1.014c.1.568.251 1.9.251 1.9h.583l-.018-1.241c0-.081 1.251 1.241 1.462 1.241h3.086s.2-.837-1.607-1.106a6.684 6.684 0 0 1-3.295-1.807" class="cls-11" transform="translate(-175.161 215.07)"/>
                <path id="path362" d="M241.139-83.961a1.2 1.2 0 0 0-.463 1.014c.1.568.251 1.9.251 1.9h.583l-.018-1.241c0-.081 1.251 1.241 1.462 1.241h3.086s.205-.837-1.607-1.106a6.684 6.684 0 0 1-3.295-1.807" class="cls-9" transform="translate(-186.514 215.07)"/>
                <path id="path364" d="M105.528-82.1l4.457-.005c.592.062 1.253.23 1.364.743a2.986 2.986 0 0 1 .064.679c-.158.185-6.067-.025-6.067-.025l-.026-.021a.937.937 0 0 1 .208-1.371" class="cls-15" transform="translate(-81.442 213.629)"/>
                <path id="path366" d="M112.3-75.866l-6.067-.025.052.236h6.023l-.009-.211" class="cls-9" transform="translate(-82.333 208.815)"/>
                <path id="path368" d="M114.5-82.1h.4l-.125.546h-.389l.113-.549" class="cls-3" transform="translate(-88.648 213.629)"/>
                <path id="path370" d="M118.322-82.1h.4l-.125.546h-.389l.113-.549" class="cls-3" transform="translate(-91.612 213.629)"/>
                <path id="path372" d="M105.687-88.676l.306 1.484a1.445 1.445 0 0 0 1.195.028l.068-.03.215-1.483h-1.783" class="cls-14" transform="translate(-81.908 218.724)"/>
                <path id="path374" d="M59.234-82.1l4.457-.005c.592.062 1.253.23 1.364.743a2.993 2.993 0 0 1 .064.679c-.158.185-6.067-.025-6.067-.025l-.026-.021a.937.937 0 0 1 .208-1.371" class="cls-4" transform="translate(-45.565 213.629)"/>
                <path id="path376" d="M66.01-75.866l-6.067-.025.052.236h6.023l-.009-.211" class="cls-9" transform="translate(-46.456 208.815)"/>
                <path id="path378" d="M68.2-82.1h.4l-.125.546h-.389l.114-.546" class="cls-3" transform="translate(-52.771 213.629)"/>
                <path id="path380" d="M72.029-82.1h.4l-.125.546h-.389l.113-.549" class="cls-3" transform="translate(-55.735 213.629)"/>
                <path id="path382" d="M60.946-88.676l-.193 1.484a1.445 1.445 0 0 0 1.195.028l.068-.03.714-1.483h-1.784" class="cls-14" transform="translate(-47.083 218.724)"/>
                <path id="path384" d="M78.53-310.546l-3.67 2.393 1.133 2.9c.016.041.037.079.056.119.081-.005.161-.01.243-.01h.078a2.831 2.831 0 0 1 2.339 1.418 4.882 4.882 0 0 0 1.733-.45 1.8 1.8 0 0 0 .816-.618c.393-2.057-2.727-5.753-2.727-5.753" class="cls-14" transform="translate(-58.016 390.673)"/>
                <path id="path386" d="M110.351-309.8s.449 4.26-.455 6.972c.42.365 1.962 2.018 2.447-.125s-.544-7.6-.544-7.6l-1.448.75" class="cls-14" transform="translate(-85.169 390.673)"/>
                <path id="path388" d="M99.159-308.551L98.3-308l.308.645.926-.409-.371-.792" class="cls-4" transform="translate(-76.179 389.127)"/>
                <path id="path390" d="M98.65-306.139c.086.2.093.385.014.419s-.213-.1-.3-.294-.093-.385-.014-.42.213.1.3.294" class="cls-4" transform="translate(-76.179 387.49)"/>
                <path id="path392" d="M112.1-332.274v-.024a8.635 8.635 0 0 0-.835-1.5 7.524 7.524 0 0 1-.8-1.31l-8.917 5.836.577 1.09 9.974-3.686a2.745 2.745 0 0 1 0-.406" class="cls-10" transform="translate(-78.699 409.708)"/>
                <path id="path394" d="M86.468-281.78l-.321 2h2.837l.2-2.454-2.721.451" class="cls-21" transform="translate(-66.764 368.729)"/>
                <path id="path396" d="M116.438-308.909s3.351-1.067 4.4-2.5-.727-9.289-.727-9.289l.23-1.413a1.316 1.316 0 0 0-1.287-1.527l-.9-.008a.512.512 0 0 0-.473.72l1.178 2.65s.884 5.949-.354 6.4a13.95 13.95 0 0 1-3.147.652l1.075 4.317" class="cls-14" transform="translate(-89.407 400.828)"/>
                <path id="path398" d="M77.515-307.714l-.862-1.912.56-.352a1.054 1.054 0 0 0 .437-1.232l-.614-1.8s1.746-.214 1.694-1.841c0-.838-1.153-.842-1.153-.842a1.676 1.676 0 0 1-1.414.838 2.781 2.781 0 0 0-2.57 1.6 4.586 4.586 0 0 0 .177 3.736 3.408 3.408 0 0 0 2.714 1.812h1.031" class="cls-15" transform="translate(-56.78 394.664)"/>
                <path id="path400" d="M63.2-208.841a63.054 63.054 0 0 0 1.06 8.5 7.592 7.592 0 0 1-.26 3.902c-2 5.945-4.807 14.885-4.807 14.885h2.5s5.655-10.565 7.112-15.806 1.707-6.9 1.707-6.9l-1.734-4.576H63.2" class="cls-5" transform="translate(-45.876 311.852)"/>
                <path id="path402" d="M86.173-293.715a.812.812 0 0 0 .464.89c.359.191.733.1.836-.2a.812.812 0 0 0-.464-.89c-.359-.191-.733-.1-.836.2" class="cls-14" transform="translate(-66.764 377.862)"/>
                <path id="path404" fill="#a2debe" d="M85.148-262.352H77.01v-10.44a4.43 4.43 0 0 1 4.018-4.411l5.659-.685s.665 1.018 2.519 3.385a19.106 19.106 0 0 1-4.807 2.011l.749 10.139" transform="translate(-59.683 365.363)"/>
                <path id="path406" d="M77.01-208.841a24.281 24.281 0 0 0 5.39 8.822 5.453 5.453 0 0 1 1.583 4.239l-.875 14.226h2.532s3.085-11.813 2.42-17.637a26.725 26.725 0 0 0-2.912-9.65H77.01" class="cls-11" transform="translate(-59.683 311.852)"/>
                <path id="path408" d="M140.916-333.434c.438.908 1.032 1.529 1.326 1.387s.179-.993-.258-1.9-1.032-1.529-1.327-1.387-.179.994.259 1.9" class="cls-3" transform="translate(-108.883 409.901)"/>
                <path id="path410" d="M110.356-319.317l.075.036a1.136 1.136 0 0 0 .849.053l.05-.017a1.515 1.515 0 0 0 .965-.978.281.281 0 0 0-.326-.36l-.564.118a.85.85 0 0 0-.535.365l-.515.783" class="cls-14" transform="translate(-85.526 398.457)"/>
            </g>
        </g>
    </g>
</svg>
