<?xml version="1.0" encoding="UTF-8"?>
<svg width="19px" height="16px" viewBox="0 0 19 16" version="1.1" xmlns="http://www.w3.org/2000/svg" xmlns:xlink="http://www.w3.org/1999/xlink">
    <title>Like_Default@2x</title>
    <g id="All-Post" stroke="none" stroke-width="1" fill="none" fill-rule="evenodd">
        <path d="M14.34,0.5 C15.4730633,0.5 16.4774046,0.927874886 17.1959878,1.64645808 C17.9109972,2.36146752 18.34,3.36153538 18.34,4.5 C18.34,7.20296483 15.9515725,9.38404728 12.5121915,12.6894242 C11.6806985,13.4885208 10.7850453,14.349319 9.83971695,15.291863 C8.89470886,14.3490827 7.99918736,13.4884111 7.16780855,12.6894242 C3.72842746,9.38404728 1.34,7.20296483 1.34,4.5 C1.34,3.36153538 1.76900279,2.36146752 2.48401223,1.64645808 C3.20259543,0.927874886 4.2069367,0.5 5.34,0.5 C6.21464702,0.5 7.07150368,0.785000936 7.78606797,1.26137713 C8.49980621,1.73720262 9.07379414,2.40517683 9.37367503,3.1803913 L9.37367503,3.1803913 L9.84,4.38587615 L10.306325,3.1803913 C10.6062838,2.40497528 11.1800098,1.73682359 11.8937921,1.26096876 C12.6080282,0.784811373 13.464686,0.5 14.34,0.5 Z" id="Like_Default" stroke="#7D8D9F"></path>
    </g>
</svg>