<svg xmlns="http://www.w3.org/2000/svg" width="668.598" height="211" viewBox="0 0 668.598 211">
    <defs>
        <linearGradient id="linear-gradient" x1=".5" x2=".5" y2="1" gradientUnits="objectBoundingBox">
            <stop offset="0" stop-color="#36d1dc"/>
            <stop offset="1" stop-color="#5b86e5"/>
        </linearGradient>
        <style>
            .cls-2,.cls-3,.cls-4,.cls-5{fill-rule:evenodd}.cls-2{fill:#ff85b2}.cls-3{fill:#94d0da}.cls-4{fill:#ffd100}.cls-5{fill:#f2699f}.cls-6{fill:#8dc79d}.cls-10{fill:#ebebeb}.cls-12{fill:#fbb540}.cls-16{fill:#fff}.cls-18{fill:#333e48}
        </style>
    </defs>
    <g id="Group_3281" transform="translate(-21.402 -41)">
        <path id="Path_3246" fill="url(#linear-gradient)" fill-rule="evenodd" d="M654.995.5a3.511 3.511 0 0 1 3.505 3.517v196.966a3.511 3.511 0 0 1-3.505 3.517H4.005A3.511 3.511 0 0 1 .5 200.983V4.017A3.511 3.511 0 0 1 4.005.5h650.99z" transform="translate(31.5 47.5)"/>
        <g id="Group_3287">
            <path id="Fill-33" d="M4.478 6.748A5.5 5.5 0 0 1 .069 4.654a7.167 7.167 0 0 0 1.91.229 11.142 11.142 0 0 0 3.4-.622c1.469-.487 3.03-1.981 4.6-4.11a5.283 5.283 0 0 1 .111 1.131 5.614 5.614 0 0 1-5.612 5.466" class="cls-2" transform="rotate(-61 513.418 -445.973)"/>
            <path id="Fill-34" d="M4.476 11.529a5.619 5.619 0 0 1-4.333-1.95c1.569-2.909 3.1-6.2 4.506-9.508a5.6 5.6 0 0 1 5.532 4.641C8.94 6.87 7.64 9.065 6.315 11.211a5.864 5.864 0 0 1-1.839.318" class="cls-2" transform="rotate(-61 494.26 -449.935)"/>
            <path id="Fill-37" d="M.48 26.781a33.6 33.6 0 0 1 5.12-12.56c2.425-3.577 5.871-6.562 10.516-5.721 2.077.375 3.823 1.6 3.848 3.808.024 2.1-1.712 3.521-3.742 2.489-4.02-2.045-2.543-7.344.083-9.863C20.08 1.31 25.49.768 30.182 2.573c.374.145.581-.42.271-.613C25.889-.861 19.656.291 15.72 3.8c-3.334 2.974-4.871 8.631-.792 11.632 3.789 2.788 7.714-1.475 5.715-5.275C18.6 6.269 12.193 6.791 9.09 9.136 3.626 13.264 1.312 20.444.4 26.772l.081.01" class="cls-3" transform="rotate(-61 446.25 -435.028)"/>
            <path id="Fill-38" d="M.22 12.841C.309 8.548 1.805 3.774 6.481 2.328c3.375-1.043 7.029 1.034 9.343 3.226 2.212 2.095 4.082 4.908 2.9 8.005a5.766 5.766 0 0 1-2.6 3.275c-2.188.959-4.329-1.519-5.31-3.1-1.924-3.109-1.278-6.3 1.244-8.95 1.908-2 5.116-4.035 8.025-3.432 5.767 1.2 9.332 6.445 10.141 11.838.806 5.364-.49 10.669-1.356 15.963a.413.413 0 0 0 .8.208c1.834-5.77 2.875-12.421 1.393-18.309a14.213 14.213 0 0 0-5.089-7.982c-2.607-1.984-6-3.5-9.333-2.422A12.452 12.452 0 0 0 9.029 7.5c-1.351 3.475.42 7.4 3.313 9.536 2.93 2.159 5.731.482 7.133-2.512 1.525-3.263.325-6.148-1.939-8.69C15 2.994 10.732.441 6.683 1.469A9.121 9.121 0 0 0 1.6 5.19C.045 7.508.154 10.21.192 12.841H.22" class="cls-4" transform="rotate(-61 463.715 -390.616)"/>
            <path id="Fill-39" d="M2.278 40.907c3.307-6.165 4.306-13.743 4.186-20.5C6.341 13.521 4.969 6.032.864.21a.461.461 0 0 0-.807.44A46.183 46.183 0 0 1 5.386 20.7c.162 6.95-1.425 13.446-3.186 20.177l.079.03" class="cls-5" transform="rotate(-61 438.127 -412.133)"/>
            <path id="Fill-40" d="M.743 44.5C2.01 39.42 2.923 34.275 4.3 29.221c1.533-5.618 3.421-11.568 7.116-16.3 3.048-3.906 9.926-6.394 14.536-3.679 5.387 3.174-.613 10.371-5.584 9.394-3.133-.615-6.158-3.414-7.568-6.055-2-3.737-1.134-8.005.571-11.747.221-.484-.487-.908-.751-.416-1.774 3.312-2.78 7.038-1.691 10.67a12.963 12.963 0 0 0 5.7 7.05c2.626 1.663 5.626 2.337 8.467.594 1.973-1.212 3.913-3.506 4.15-5.807.233-2.252-1.657-4.167-3.667-4.988a12.765 12.765 0 0 0-8.293-.055c-6.582 1.99-9.5 8.463-11.584 14.231A107.431 107.431 0 0 0 .663 44.488l.08.01" class="cls-5" transform="rotate(-61 431.94 -418.717)"/>
            <path id="Path" d="M18.152 13.143l.057-5.343-9.128-6.666A5.236 5.236 0 0 0 3.9.531 6.621 6.621 0 0 0 .342 8.295l.142.533a5.669 5.669 0 0 0 5.438 4.447z" class="cls-6" transform="rotate(-45 542.52 -631.551)"/>
            <path id="Path-2" d="M.24 13.531L.3 8.184l9.273-6.86a5.313 5.313 0 0 1 5.2-.714 6.356 6.356 0 0 1 3.386 7.69l-.153.536a5.987 5.987 0 0 1-5.535 4.564z" class="cls-6" transform="rotate(-45 530.01 -652.467)"/>
            <path id="Path-3" fill="#e06661" d="M.87 1.423L50.255.892l-.319 29.631-49.385.531z" transform="rotate(-45 574.54 -635.343)"/>
            <path id="Path-4" fill="#b6534f" d="M.119 1.41L49.5.878l-.035 3.292L.083 4.7z" transform="rotate(-45 571.202 -636.7)"/>
            <path id="Path-5" fill="#ea6b65" d="M2.525 1.566L55.873.992a2.071 2.071 0 0 1 2.111 2.094l-.114 10.583a2.181 2.181 0 0 1-2.157 2.139l-53.348.574a2.071 2.071 0 0 1-2.111-2.094L.368 3.706a2.181 2.181 0 0 1 2.157-2.14z" transform="rotate(-45 557.562 -621.763)"/>
            <path id="Path-6" d="M.85.3l9.877-.11-.319 29.631-9.877.106z" class="cls-10" transform="rotate(-45 565.756 -659.67)"/>
            <path id="Path-7" fill="#e4e4e2" d="M.1.283L9.976.177l-.035 3.292-9.878.107z" transform="rotate(-45 563.233 -662.992)"/>
            <path id="Path-8" d="M4.333 2.1a2.172 2.172 0 0 1-2.17 2.106A2.062 2.062 0 0 1 .039 2.147 2.172 2.172 0 0 1 2.209.04 2.062 2.062 0 0 1 4.333 2.1z" class="cls-12" transform="rotate(-45 574.537 -647.208)"/>
            <path id="Path-9" d="M4.333 2.1a2.172 2.172 0 0 1-2.17 2.106A2.062 2.062 0 0 1 .039 2.147 2.172 2.172 0 0 1 2.209.04 2.062 2.062 0 0 1 4.333 2.1z" class="cls-12" transform="rotate(-45 581.174 -655.92)"/>
            <path id="Path-10" d="M4.333 2.1a2.172 2.172 0 0 1-2.17 2.106A2.062 2.062 0 0 1 .039 2.147 2.172 2.172 0 0 1 2.209.04 2.062 2.062 0 0 1 4.333 2.1z" class="cls-12" transform="rotate(-45 558.014 -685.913)"/>
            <path id="Path-11" d="M4.333 2.1a2.172 2.172 0 0 1-2.17 2.106A2.062 2.062 0 0 1 .039 2.147 2.172 2.172 0 0 1 2.209.04 2.062 2.062 0 0 1 4.333 2.1z" class="cls-12" transform="rotate(-45 569.058 -684.304)"/>
            <path id="Path-12" d="M4.333 2.1a2.172 2.172 0 0 1-2.17 2.106A2.062 2.062 0 0 1 .039 2.147 2.172 2.172 0 0 1 2.209.04 2.062 2.062 0 0 1 4.333 2.1z" class="cls-12" transform="rotate(-45 582.95 -689.883)"/>
            <path id="Path-13" d="M3.3.317A2.213 2.213 0 0 0 .56.8a2.037 2.037 0 0 0-.029 2.685 2.175 2.175 0 0 0 2.726.421z" class="cls-12" transform="rotate(-45 563.008 -698.476)"/>
            <path id="Path-14" d="M.43.43L15.246.271l-.159 14.816-14.816.159z" class="cls-10" transform="rotate(-45 548.818 -649.98)"/>
            <path id="Path-15" fill="#85bc94" d="M.02 1.123c.024.082.043.157.073.235l.158.41a4.255 4.255 0 0 0 .56.993L38.7 2.352a4.477 4.477 0 0 0 .582-1l.168-.413c.032-.083.05-.159.078-.239z" transform="rotate(-45 548.387 -633.811)"/>
            <path id="Fill-19" d="M.274 21.709c.765-5.6 2.647-13.23 9.53-13.073C12.5 8.7 15.428 10.01 16.67 12.6a4.169 4.169 0 0 1-2.453 5.917c-2.563.692-5.438-1.079-7.159-2.882a6.8 6.8 0 0 1-1.107-7.757C8.534 2.56 15.209.456 20.554 1.3c6.611 1.038 12.618 5.171 16.828 10.385.176.219.541-.07.387-.307A25.439 25.439 0 0 0 20.331.212C14.361-.6 6.288 2.278 4.478 8.883a7.773 7.773 0 0 0 2.331 7.939c1.976 1.823 4.928 3.38 7.655 2.62a5.06 5.06 0 0 0 3.529-5.6 7.44 7.44 0 0 0-5.115-5.516 8.6 8.6 0 0 0-9.209 2.115A14.756 14.756 0 0 0 .172 21.7c.006.053.093.079.1.014" class="cls-4" transform="rotate(-7 1195.797 -4887.141)"/>
            <path id="Fill-20" d="M1.578 28.3a24.993 24.993 0 0 1-.592-11.47 14.707 14.707 0 0 1 1.657-5.157c1.021-1.687 3.34-3.1 5.1-1.785.861.646 1.683 2.027 1.181 3.156a2.083 2.083 0 0 1-2.623.908 5.167 5.167 0 0 1-3.437-4.183C2.421 6.4 4.573 3.225 6.036.433c.133-.255-.2-.561-.4-.322-2.009 2.475-3.978 6.044-3.723 9.421.223 2.973 3.218 6.419 6.261 5.36 3.275-1.141 1.483-5.776-1.2-6.345-3.51-.747-5.545 3.2-6.25 6.17a23.681 23.681 0 0 0 .791 13.6l.058-.017" class="cls-4" transform="rotate(-7 1011.93 -5212.51)"/>
            <path id="Fill-21" d="M.126 2.455A15.824 15.824 0 0 1 6.534 1.02a19.593 19.593 0 0 1 6.536.931c5.4 1.63 9.978 4.723 14.465 7.97.2.141.431-.168.259-.328A39.516 39.516 0 0 0 12.541.842 18.256 18.256 0 0 0 5.765.087C3.589.26 1.466.621.031 2.333a.078.078 0 0 0 .1.122" class="cls-3" transform="rotate(-7 1151.284 -4952.776)"/>
            <path id="Fill-22" d="M4.889 16.6a64.087 64.087 0 0 1-3.01-7.664A42.651 42.651 0 0 1 .749.266a.316.316 0 0 0-.624 0A22.2 22.2 0 0 0 1.174 9.11c.722 2.455 1.652 5.622 3.671 7.514l.043-.023" class="cls-3" transform="rotate(-7 1044.495 -5134.782)"/>
            <path id="Fill-23" d="M3.548 1.058l1.68-.985A.262.262 0 0 1 5.61.35l-.435 1.884a.262.262 0 0 0 .075.233l1.244 1.208a.264.264 0 0 1-.147.449l-1.724.254a.266.266 0 0 0-.2.145L3.6 6.4c-.1.349-.334.3-.43.107l-.761-1.979a.263.263 0 0 0-.2-.144L.179 4.2c-.217-.031-.2-.213-.043-.366l1.457-1.357a.266.266 0 0 0 .077-.233L1.173.315a.265.265 0 0 1 .384-.278L3.3 1.059a.266.266 0 0 0 .246 0" class="cls-4" transform="rotate(-7 1156.743 -4872.323)"/>
            <path id="Fill-44" fill="#fff" fill-rule="evenodd" d="M.1.11a.857.857 0 0 0 .211 1.052c.535.485 1 .656 1.25.34S1.394.616 1.158.3.171-.086.1.11" transform="rotate(-7 1419.313 -5250.949)"/>
            <path id="Fill-47" d="M11.467 3.568S7.8-1.719 0 .608l1.349 4.075S7.413 3.1 9.814 4.99l1.653-1.422" class="cls-4" transform="rotate(-7 1306.119 -5096.404)"/>
            <path id="Fill-48" d="M.027 5.766S-.288-.632 6.144.077l.445 2.086s-2.011 2.1-3.9 4.519L.027 5.766" class="cls-5" transform="rotate(-7 1142.79 -5301.693)"/>
            <path id="Path-16" fill="#00a8e1" d="M29.945 1.917A1.526 1.526 0 0 0 28.361.423L2.094.664A1.594 1.594 0 0 0 .483 2.188L.315 20.693A1.526 1.526 0 0 0 1.9 22.187l26.267-.241a1.6 1.6 0 0 0 1.612-1.523l.168-18.505z" transform="rotate(-29 564.172 -1160.624)"/>
            <path id="Oval" d="M2.353.036a2.325 2.325 0 0 1 2.27 2.431 2.429 2.429 0 0 1-2.315 2.474A2.325 2.325 0 0 1 .039 2.509 2.429 2.429 0 0 1 2.353.036z" class="cls-16" transform="rotate(-29 574.147 -1173.255)"/>
            <path id="Oval-2" d="M2.353.036a2.325 2.325 0 0 1 2.27 2.432 2.429 2.429 0 0 1-2.314 2.473 2.325 2.325 0 0 1-2.27-2.432A2.429 2.429 0 0 1 2.353.036z" class="cls-16" transform="rotate(-29 593.132 -1183.57)"/>
            <path id="Oval-3" d="M2.353.036a2.325 2.325 0 0 1 2.27 2.432 2.429 2.429 0 0 1-2.314 2.473 2.325 2.325 0 0 1-2.27-2.432A2.429 2.429 0 0 1 2.353.036z" class="cls-16" transform="rotate(-29 578.084 -1197.577)"/>
            <path id="Path-17" d="M0 .11a2.324 2.324 0 0 0 2.272 2.431A2.429 2.429 0 0 0 4.585.068L0 .11z" class="cls-16" transform="rotate(-29 564.978 -1186.109)"/>
            <path id="Oval-4" d="M2.353.036a2.325 2.325 0 0 1 2.27 2.431 2.429 2.429 0 0 1-2.315 2.474A2.325 2.325 0 0 1 .039 2.509 2.429 2.429 0 0 1 2.353.036z" class="cls-16" transform="rotate(-29 560.605 -1210.838)"/>
            <path id="Path-18" fill="#0071ce" d="M34.49 2.16A1.6 1.6 0 0 0 32.928.491L1.71.778a1.674 1.674 0 0 0-1.592 1.7l-.03 3.254A1.6 1.6 0 0 0 1.649 7.4l31.218-.287a1.674 1.674 0 0 0 1.592-1.7l.03-3.256z" transform="rotate(-29 561.357 -1154.994)"/>
            <path id="Shape" d="M8.088 9.783l-3.763.035A4.516 4.516 0 0 1 .077 4.981C.1 2.293 2.047.089 4.413.067A4.516 4.516 0 0 1 8.66 4.9l-.038 4.277a.58.58 0 0 1-.534.606zM4.4 1.268a3.557 3.557 0 0 0-3.268 3.7 3.4 3.4 0 0 0 3.2 3.645l3.235-.03.033-3.671a3.4 3.4 0 0 0-3.2-3.644z" class="cls-18" transform="rotate(-29 539.3 -1166.45)"/>
            <path id="Shape-2" d="M4.427 9.819l-3.763.034a.556.556 0 0 1-.523-.6l.039-4.27C.2 2.295 2.149.09 4.515.068A4.516 4.516 0 0 1 8.763 4.9c-.025 2.692-1.97 4.9-4.336 4.919zM1.2 8.648l3.235-.03a3.557 3.557 0 0 0 3.268-3.7A3.4 3.4 0 0 0 4.5 1.269a3.557 3.557 0 0 0-3.268 3.7L1.2 8.648z" class="cls-18" transform="rotate(-29 534.512 -1184.266)"/>
            <path id="Path-19" d="M.787 17.945a.556.556 0 0 1-.523-.6L.385 3.972A3.759 3.759 0 0 1 3.838.058a3.6 3.6 0 0 1 3.383 3.851l-.071 7.816a.58.58 0 0 1-.534.605.556.556 0 0 1-.523-.6l.071-7.816a2.485 2.485 0 0 0-2.337-2.66 2.6 2.6 0 0 0-2.385 2.7L1.321 17.34a.58.58 0 0 1-.534.605z" class="cls-18" transform="rotate(-29 553.175 -1180.697)"/>
        </g>
        <path id="Path_3316" fill="url(#linear-gradient)" d="M41.626 11.315c22.989 0 22.221 27.156 22.221 27.156s.768 40.7-22.221 40.7S0 60.949 0 38.47s18.637-27.155 41.626-27.155z" opacity="0.475" transform="rotate(38 -11.53 117.84)"/>
        <path id="Path_3317" fill="#fff" d="M26.752 11.315c14.775 0 14.281 17.453 14.281 17.453s.494 26.157-14.281 26.157S0 43.214 0 28.767s11.977-17.452 26.752-17.452z" opacity="0.035" transform="rotate(38 20.887 853.758)"/>
        <path id="Path_3318" fill="#fff" d="M10.365 11.315c5.725 0 5.533 6.762 5.533 6.762s.191 10.135-5.533 10.135A10.252 10.252 0 0 1 0 18.077c0-5.597 4.641-6.762 10.365-6.762z" opacity="0.1" transform="scale(-1) rotate(-79.98 -334.686 249.196)"/>
    </g>
</svg>
