<svg xmlns="http://www.w3.org/2000/svg" width="24" height="24" viewBox="0 0 24 24">
    <g fill="none" fill-rule="evenodd">
        <path d="M0 0H24V24H0z"/>
        <path stroke="#7D8D9F" d="M18.436 5.5c.75 0 1.029.06 1.305.208.238.127.424.313.551.551.148.276.208.555.208 1.305h0v7.872c0 .75-.06 1.029-.208 1.305-.127.238-.313.424-.551.551-.276.148-.555.208-1.305.208h0-7.497l-3.353 3.31-.019-3.31H5.564c-.75 0-1.029-.06-1.305-.208-.238-.127-.424-.313-.551-.551-.148-.276-.208-.555-.208-1.305h0V7.564c0-.75.06-1.029.208-1.305.127-.238.313-.424.551-.551.276-.148.555-.208 1.305-.208h0z"/>
        <path fill="#7D8D9F" d="M6 9H12V10H6zM6 12H16V13H6z"/>
    </g>
</svg>
