<svg xmlns="http://www.w3.org/2000/svg" xmlns:xlink="http://www.w3.org/1999/xlink" width="150" height="150" viewBox="0 0 150 150">
    <defs>
        <linearGradient id="linear-gradient" x1="-1.176" x2="-1.175" y1="10.822" y2="10.822" gradientUnits="objectBoundingBox">
            <stop offset="0" stop-color="#d8f1e3"/>
            <stop offset="1" stop-color="#b5e6ea"/>
        </linearGradient>
        <linearGradient id="linear-gradient-2" x1="-2.186" x2="-2.183" y1="45.653" y2="45.653" gradientUnits="objectBoundingBox">
            <stop offset="0" stop-color="#edf9f4"/>
            <stop offset="1" stop-color="#b5e6ea"/>
        </linearGradient>
        <linearGradient id="linear-gradient-3" x1="-1.864" x2="-1.862" y1="22.581" y2="22.581" xlink:href="#linear-gradient-2"/>
        <linearGradient id="linear-gradient-4" x1="-7.828" x2="-7.823" y1="3.941" y2="3.941" xlink:href="#linear-gradient"/>
        <linearGradient id="linear-gradient-5" x1="-12.408" x2="-12.403" y1="9.319" y2="9.319" xlink:href="#linear-gradient"/>
        <linearGradient id="linear-gradient-6" x1="-8.142" x2="-8.139" y1="5.86" y2="5.86" xlink:href="#linear-gradient"/>
        <linearGradient id="linear-gradient-7" x1="-37.474" x2="-37.462" y1="78.968" y2="78.968" xlink:href="#linear-gradient"/>
        <linearGradient id="linear-gradient-8" x1="-7.865" x2="-7.862" y1="3.915" y2="3.915" xlink:href="#linear-gradient-2"/>
        <linearGradient id="linear-gradient-9" x1="-6.696" x2="-6.694" y1="3.307" y2="3.307" xlink:href="#linear-gradient-2"/>
        <linearGradient id="linear-gradient-10" x1="-47.222" x2="-47.198" y1="11.385" y2="11.385" xlink:href="#linear-gradient"/>
        <linearGradient id="linear-gradient-11" x1="-13.313" x2="-13.31" y1="24.146" y2="24.146" xlink:href="#linear-gradient"/>
        <linearGradient id="linear-gradient-12" x1="-19.052" x2="-19.048" y1="11.732" y2="11.732" xlink:href="#linear-gradient"/>
        <clipPath id="clip-path">
            <path id="path5072" d="M137.374-503.925c-.829 3.6 7.669 4.067 11.171 4.106a13.746 13.746 0 0 0 2.888-.274c2.961-.6 9.443-2.178 8.534-4.322-1.173-2.766-4.7-.838-4.7-.838s.442-2.089-5.553-3.468-5.971 3.217-5.971 3.217-5.331-2.948-6.372 1.579z" transform="translate(-137.317 508.979)"/>
        </clipPath>
        <clipPath id="clip-path-2">
            <path id="path5112" d="M134.941-471.224l-6.415-.28-2.826.762-1.8 1.25z" transform="translate(-123.9 471.504)"/>
        </clipPath>
        <clipPath id="clip-path-3">
            <path id="path5134" d="M117.313-465.965l.8-1.759 11.452-2.269-8.815 4.054z" transform="translate(-117.313 469.993)"/>
        </clipPath>
        <clipPath id="clip-path-4">
            <path id="path5250" d="M217.847-198.406a26.322 26.322 0 0 1 .472 3.831c0 .785-.192 5.731-.192 5.731s-3.368.244-4.022.244c-.162-4.053-1.086-4.177-1.086-6.067a5.392 5.392 0 0 1 .745-2.342 3.428 3.428 0 0 0 .467-1.314l.022-.077z" transform="translate(-213.018 198.406)"/>
        </clipPath>
        <clipPath id="clip-path-5">
            <path id="path5282" d="M379.282-458.795s-2.488 2.9-1.5 4.737a29.2 29.2 0 0 0 4.117 4.852l1.578-4a4.978 4.978 0 0 1-3.638-1.393c-1.385-1.526.307-3.5.307-3.5z" transform="translate(-377.549 458.795)"/>
        </clipPath>
        <clipPath id="clip-path-6">
            <path id="path5302" d="M400.088-456.863c-2.1 1.322-1.345 9.762-1.345 9.762l6.332-.61-.544-6.244s2.954-3.437 3.559-5.986-3.9-2.53-3.9-2.53l-.729.907s3.021.252 2.169 1.568a16.678 16.678 0 0 1-3.632 3.142z" transform="translate(-398.611 462.471)"/>
        </clipPath>
        <clipPath id="clip-path-7">
            <path id="path5328" d="M404.415-436.836l-.042.64 2.1-.37-.423-.708z" transform="translate(-404.372 437.274)"/>
        </clipPath>
        <clipPath id="clip-path-8">
            <path id="path5366" d="M331.668-196.585h-5.391v-6.915a2.934 2.934 0 0 1 2.662-2.922l3.749-.454s.441.675 1.669 2.243a12.656 12.656 0 0 1-3.185 1.332z" transform="translate(-326.277 206.878)"/>
        </clipPath>
        <clipPath id="clip-path-9">
            <path id="path5404" d="M440.886-230.3c1.371 1.007 2.985 5.85 2.985 5.85l-1.2.675-1.959-2.689a26.013 26.013 0 0 0 .278 5.5c-.213.9-1.23.795-2.879.482a8.178 8.178 0 0 1-2.729-1.023s-.071-4.319-.284-6.609.208-2.535-.37-2.459a20.5 20.5 0 0 1-3.4-3.087l1.96-.381 4.222 2.473a18.3 18.3 0 0 1 3.376 1.268z" transform="translate(-431.326 234.043)"/>
        </clipPath>
        <clipPath id="clip-path-10">
            <path id="path5458" d="M265.705-521.684c.053-.913.326-6.619-.886-8.833.024-.051.046-.1.068-.154 1.352 2.29.992 8.434.949 9.078-.042-.031-.087-.061-.131-.091z" transform="translate(-264.819 530.671)"/>
        </clipPath>
        <clipPath id="clip-path-11">
            <path id="path5534" d="M602.157-389.377l1.15-1.615-8.7-1.551z" transform="translate(-594.608 392.543)"/>
        </clipPath>
        <clipPath id="clip-path-12">
            <path id="path5550" d="M594.608-392.543l6.079 4.239-1.818 2.278z" transform="translate(-594.608 392.543)"/>
        </clipPath>
        <style>
            .cls-7{fill:#fff}.cls-2{fill:#fccd37}.cls-3{fill:#f89b17}.cls-4{fill:#65cbc2}.cls-5{fill:#338d8c}.cls-6{fill:#36a5f6}.cls-11{fill:#1f2c54}.cls-12{fill:#1a5aeb}.cls-13{fill:#196265}.cls-19{fill:#1a385b}.cls-20{fill:#f68a76}.cls-21{fill:#f8a37b}.cls-22{fill:#183c5e}.cls-36{fill:#f84217}
        </style>
    </defs>
    <g id="Group_3380" transform="translate(-275 -707)">
        <g id="Group_3338" transform="translate(275 707)">
            <g id="Group_3327">
                <g id="Path_3376" fill="#fff" stroke="none">
                    <path d="M149.85 149.85H.15V.15h149.7v149.7z"/>
                    <path fill="#ddd" d="M.3.3v149.4h149.4V.3H.3M0 0h150v150H0V0z"/>
                </g>
                <g id="g4992" transform="translate(16.112 6.053)">
                    <g id="g4994">
                        <path id="path4998" d="M185.294-654.794l11.6 6.7c.7.407 1.183 1.2 1.029 1.717-.159.532-.912.537-1.611 0l-11.013-8.424" class="cls-2" transform="translate(-157.816 669.705)"/>
                        <path id="path5000" d="M134.478-688.973l-12.127-7.01c-.774-.448-1.076-1.156-.656-1.517a1.817 1.817 0 0 1 2.018.294l10.765 8.233" class="cls-2" transform="translate(-106.451 704.252)"/>
                        <path id="path5002" d="M121.713-655.581l-12.474 21.22c-1.19 2.024-2.771 3.573-3.332 3.212-.566-.364.208-2.468 1.576-4.394l14.23-20.037" class="cls-2" transform="translate(-93.74 670.339)"/>
                        <path id="path5004" d="M185.557-700.559l6.513-11.062c.3-.509.779-.786 1.039-.611.262.177.2.742-.143 1.225l-7.409 10.447" class="cls-2" transform="translate(-158.027 715.998)"/>
                        <path id="path5006" d="M186.512-655.742l2.967 19.046c.239 1.538-.036 3.266-.611 3.677-.591.422-1.2-.751-1.288-2.457l-1.068-20.266" class="cls-2" transform="translate(-158.796 670.469)"/>
                        <path id="path5008" d="M178.762-708.9l-1.945-12.537c-.1-.634.145-1.2.517-1.241.371-.037.72.472.753 1.1l.675 12.674" class="cls-2" transform="translate(-150.972 724.366)"/>
                        <path id="path5010" d="M98.606-654.41l-18.948 7.119c-1.6.6-2.924.51-2.785-.209.137-.71 1.637-1.679 3.165-2.077l18.568-4.833" class="cls-2" transform="translate(-70.505 669.396)"/>
                        <path id="path5012" d="M184.892-671.8l11.664-4.374c.573-.215 1.155-.092 1.266.263.113.362-.307.817-.914.976l-12.016 3.135" class="cls-2" transform="translate(-157.492 687.003)"/>
                        <path id="path5014" d="M175.173-655.986L173.5-645.1c-.126.821-.514 1.573-.834 1.6-.325.028-.423-.7-.214-1.542l2.721-10.949" class="cls-2" transform="translate(-147.387 670.665)"/>
                        <path id="path5016" d="M186.413-689.576l1.223-7.946c.065-.421.305-.755.517-.727.213.029.31.411.206.826l-1.947 7.848" class="cls-2" transform="translate(-158.717 704.698)"/>
                        <path id="path5018" d="M146-658.662l-9.1.12c-.63.008-1.078-.261-.957-.576.12-.314.749-.53 1.344-.466l8.713.922" class="cls-2" transform="translate(-118.057 673.571)"/>
                        <path id="path5020" d="M185.629-655.309l7.586-.1c.429-.005.786.215.774.477-.013.266-.4.462-.838.415l-7.522-.794" class="cls-2" transform="translate(-158.085 670.198)"/>
                        <path id="path5022" d="M146.873-655.62l-8.3 7.969c-.641.616-1.347.919-1.5.638-.154-.282.321-1.015 1-1.558l8.8-7.048" class="cls-3" transform="translate(-118.961 670.37)"/>
                        <path id="path5024" d="M185.761-678.487l5.835-5.6c.3-.291.672-.4.8-.229.128.168-.043.543-.373.807l-6.261 5.017" class="cls-3" transform="translate(-158.192 693.537)"/>
                        <path id="path5026" d="M167.084-683.5l-4.637-6.134c-.274-.363-.307-.805-.074-.952.232-.147.629.063.855.451l3.856 6.635" class="cls-3" transform="translate(-139.234 698.564)"/>
                        <path id="path5028" d="M186.092-655.692l5.087 6.728c.334.442.451 1.045.248 1.3-.207.258-.651.037-.948-.473l-4.388-7.554" class="cls-3" transform="translate(-158.458 670.428)"/>
                        <path id="path5030" d="M162.181-530.982l-1 .616-.059 1.173-.895-.76-1.134.306.446-1.086-.641-.983 1.171.089.737-.914.277 1.141 1.1.419" class="cls-4" transform="translate(-136.562 571.264)"/>
                        <path id="path5032" d="M140.639-724.174l-.669.413-.04.785-.6-.509-.759.205.3-.727-.43-.659.784.059.494-.612.186.764.735.28" class="cls-5" transform="translate(-120.089 726.412)"/>
                        <path id="path5034" d="M404.553-495.437a7.727 7.727 0 0 1-9.321-5.705 7.727 7.727 0 0 1 5.705-9.32 7.727 7.727 0 0 1 9.32 5.705 7.727 7.727 0 0 1-5.704 9.32zM422-511.351c-.36-.29-2.13-.251-4.059.176a17.18 17.18 0 0 0-3.005-4.02c.959-1.437 1.82-3.053 1.488-3.841-.675-1.6-4.967-3.567-5.7-3.488-.468.051-1.729 1.376-2.8 3.087a17.174 17.174 0 0 0-4.907-.8c-.338-1.7-.873-3.459-1.667-3.781-1.609-.653-6.035.99-6.5 1.563-.289.359-.252 2.119.172 4.04a17.161 17.161 0 0 0-4.171 2.921c-1.4-.916-2.926-1.706-3.686-1.385-1.6.675-3.567 4.967-3.488 5.7.048.435 1.2 1.556 2.733 2.575a17.182 17.182 0 0 0-.95 5.242c-1.527.34-2.983.845-3.274 1.56-.653 1.608.99 6.034 1.563 6.495.323.26 1.778.256 3.465-.055a17.169 17.169 0 0 0 3.2 4.523c-.779 1.258-1.371 2.542-1.086 3.217.675 1.6 4.967 3.567 5.7 3.488.4-.044 1.391-1.029 2.343-2.393a17.189 17.189 0 0 0 5.53.854c.339 1.435.827 2.755 1.5 3.03 1.608.653 6.035-.99 6.5-1.563.26-.324.256-1.785-.058-3.477a17.173 17.173 0 0 0 4.353-3.293c1.312.831 2.683 1.491 3.389 1.193 1.6-.675 3.567-4.967 3.488-5.7-.048-.437-1.208-1.567-2.756-2.59a17.169 17.169 0 0 0 .7-5.168c1.622-.34 3.237-.861 3.544-1.619.653-1.608-.99-6.034-1.563-6.5" class="cls-6" transform="translate(-316.243 564.519)"/>
                        <path id="path5036" d="M440.1-472.445a10.768 10.768 0 0 0-7.941 12.974 10.768 10.768 0 0 0 12.974 7.942 10.768 10.768 0 0 0 7.942-12.974 10.768 10.768 0 0 0-12.975-7.942zm5.108 21.231a11.093 11.093 0 0 1-13.366-8.181 11.094 11.094 0 0 1 8.181-13.366 11.094 11.094 0 0 1 13.366 8.182 11.094 11.094 0 0 1-8.182 13.366" class="cls-7" transform="translate(-356.095 523.375)"/>
                        <path id="path5038" d="M456.055-450.792c-.072.009-.145.017-.218.022a15.759 15.759 0 0 1 1.163 3.232 15.784 15.784 0 0 1-11.641 19.017 15.772 15.772 0 0 1-14.858-4.208c-.065.032-.132.061-.2.088a15.978 15.978 0 0 0 15.106 4.318 15.99 15.99 0 0 0 11.793-19.263 15.97 15.97 0 0 0-1.147-3.206" class="cls-7" transform="translate(-355.105 505.437)"/>
                        <path id="path5040" d="M425.04-489.328a15.684 15.684 0 0 1 8.6-5.467c.069-.017.138-.029.207-.044-.041-.06-.077-.122-.115-.185l-.14.03a15.887 15.887 0 0 0-8.685 5.5q.068.079.133.161" class="cls-7" transform="translate(-350.759 541.054)"/>
                        <path id="path5042" d="M91.568-266.506a5.461 5.461 0 0 1-5.461-5.461 5.461 5.461 0 0 1 5.461-5.461 5.461 5.461 0 0 1 5.46 5.461 5.461 5.461 0 0 1-5.46 5.461zm14.62-8.049a5.57 5.57 0 0 0-2.818-.55 12.134 12.134 0 0 0-1.4-3.259c.9-.829 1.756-1.8 1.657-2.393-.2-1.21-2.823-3.272-3.338-3.338a5.713 5.713 0 0 0-2.436 1.657 12.14 12.14 0 0 0-3.24-1.358c.049-1.223-.028-2.521-.52-2.874-1-.715-4.309-.317-4.721 0a5.546 5.546 0 0 0-.55 2.8 12.131 12.131 0 0 0-3.349 1.317c-.808-.861-1.728-1.656-2.3-1.561-1.21.2-3.272 2.823-3.338 3.338a5.172 5.172 0 0 0 1.452 2.221 12.139 12.139 0 0 0-1.519 3.444c-1.105-.019-2.189.087-2.507.53-.715 1-.318 4.31 0 4.721a4.777 4.777 0 0 0 2.389.535 12.137 12.137 0 0 0 1.449 3.636c-.743.736-1.362 1.52-1.278 2.031.2 1.21 2.823 3.272 3.338 3.338a4.627 4.627 0 0 0 2.006-1.257 12.145 12.145 0 0 0 3.658 1.5c0 1.042.113 2.029.533 2.331 1 .715 4.309.317 4.721 0a4.8 4.8 0 0 0 .535-2.4 12.15 12.15 0 0 0 3.535-1.543c.764.788 1.6 1.468 2.131 1.38 1.21-.2 3.272-2.823 3.338-3.338a5.2 5.2 0 0 0-1.465-2.235 12.12 12.12 0 0 0 1.337-3.434c1.171.035 2.366-.057 2.7-.526.715-1 .318-4.309 0-4.721" class="cls-6" transform="translate(-70.5 373.604)"/>
                        <path id="path5044" d="M120.233-250.123a7.61 7.61 0 0 0-7.6 7.6 7.61 7.61 0 0 0 7.6 7.6 7.61 7.61 0 0 0 7.6-7.6 7.61 7.61 0 0 0-7.6-7.6zm0 15.431a7.839 7.839 0 0 1-7.83-7.83 7.839 7.839 0 0 1 7.83-7.831 7.84 7.84 0 0 1 7.831 7.831 7.839 7.839 0 0 1-7.831 7.83" class="cls-7" transform="translate(-99.122 344.038)"/>
                        <path id="path5046" d="M123.679-221.776c-.051-.006-.1-.012-.153-.021a11.134 11.134 0 0 1 .266 2.413 11.154 11.154 0 0 1-11.141 11.142 11.145 11.145 0 0 1-9.512-5.347q-.075.016-.151.028a11.29 11.29 0 0 0 9.664 5.464 11.3 11.3 0 0 0 11.286-11.286 11.282 11.282 0 0 0-.258-2.393" class="cls-7" transform="translate(-91.539 321.044)"/>
                        <path id="path5048" d="M117.363-264.872a11.082 11.082 0 0 1 6.812-2.334h.15c-.018-.048-.033-.1-.049-.146h-.1A11.226 11.226 0 0 0 117.3-265c.023.044.044.088.065.133" class="cls-7" transform="translate(-103.063 357.726)"/>
                        <path id="path5050" d="M276.637-684.429l-1.731-4.709-1.455-.862a2.267 2.267 0 0 0-2.486.071 3.855 3.855 0 0 0-1.547 3.234c0 3.843 2.254 8.748 8.576 10.181a12.315 12.315 0 0 1-.245-2.963c.013-.342.042-.691.092-1.1a12.381 12.381 0 0 1-1.204-3.852zm2.347 9.908l-.77-.153c-7.675-1.472-10.394-7.4-10.39-12.024a5.672 5.672 0 0 1 2.324-4.748 3.7 3.7 0 0 1 4.059-.112l1.962 1.164 1.982 5.394.05.2a10.506 10.506 0 0 0 1.155 3.584l.144.269-.041.309c-.066.491-.1.869-.115 1.229a10.456 10.456 0 0 0 .533 3.711l.483 1.454-1.377-.281" class="cls-2" transform="translate(-224.271 699.752)"/>
                        <path id="path5052" fill="#f9ab37" d="M393.1-680.209c.047.413.074.763.085 1.1a12.31 12.31 0 0 1-.263 2.962c6.33-1.4 8.615-6.289 8.634-10.132a3.855 3.855 0 0 0-1.528-3.242 2.267 2.267 0 0 0-2.485-.085l-1.459.855-1.758 4.7a12.382 12.382 0 0 1-1.226 3.842zm-2.556 6.33l.491-1.452a10.463 10.463 0 0 0 .555-3.708c-.012-.359-.045-.738-.108-1.229l-.039-.309.146-.269a10.5 10.5 0 0 0 1.175-3.577l.051-.2 2.014-5.383 1.968-1.153a3.7 3.7 0 0 1 4.058.135 5.672 5.672 0 0 1 2.3 4.761c-.023 4.627-2.776 10.536-10.459 11.964-.271.05-.524.1-.771.149l-1.379.274" transform="translate(-323.086 699.424)"/>
                        <path id="path5054" d="M346.389-610.615c2.8-12.563-7.382-12.592-4.656-.013s-1.8 14.6-1.8 14.6a14.711 14.711 0 0 0 8.167.028s-4.515-2.049-1.716-14.613" class="cls-3" transform="translate(-282.335 641.728)"/>
                        <path id="path5056" d="M320.89-711.845c0-.007.016-.015.016-.022 0-.487-5.8-.9-12.95-.92s-12.954.358-12.955.845c0 .008.014.015.017.023-.021.459-.836 20 10.339 26.5a.65.65 0 0 0-.106.34v.144a.68.68 0 0 0 .675.68l3.9.011a.679.679 0 0 0 .679-.676v-.144a.657.657 0 0 0-.1-.34c11.218-6.447 10.509-26 10.491-26.446" class="cls-3" transform="translate(-246.152 716.403)"/>
                        <path id="path5058" d="M393.1-680.209c.047.413.074.763.085 1.1a12.31 12.31 0 0 1-.263 2.962c6.33-1.4 8.615-6.289 8.634-10.132a3.855 3.855 0 0 0-1.528-3.242 2.267 2.267 0 0 0-2.485-.085l-1.459.855-1.758 4.7a12.382 12.382 0 0 1-1.226 3.842zm-2.556 6.33l.491-1.452a10.463 10.463 0 0 0 .555-3.708c-.012-.359-.045-.738-.108-1.229l-.039-.309.146-.269a10.5 10.5 0 0 0 1.175-3.577l.051-.2 2.014-5.383 1.968-1.153a3.7 3.7 0 0 1 4.058.135 5.672 5.672 0 0 1 2.3 4.761c-.023 4.627-2.776 10.536-10.459 11.964-.271.05-.524.1-.771.149l-1.379.274" class="cls-2" transform="translate(-323.086 699.424)"/>
                        <path id="path5060" d="M372.167-711.845c0-.007.016-.015.016-.022 0-.488-5.8-.9-12.95-.92h-.555c.407 1.294.782 2.6 1.161 3.881a56.934 56.934 0 0 1 1.977 10.7 112.209 112.209 0 0 1 .526 12.4c10.521-6.824 9.843-25.6 9.825-26.036" class="cls-2" transform="translate(-297.429 716.403)"/>
                        <path id="path5062" d="M369.995-722.756l6.473-.873-6.4-1.247-.873-6.473-1.247 6.4-6.473.873 6.4 1.247.873 6.473 1.247-6.4" class="cls-7" transform="translate(-299.683 731.349)"/>
                        <path id="path5064" d="M339.7-497.92l-11.669-.033a.617.617 0 0 1-.614-.617v-.8a.617.617 0 0 1 .617-.613l11.67.034a.617.617 0 0 1 .613.617v.8a.617.617 0 0 1-.617.613" class="cls-2" transform="translate(-272.257 545.05)"/>
                        <path id="path5066" d="M332.621-491.021l-15.74-.045a.781.781 0 0 1-.776-.781v-1.169a.781.781 0 0 1 .781-.776l15.74.045a.78.78 0 0 1 .776.78v1.17a.781.781 0 0 1-.781.776" class="cls-3" transform="translate(-263.148 540.062)"/>
                        <g id="g5068" transform="translate(18.134 43.312)">
                            <g id="g5070" clip-path="url(#clip-path)">
                                <path id="path5082" fill="url(#linear-gradient)" d="M137.374-503.925c-.829 3.6 7.669 4.067 11.171 4.106a13.746 13.746 0 0 0 2.888-.274c2.961-.6 9.443-2.178 8.534-4.322-1.173-2.766-4.7-.838-4.7-.838s.442-2.089-5.553-3.468-5.971 3.217-5.971 3.217-5.331-2.948-6.372 1.579" transform="translate(-137.317 508.979)"/>
                            </g>
                        </g>
                        <path id="path5084" d="M256.171-496.651s-2.209-2.542-.028-6.475a3.551 3.551 0 0 1 6.1-.187c2.878 4.52.082 6.663.082 6.663h-6.155" class="cls-2" transform="translate(-214.091 549.051)"/>
                        <path id="path5086" d="M295.571-506.432s-2.209-2.542-.028-6.475a3.552 3.552 0 0 1 6.1-.187c2.878 4.52.082 6.663.082 6.663h-6.155" class="cls-2" transform="translate(-245.816 556.928)"/>
                        <path id="path5088" d="M424.249-496.651s2.209-2.542.028-6.475a3.551 3.551 0 0 0-6.1-.187c-2.878 4.52-.082 6.663-.082 6.663h6.155" class="cls-2" transform="translate(-344.292 549.051)"/>
                        <path id="path5090" d="M389.042-506.432s2.209-2.542.028-6.475a3.551 3.551 0 0 0-6.1-.187c-2.878 4.52-.082 6.663-.082 6.663h6.155" class="cls-2" transform="translate(-315.941 556.928)"/>
                        <path id="path5092" d="M346.12-512.022s2.209-2.542.029-6.476a3.552 3.552 0 0 0-6.1-.187c-2.878 4.52-.082 6.663-.082 6.663h6.155" class="cls-2" transform="translate(-281.38 561.429)"/>
                        <path id="path5094" d="M190.723-482.491s6.419-20.063-5.443-29.936c-23.2 12.923-10.427 35.7-10.427 35.7l15.87-5.768" class="cls-11" transform="translate(-146.584 555.067)"/>
                        <path id="path5096" d="M189.609-512.427l-.239.136-1.418 24.78-11.07-10.82q-.083.245-.16.49l11.195 10.941-.409 7.151.473-.172.816-14.254 7.734-4.549-.066-.5-7.636 4.492 1-17.506c-.074-.063-.145-.128-.22-.191" class="cls-5" transform="translate(-150.914 555.067)"/>
                        <path id="path5098" d="M134.671-471.367s-7.506-19.62-22.162-21.54c-10.621 14.254 3.475 28.516 3.475 28.516l16.941 7.1 1.746-14.079" class="cls-12" transform="translate(-96.017 539.349)"/>
                        <path id="path5100" d="M128.135-484.534l-4.222 8.3-9.528-16.623c-.115-.017-.23-.037-.346-.052-.042.056-.08.112-.121.168l5.1 8.9-8.479-1.731c-.019.08-.035.16-.052.24l-.043.213 8.881 1.813 8.5 14.837-14.978-2.564c.091.175.183.347.275.516l15 2.568 6.039 10.536.286.12.056-.453-10.323-18.011 4.275-8.406q-.162-.189-.328-.377" class="cls-7" transform="translate(-97.547 539.349)"/>
                        <path id="path5102" d="M116.771-359.719s-14.59-9.724-24.224-2.953c1.392 24.006 32.025 23.93 32.025 23.93l-7.8-20.977" class="cls-11" transform="translate(-83.133 436.41)"/>
                        <path id="path5104" d="M92.547-362.232c.005.093.013.184.019.276l20.714 11.609-11.98 4.864q.216.164.435.323l12.057-4.9 8.091 4.535-.249-.67-15.752-8.829-2.714-9.445q-.248-.031-.5-.056l2.637 9.18-12.549-7.033c-.072.048-.144.094-.215.144" class="cls-13" transform="translate(-83.133 435.971)"/>
                        <path id="path5106" d="M293.611-465.679H255.6c-.205 0-1.734-.285-1.734-.633 0 0-.274-18.494-.227-23.915a2.166 2.166 0 0 1 1.423-2.015 56.576 56.576 0 0 1 18.864-3.272 56.576 56.576 0 0 1 18.865 3.272 2.166 2.166 0 0 1 1.423 2.015c.048 5.421-.227 23.915-.227 23.915 0 .348-.168.633-.373.633" class="cls-3" transform="translate(-212.842 541.448)"/>
                        <g id="g5108" transform="translate(15.52 50.611)">
                            <g id="g5110" clip-path="url(#clip-path-2)">
                                <path id="path5124" fill="url(#linear-gradient-2)" d="M134.941-471.224l-6.415-.28-2.826.762-1.8 1.25 11.041-1.732" transform="translate(-123.9 471.504)"/>
                            </g>
                        </g>
                        <path id="path5126" fill="#a2debd" d="M134.941-470.068l-10.632 2.257-.409-.525" transform="translate(-108.38 520.959)"/>
                        <path id="path5128" d="M128.743-466.009l.022.014 1.122 1.267 8.93-5.276-10.074 4" class="cls-5" transform="translate(-112.279 520.907)"/>
                        <g id="g5130" transform="translate(14.237 50.905)">
                            <g id="g5132" clip-path="url(#clip-path-3)">
                                <path id="path5146" fill="url(#linear-gradient-3)" d="M117.313-465.965l.8-1.759 11.452-2.269-8.815 4.054-3.44-.025" transform="translate(-117.313 469.993)"/>
                            </g>
                        </g>
                        <path id="path5148" d="M54.665-303.1a7.827 7.827 0 0 0 .712-.844.154.154 0 0 1 .214-.033.153.153 0 0 1 .033.214 8.218 8.218 0 0 1-.739.877q-.143.147-.293.287a.151.151 0 0 1-.131.039.15.15 0 0 1-.085-.046.152.152 0 0 1 .007-.216q.144-.136.283-.278" class="cls-4" transform="translate(-52.363 387.237)"/>
                        <path id="path5150" d="M100.141-449.453c.455-.157.935-.308 1.467-.46a.153.153 0 0 1 .189.105.153.153 0 0 1-.105.189c-.527.15-1 .3-1.451.455a.157.157 0 0 1-.077.006.153.153 0 0 1-.118-.1.153.153 0 0 1 .095-.194" class="cls-4" transform="translate(-89.165 504.734)"/>
                        <path id="path5152" d="M88.583-445.007a.153.153 0 0 1-.11-.081.153.153 0 0 1 .067-.206c.437-.222.911-.434 1.408-.631a.152.152 0 0 1 .2.086.153.153 0 0 1-.086.2c-.488.193-.953.4-1.382.62a.151.151 0 0 1-.1.014" class="cls-4" transform="translate(-79.84 501.527)"/>
                        <path id="path5154" d="M62.741-314.989a.151.151 0 0 1 .195-.094.153.153 0 0 1 .094.2 8.541 8.541 0 0 1-.645 1.415.153.153 0 0 1-.16.075.148.148 0 0 1-.049-.018.153.153 0 0 1-.057-.209 8.257 8.257 0 0 0 .622-1.364" class="cls-4" transform="translate(-58.615 396.167)"/>
                        <path id="path5156" d="M66.783-325.567a.153.153 0 0 1-.115-.183c.03-.133.058-.266.082-.4a7.93 7.93 0 0 0 .118-1.084.153.153 0 0 1 .159-.147.155.155 0 0 1 .147.159 8.237 8.237 0 0 1-.122 1.126q-.037.209-.085.416a.153.153 0 0 1-.176.116h-.007" class="cls-4" transform="translate(-62.292 406.064)"/>
                        <path id="path5158" d="M66.869-338.03a.148.148 0 0 1-.038 0 .153.153 0 0 1-.126-.14 10.422 10.422 0 0 0-.22-1.489.153.153 0 0 1 .117-.182.153.153 0 0 1 .182.117 10.648 10.648 0 0 1 .226 1.533.153.153 0 0 1-.142.163" class="cls-4" transform="translate(-62.145 416.1)"/>
                        <path id="path5160" d="M55.049-400.569q-.067.294-.121.59c-.053.3-.1.6-.125.9a.153.153 0 0 1-.167.137h-.012a.153.153 0 0 1-.125-.166c.03-.306.073-.616.128-.922q.054-.3.124-.605a.145.145 0 0 1 .183-.115.153.153 0 0 1 .115.183" class="cls-4" transform="translate(-52.496 465.148)"/>
                        <path id="path5162" d="M54.509-388.148a11.139 11.139 0 0 0 .071 1.505.153.153 0 0 1-.134.17.151.151 0 0 1-.045 0 .153.153 0 0 1-.125-.133 11.432 11.432 0 0 1-.073-1.547.153.153 0 0 1 .156-.15.154.154 0 0 1 .15.156" class="cls-4" transform="translate(-52.256 455.12)"/>
                        <path id="path5164" d="M57.839-412.42a12.444 12.444 0 0 0-.535 1.412.153.153 0 0 1-.173.105h-.019a.153.153 0 0 1-.1-.191 12.762 12.762 0 0 1 .548-1.447.152.152 0 0 1 .2-.077.153.153 0 0 1 .077.2" class="cls-4" transform="translate(-54.514 474.712)"/>
                        <path id="path5166" d="M69.162-431.593a.153.153 0 0 1-.144.053.153.153 0 0 1-.071-.033.153.153 0 0 1-.02-.215 12.08 12.08 0 0 1 1.063-1.125.153.153 0 0 1 .216.008.153.153 0 0 1-.008.216 11.789 11.789 0 0 0-1.036 1.1" class="cls-4" transform="translate(-64.086 491.074)"/>
                        <path id="path5168" d="M59.443-361.995a.15.15 0 0 1-.079.007.153.153 0 0 1-.117-.1l-.066-.182c-.152-.42-.3-.84-.448-1.262a.153.153 0 0 1 .1-.194.153.153 0 0 1 .194.1c.143.42.295.838.446 1.256l.066.182a.153.153 0 0 1-.092.2" class="cls-4" transform="translate(-55.899 435.334)"/>
                        <path id="path5170" d="M62.16-422a.153.153 0 0 1-.161.078.141.141 0 0 1-.046-.016.152.152 0 0 1-.062-.207 12.7 12.7 0 0 1 .818-1.314.153.153 0 0 1 .213-.036.153.153 0 0 1 .036.213 12.373 12.373 0 0 0-.8 1.282" class="cls-4" transform="translate(-58.434 483.476)"/>
                        <path id="path5172" d="M63.044-351.888a.153.153 0 0 1 .195.094c.2.567.346 1.033.469 1.466a.153.153 0 0 1-.106.189.149.149 0 0 1-.068 0 .153.153 0 0 1-.121-.109c-.121-.427-.267-.887-.463-1.448a.153.153 0 0 1 .094-.195" class="cls-4" transform="translate(-59.294 425.803)"/>
                        <path id="path5174" d="M45.546-295.062a.153.153 0 0 1 .214.028.153.153 0 0 1-.028.214 12.353 12.353 0 0 1-1.286.86.152.152 0 0 1-.1.019.153.153 0 0 1-.1-.073.153.153 0 0 1 .054-.21 12.15 12.15 0 0 0 1.255-.838" class="cls-4" transform="translate(-44.216 380.065)"/>
                        <path id="path5176" d="M55.448-375.812a.153.153 0 0 1 .18.12c.092.457.215.936.376 1.467a.153.153 0 0 1-.1.191.156.156 0 0 1-.071 0 .153.153 0 0 1-.119-.106c-.164-.54-.289-1.029-.383-1.495a.153.153 0 0 1 .12-.18" class="cls-4" transform="translate(-53.161 445.064)"/>
                        <path id="path5178" d="M78.736-440.151q.226-.147.457-.285a.153.153 0 0 1 .21.053.153.153 0 0 1-.053.21q-.226.134-.446.278c-.272.178-.541.371-.8.575a.153.153 0 0 1-.122.03.15.15 0 0 1-.093-.056.153.153 0 0 1 .025-.215c.264-.209.54-.407.82-.591" class="cls-4" transform="translate(-71.306 497.115)"/>
                        <path id="path5180" d="M429.519-404.914s2-2.307.025-5.877a3.223 3.223 0 0 0-5.537-.17c-2.612 4.1-.075 6.047-.075 6.047h5.586" class="cls-7" transform="translate(-349.084 474.564)"/>
                        <path id="path5182" d="M389.958-404.784s2-2.307.025-5.877a3.223 3.223 0 0 0-5.537-.17c-2.612 4.1-.075 6.047-.075 6.047h5.586" class="cls-3" transform="translate(-317.228 474.46)"/>
                        <path id="path5184" d="M251.835-362.458h-66.777a.635.635 0 0 1-.633-.633v-20.4a3.56 3.56 0 0 1 2.693-3.455 132.526 132.526 0 0 1 31.329-3.71 132.527 132.527 0 0 1 31.329 3.71 3.56 3.56 0 0 1 2.693 3.455v20.4a.635.635 0 0 1-.633.633" class="cls-2" transform="translate(-157.116 457.016)"/>
                        <path id="path5186" d="M168.315-285.7s-2.209-2.542-.028-6.475a3.551 3.551 0 0 1 6.1-.187c2.878 4.52.082 6.663.082 6.663h-6.155" class="cls-7" transform="translate(-143.346 379.184)"/>
                        <path id="path5188" d="M209.112-295.477s-2.209-2.542-.028-6.476a3.551 3.551 0 0 1 6.1-.187c2.878 4.52.082 6.663.082 6.663h-6.155" class="cls-7" transform="translate(-176.197 387.061)"/>
                        <path id="path5190" d="M251.356-299.669s-2.209-2.542-.028-6.476a3.552 3.552 0 0 1 6.1-.187c2.878 4.52.082 6.663.082 6.663h-6.155" class="cls-7" transform="translate(-210.214 390.437)"/>
                        <path id="path5192" d="M294.948-301.066s-2.209-2.542-.028-6.475a3.551 3.551 0 0 1 6.1-.187c2.878 4.52.082 6.663.082 6.663h-6.155" class="cls-7" transform="translate(-245.315 391.562)"/>
                        <path id="path5194" d="M515.053-285.7s2.209-2.542.029-6.475a3.551 3.551 0 0 0-6.1-.187c-2.878 4.52-.083 6.663-.083 6.663h6.155" class="cls-7" transform="translate(-417.41 379.184)"/>
                        <path id="path5196" d="M474.256-295.477s2.209-2.542.028-6.476a3.551 3.551 0 0 0-6.1-.187c-2.878 4.52-.082 6.663-.082 6.663h6.155" class="cls-7" transform="translate(-384.558 387.061)"/>
                        <path id="path5198" d="M432.011-299.669s2.209-2.542.028-6.476a3.551 3.551 0 0 0-6.1-.187c-2.878 4.52-.082 6.663-.082 6.663h6.155" class="cls-7" transform="translate(-350.542 390.437)"/>
                        <path id="path5200" d="M388.419-301.066s2.209-2.542.028-6.475a3.551 3.551 0 0 0-6.1-.187c-2.878 4.52-.082 6.663-.082 6.663h6.155" class="cls-7" transform="translate(-315.441 391.562)"/>
                        <path id="path5202" d="M345.5-306.656s2.209-2.542.029-6.476a3.551 3.551 0 0 0-6.1-.187c-2.878 4.52-.083 6.663-.083 6.663h6.154" class="cls-7" transform="translate(-280.879 396.063)"/>
                        <path id="path5204" d="M422.954-387.891s-10.7-16.936-2.135-28.855c24.439 6.358 18.12 30.376 18.12 30.376l-15.985-1.521" class="cls-6" transform="translate(-344.792 478.022)"/>
                        <path id="path5206" d="M421.5-416.746l.253.068 7.22 22.471 7.607-12.6q.135.206.264.413l-7.693 12.744 2.083 6.485-.476-.045-4.158-12.929-8.205-2.342c-.021-.158-.04-.315-.058-.474l8.1 2.312-5.1-15.875c.053-.076.1-.153.157-.228" class="cls-13" transform="translate(-345.47 478.022)"/>
                        <path id="path5208" d="M457.419-371.672s0-23.679 15.8-30.561c13.179 10.585 3.608 27.078 3.608 27.078l-13.9 10.582-5.512-7.1" class="cls-12" transform="translate(-376.938 466.335)"/>
                        <path id="path5210" d="M481.321-391.161l5.869 6.635 4.8-17.576c.1-.043.2-.089.306-.13.052.042.1.084.151.126l-2.572 9.413 7.391-3.618c.036.07.07.139.1.208l.091.185-7.742 3.789-4.287 15.688 13.175-5.936c-.042.182-.085.363-.13.541l-13.2 5.945-3.044 11.139-.235.179-.16-.4 5.2-19.043-5.942-6.718q.1-.212.212-.425" class="cls-7" transform="translate(-396.014 466.335)"/>
                        <path id="path5212" d="M491.2-300.339s11.109-12.434 21.593-8.5c4.449 22.429-23.767 29.672-23.767 29.672l2.174-21.172" class="cls-19" transform="translate(-402.389 391.752)"/>
                        <path id="path5214" d="M515.885-306l.049.258-16.3 15.631 12.184 1.619q-.16.2-.323.4l-12.267-1.63-6.365 6.105.069-.676 12.393-11.887.243-9.342q.221-.088.444-.171l-.236 9.079 9.873-9.47c.077.028.155.053.232.082" class="cls-13" transform="translate(-405.482 388.911)"/>
                        <path id="path5216" d="M229.473-245.5H148.7a.79.79 0 0 1-.766-.808v-26.027a4.5 4.5 0 0 1 3.258-4.408 152.5 152.5 0 0 1 37.894-4.732 152.5 152.5 0 0 1 37.895 4.732 4.5 4.5 0 0 1 3.258 4.408v26.027a.79.79 0 0 1-.766.808" class="cls-11" transform="translate(-127.733 369.098)"/>
                        <path id="path5218" d="M226.08-271.913l.084 5.964-1.619-.431.914-5.814.621.281" class="cls-20" transform="translate(-189.422 361.625)"/>
                        <path id="path5220" d="M227.8-280.63a.866.866 0 0 0 .039.618l.21.782.148.075.474.171c-.074-.15-.03.012-.03.012l.172-1.206s.507-.708-.609-1.01a.265.265 0 0 0-.29.094.679.679 0 0 0-.116.463" class="cls-20" transform="translate(-192.01 368.875)"/>
                        <path id="path5222" d="M222.585-238.722a35.057 35.057 0 0 0 .9-4.691l-1.562-.794-.7 2.06 1.366 3.425" class="cls-13" transform="translate(-186.744 339.089)"/>
                        <path id="path5224" d="M211.673-143.157l.679.118c.14-.842 2.252-4.834 2.423-6.907a46.824 46.824 0 0 1 .726-4.864l-2.271-.675s-.575 0 .056 4.691c-1.42 1.864-1.8 6.093-1.613 7.638" class="cls-20" transform="translate(-179.021 267.649)"/>
                        <path id="path5226" d="M220.442-164.248s.533 3.209 1.275 6.641c-.775 2.072.406 7.856.428 7.835.089-.084.5.419.5.419s.861-5.1 1.052-7.406.238-5.108.238-5.108l-3.49-2.382" class="cls-21" transform="translate(-186.118 274.704)"/>
                        <path id="path5228" d="M227.569-91.583a.757.757 0 0 0-.264.624c.059.35.143 1.168.143 1.168h.332l-.01-.763c0-.05.713.763.833.763h1.759s.117-.515-.916-.68a3.763 3.763 0 0 1-1.878-1.111" class="cls-22" transform="translate(-191.639 216.192)"/>
                        <path id="path5230" d="M212.611-95.71l-.047.728a.678.678 0 0 0 .12.431 2.726 2.726 0 0 0 .529.55c-.51.164-.974-.408-1.217-.788a.906.906 0 0 1-.132-.624l.086-.573.661.276" class="cls-20" transform="translate(-179.202 219.738)"/>
                        <path id="path5232" d="M208.51-92.513s-.448.041-.523.382-.287 1.031-.287 1.031l.245.2.345-.685a10.2 10.2 0 0 0 .86 1.049h1.92s0-.635-1.2-.664c-1.107-.026-1.358-1.308-1.358-1.308" class="cls-11" transform="translate(-175.858 216.941)"/>
                        <path id="path5234" d="M247.522-268.823l-2.132 5.571-1.344-1 3-5.062.473.491" class="cls-21" transform="translate(-205.125 359.306)"/>
                        <path id="path5236" d="M259.349-277.2a.868.868 0 0 0-.193.588l-.094.8.11.125.377.335c-.013-.166-.032 0-.032 0l.606-1.056s.733-.47-.192-1.164a.266.266 0 0 0-.3-.019.68.68 0 0 0-.279.388" class="cls-21" transform="translate(-217.216 366.004)"/>
                        <path id="path5238" d="M225.827-237.857h-1.374l.548-1.615 1.074.66-.249.955" class="cls-20" transform="translate(-189.348 335.276)"/>
                        <path id="path5240" d="M222.533-240.532c-.007-.04-.016-.075-.024-.112a20.763 20.763 0 0 0 1.985-2.99l-1.156-1.316-2.1 2.5h-.771a1.545 1.545 0 0 0-1.952.251 2.739 2.739 0 0 0-.331 2.255 8.412 8.412 0 0 1 .133 4.142l3.545 1.322s.081-2.356.136-4.008a.04.04 0 0 0 0-.006 1.842 1.842 0 0 1 .288-.9 1.617 1.617 0 0 0 .246-1.133" class="cls-5" transform="translate(-184.228 339.688)"/>
                        <path id="path5242" d="M224.671-254.371l-2.253.789.222 1.682c0 .024.01.047.014.07.043.008.086.016.13.026l.021.006h.021a1.543 1.543 0 0 1 1.053 1.054 2.653 2.653 0 0 0 .975-.012.98.98 0 0 0 .512-.221c.475-1.037-.695-3.4-.695-3.4" class="cls-21" transform="translate(-187.709 347.274)"/>
                        <path id="path5244" d="M213.739-255.24c-.607.3-.464 3.422-.568 5.551a2.419 2.419 0 0 1-2.048 2.262 3.728 3.728 0 0 1-2.216-.151 8.7 8.7 0 0 0 1.64-6.769 3.092 3.092 0 0 1 .729-2.574c.909-.816 2.785.249 2.785.249s.513 1.024-.32 1.431" class="cls-19" transform="translate(-176.829 349.574)"/>
                        <g id="g5246" transform="translate(32.878 103.803)">
                            <g id="g5248" clip-path="url(#clip-path-4)">
                                <path id="path5260" fill="url(#linear-gradient-4)" d="M217.847-198.406a26.322 26.322 0 0 1 .472 3.831c0 .785-.192 5.731-.192 5.731s-3.368.244-4.022.244c-.162-4.053-1.086-4.177-1.086-6.067a5.392 5.392 0 0 1 .745-2.342 3.428 3.428 0 0 0 .467-1.314l.022-.077 3.595-.005" transform="translate(-213.018 198.406)"/>
                            </g>
                        </g>
                        <path id="path5262" d="M394.285-284.078a4.923 4.923 0 0 1-2.021.929c-.309.078-.642-.027-.642.484h1.7l1.418-.245v.245h.766s.213-1.252-.234-1.413h-.99" class="cls-22" transform="translate(-323.956 371.194)"/>
                        <path id="path5264" d="M405.447-288.7l-.151.9a.866.866 0 0 0 .938.032l.053-.032-.076-.9h-.763" class="cls-21" transform="translate(-334.968 374.912)"/>
                        <path id="path5266" d="M423.3-284.078a4.923 4.923 0 0 1-2.021.929c-.309.078-.643-.027-.643.484h1.7l1.418-.245v.245h.766s.213-1.252-.234-1.413h-.986" class="cls-22" transform="translate(-347.323 371.194)"/>
                        <path id="path5268" d="M434.465-288.7l-.15.9a.867.867 0 0 0 .938.032l.053-.032-.076-.9h-.764" class="cls-21" transform="translate(-358.334 374.912)"/>
                        <path id="path5270" d="M395.529-385.423s-.766 7.159-.9 8.231 1.916 10.973 1.916 10.973l1.313.038s.346-5.777.285-9.068a6.336 6.336 0 0 1 1.163-3.444c2.8-4.126 2.556-6.922 2.556-6.922l-6.332.191" class="cls-11" transform="translate(-326.371 452.954)"/>
                        <path id="path5272" d="M404.372-386.175a56.809 56.809 0 0 0 1.078 7.579c.294 1.113 4.687 11.425 4.687 11.425l1.181-.022a32.887 32.887 0 0 0-1.451-8.474 5.394 5.394 0 0 1-.236-2.835 65.733 65.733 0 0 0 .084-8.189l-5.342.515" class="cls-22" transform="translate(-334.224 453.82)"/>
                        <path id="path5274" d="M386.844-463.012l.321-.977a.259.259 0 0 1 .189-.17l.209-.047a.258.258 0 0 1 .194.034l.858.54a.259.259 0 0 1 .107.3l-.041.12a.26.26 0 0 1-.126.146l-1.136.584-.575-.534" class="cls-21" transform="translate(-320.11 516.242)"/>
                        <path id="path5276" d="M388.081-459.593l.887-.2a.248.248 0 0 0 .17-.35l-.171-.356c-.046-.095-.614-.131-.614-.131s-.139.395.385.374a.392.392 0 0 0 .038.2 1.113 1.113 0 0 0-1.109.081l.415.385" class="cls-20" transform="translate(-320.771 513.357)"/>
                        <g id="g5278" transform="translate(64.924 53.086)">
                            <g id="g5280" clip-path="url(#clip-path-5)">
                                <path id="path5292" fill="url(#linear-gradient-5)" d="M379.282-458.795s-2.488 2.9-1.5 4.737a29.2 29.2 0 0 0 4.117 4.852l1.578-4a4.978 4.978 0 0 1-3.638-1.393c-1.385-1.526.307-3.5.307-3.5l-.863-.688" transform="translate(-377.549 458.795)"/>
                            </g>
                        </g>
                        <path id="path5294" d="M418.66-465.79l-.43-.934a.26.26 0 0 0-.207-.147l-.213-.022a.258.258 0 0 0-.189.055l-.791.634a.259.259 0 0 0-.072.313l.054.114a.26.26 0 0 0 .143.131l1.195.451.511-.6" class="cls-21" transform="translate(-344.176 518.404)"/>
                        <path id="path5296" d="M419.35-462.289l-.9-.1a.248.248 0 0 1-.208-.328l.13-.373c.035-.1.595-.2.595-.2s.183.376-.34.416a.389.389 0 0 1-.015.2 1.113 1.113 0 0 1 1.111-.045l-.369.43" class="cls-21" transform="translate(-345.377 515.498)"/>
                        <g id="g5298" transform="translate(69.027 52.37)">
                            <g id="g5300" clip-path="url(#clip-path-6)">
                                <path id="path5312" fill="url(#linear-gradient-6)" d="M400.088-456.863c-2.1 1.322-1.345 9.762-1.345 9.762l6.332-.61-.544-6.244s2.954-3.437 3.559-5.986-3.9-2.53-3.9-2.53l-.729.907s3.021.252 2.169 1.568a16.678 16.678 0 0 1-3.632 3.142l-1.906-.009" transform="translate(-398.611 462.471)"/>
                            </g>
                        </g>
                        <path id="path5314" fill="#47aea5" d="M398.5-421.4c-.071-.911-.459-6.6.707-8.839-.025-.05-.048-.1-.071-.152-1.3 2.314-.82 8.443-.766 9.085l.13-.095" transform="translate(-329.283 489.013)"/>
                        <path id="path5316" d="M406.135-439.061l-.25-1.183-1.356.121-.132 1.4a.3.3 0 0 0 .027.029 3.854 3.854 0 0 1 1.71-.362" class="cls-20" transform="translate(-334.244 496.944)"/>
                        <path id="path5318" d="M403.669-452.627l-.4 1.844c-.184-.038-.325.143-.317.323a.348.348 0 0 0-.054.132 2.16 2.16 0 0 1-1.719.117c-1.14-.416-.06-2.575-.06-2.575l2.547.16" class="cls-21" transform="translate(-331.234 507.043)"/>
                        <path id="path5320" d="M403.277-456.886a1.241 1.241 0 0 0-.106-1.627 2.334 2.334 0 0 0-1.44-.834 2.171 2.171 0 0 0-1.686.462c-.75.581.246 1.077.246 1.077a2.3 2.3 0 0 0 1.6.186.3.3 0 0 1 .337.143 6.408 6.408 0 0 1-.081 1.883 5.332 5.332 0 0 0 1.126-1.29" class="cls-11" transform="translate(-330.514 512.329)"/>
                        <path id="path5322" d="M412.016-445.93a.289.289 0 0 1-.4.1.29.29 0 0 1-.1-.4.29.29 0 0 1 .4-.1.29.29 0 0 1 .1.4" class="cls-21" transform="translate(-339.947 501.877)"/>
                        <g id="g5324" transform="translate(70.149 57.278)">
                            <g id="g5326" clip-path="url(#clip-path-7)">
                                <path id="path5338" fill="url(#linear-gradient-7)" d="M404.415-436.836l-.042.64 2.1-.37-.423-.708-1.637.438" transform="translate(-404.372 437.274)"/>
                            </g>
                        </g>
                        <path id="path5340" d="M348.944-58.752a4.925 4.925 0 0 0 2.021.929c.309.078.643-.027.643.483h-1.7l-1.418-.245v.245h-.766s-.213-1.252.234-1.413h.99" class="cls-11" transform="translate(-288.564 189.756)"/>
                        <path id="path5342" d="M349.971-63.371l.151.9a.867.867 0 0 1-.938.031l-.052-.031.076-.9h.763" class="cls-21" transform="translate(-289.742 193.475)"/>
                        <path id="path5344" d="M314.307-58.752a4.925 4.925 0 0 0 2.021.929c.309.078.642-.027.642.483h-1.7l-1.418-.245v.245h-.766s-.213-1.252.234-1.413h.99" class="cls-11" transform="translate(-260.674 189.756)"/>
                        <path id="path5346" d="M315.335-63.371l.151.9a.867.867 0 0 1-.938.031l-.052-.031.076-.9h.764" class="cls-21" transform="translate(-261.852 193.475)"/>
                        <path id="path5348" d="M346.707-243.348a.256.256 0 0 1-.031-.235l.317-.879a.257.257 0 0 1 .383-.128l1.361.891a.257.257 0 0 1 .116.215v1.337s.682 3.614.361 5.034-1.343.325-1.622.083a13.644 13.644 0 0 0 .3-4.619l-1.187-1.7" class="cls-21" transform="translate(-287.752 339.43)"/>
                        <path id="path5350" d="M356.342-232.135a7.422 7.422 0 0 0 2.916-1.658c.7-.951-.482-6.154-.482-6.154l.152-.936a.872.872 0 0 0-.853-1.011l-.593-.005a.339.339 0 0 0-.313.477l.78 1.755s.586 3.941-.234 4.24a9.241 9.241 0 0 1-2.085.432l.712 2.86" class="cls-21" transform="translate(-294.975 337.232)"/>
                        <path id="path5352" d="M316.163-154.033a41.759 41.759 0 0 0 .7 5.628 5.027 5.027 0 0 1-.173 2.588c-1.326 3.939-2.975 9.862-2.975 9.862h1.235s3.956-7 4.921-10.472S321-151 321-151l-1.149-3.031h-3.691" class="cls-13" transform="translate(-261.225 266.479)"/>
                        <path id="path5354" d="M329.014-229.317l-2.224 1.451.686 1.758c.01.025.023.048.034.072.049 0 .1-.006.147-.006h.047a1.716 1.716 0 0 1 1.418.859 2.959 2.959 0 0 0 1.05-.272 1.085 1.085 0 0 0 .494-.375c.238-1.247-1.653-3.487-1.653-3.487" class="cls-21" transform="translate(-271.752 327.099)"/>
                        <path id="path5356" d="M334.887-209.218l-.194 1.218h1.72l.124-1.487-1.649.274" class="cls-20" transform="translate(-278.116 311.135)"/>
                        <path id="path5358" d="M328.249-228.085l-.522-1.159.34-.213a.638.638 0 0 0 .265-.747l-.372-1.092s1.059-.13 1.027-1.116c0-.508-.7-.51-.7-.51a1.016 1.016 0 0 1-.857.508 1.685 1.685 0 0 0-1.558.967 2.78 2.78 0 0 0 .107 2.264 2.065 2.065 0 0 0 1.645 1.1h.625" class="cls-19" transform="translate(-270.852 330.002)"/>
                        <path id="path5360" d="M334.708-217.561a.492.492 0 0 0 .281.54c.218.116.444.061.507-.122a.492.492 0 0 0-.281-.54c-.217-.116-.444-.061-.506.122" class="cls-21" transform="translate(-278.115 317.78)"/>
                        <g id="g5362" transform="translate(54.938 102.153)">
                            <g id="g5364" clip-path="url(#clip-path-8)">
                                <path id="path5378" fill="url(#linear-gradient-8)" d="M331.668-196.585h-5.391v-6.915a2.934 2.934 0 0 1 2.662-2.922l3.749-.454s.441.675 1.669 2.243a12.656 12.656 0 0 1-3.185 1.332l.5 6.718" transform="translate(-326.277 206.878)"/>
                            </g>
                        </g>
                        <path id="path5380" d="M326.277-154.033a16.088 16.088 0 0 0 3.571 5.844 3.612 3.612 0 0 1 1.049 2.809l-.37 9.425h1.259s2.253-7.827 1.812-11.685a17.7 17.7 0 0 0-1.929-6.394h-5.391" class="cls-5" transform="translate(-271.339 266.479)"/>
                        <path id="path5382" d="M510.374-110.471l-.678 1.795a.592.592 0 0 0 .193.7 2.279 2.279 0 0 0 .355.163 21.3 21.3 0 0 0 .906-2.45l-.008-.015a.644.644 0 0 0-.769-.194" class="cls-5" transform="translate(-419.007 231.446)"/>
                        <path id="path5384" d="M512.647-106.725l.906-2.45.119.069-.913 2.427-.112-.046" class="cls-11" transform="translate(-421.409 230.357)"/>
                        <path id="path5386" d="M511.681-106.6l-.059.162.313.06.059-.157-.312-.066" class="cls-7" transform="translate(-420.583 228.284)"/>
                        <path id="path5388" d="M511.011-104.819l-.059.162.313.06.059-.157-.312-.066" class="cls-7" transform="translate(-420.044 226.851)"/>
                        <path id="path5390" d="M508.334-112.417l.752.423a.483.483 0 0 1-.165.487l-.026.021-.83-.213.27-.718" class="cls-21" transform="translate(-417.719 232.968)"/>
                        <path id="path5392" d="M466.094-170.556a4.317 4.317 0 0 1 .938 2.217 29.051 29.051 0 0 1-.263 3.6 3.017 3.017 0 0 0 1.3 2.573l4.034 2.932-.27.718s-5.522-.828-6.972-3.3-1.793-8.072-1.793-8.072l3.03-.669" class="cls-13" transform="translate(-381.484 279.783)"/>
                        <path id="path5394" d="M489.339-186.2l2.075 4.633a2.818 2.818 0 0 1 1.222.426.884.884 0 0 1 .132.8.286.286 0 0 1-.468.165 1.971 1.971 0 0 0-.716-.453.861.861 0 0 1-.665-.448l-2.977-4.669 1.4-.455" class="cls-21" transform="translate(-401.517 292.381)"/>
                        <path id="path5396" d="M430-262.554q.337.079.682.133l-.038.019-.825 4.491 1.063.909-1.617.661s-.924-.661-.924-1.144 1.649-5 1.649-5l.01-.068" class="cls-21" transform="translate(-353.525 353.863)"/>
                        <path id="path5398" d="M450.833-170.8a3.1 3.1 0 0 1 .256 2.561 11.6 11.6 0 0 1-2.043 3.572 3.144 3.144 0 0 0-.373 2.469 21.27 21.27 0 0 1-.355 7.3h-.767s-1.152-5.884-1.492-10.02a11.933 11.933 0 0 1 1.322-6.524l3.454.637" class="cls-5" transform="translate(-367.758 280.488)"/>
                        <g id="g5400" transform="translate(75.399 96.862)">
                            <g id="g5402" clip-path="url(#clip-path-9)">
                                <path id="path5416" fill="url(#linear-gradient-9)" d="M440.886-230.3c1.371 1.007 2.985 5.85 2.985 5.85l-1.2.675-1.959-2.689a26.013 26.013 0 0 0 .278 5.5c-.213.9-1.23.795-2.879.482a8.178 8.178 0 0 1-2.729-1.023s-.071-4.319-.284-6.609.208-2.535-.37-2.459a20.5 20.5 0 0 1-3.4-3.087l1.96-.381 4.222 2.473a18.3 18.3 0 0 1 3.378 1.267" transform="translate(-431.326 234.043)"/>
                            </g>
                        </g>
                        <path id="path5418" d="M461.748-244.25l-1.019 1.006a1.766 1.766 0 0 0-.483 1.639l.119.537 1.382-3.182" class="cls-21" transform="translate(-379.181 339.124)"/>
                        <path id="path5420" d="M449.312-246.2c2.473 0 1.421 4.748 1.421 4.748s-.44 3.079-1.421 4.316c-.849 1.07-2.528.748-3.324.235a3.042 3.042 0 0 0-1.284-.474 1.466 1.466 0 0 1-1.476-1.594c0-1.144 1.366-2.029 2.265-2.661a2.966 2.966 0 0 0 1.165-1.723c.288-1.172.99-2.846 2.653-2.846" class="cls-19" transform="translate(-365.511 340.698)"/>
                        <path id="path5422" d="M446.671-82.126h-1.918c-.255.035-.54.132-.587.427a2.288 2.288 0 0 0-.028.39 21.345 21.345 0 0 0 2.612-.014l.011-.012a.644.644 0 0 0-.09-.788" class="cls-5" transform="translate(-366.243 208.58)"/>
                        <path id="path5424" d="M444.125-77.991l2.612-.014-.023.136h-2.593v-.122" class="cls-22" transform="translate(-366.231 205.259)"/>
                        <path id="path5426" d="M452.533-82.129h-.173l.054.314h.168l-.048-.316" class="cls-7" transform="translate(-372.865 208.58)"/>
                        <path id="path5428" d="M450.633-82.129h-.173l.054.314h.168l-.049-.316" class="cls-7" transform="translate(-371.335 208.58)"/>
                        <path id="path5430" d="M454.65-86.493l-.132.853a.483.483 0 0 1-.514.016l-.029-.017-.092-.852h.767" class="cls-21" transform="translate(-374.091 212.094)"/>
                        <path id="path5432" d="M434.706-267.617l-.354-.874a.238.238 0 0 1 .032-.231l.119-.156a.238.238 0 0 1 .156-.091l.921-.13a.237.237 0 0 1 .254.149l.042.108a.236.236 0 0 1 0 .177l-.45 1.082-.718-.033" class="cls-21" transform="translate(-358.351 359.135)"/>
                        <path id="path5434" d="M437.781-266.106l.5-.664a.227.227 0 0 0-.088-.345l-.331-.148c-.088-.039-.508.271-.508.271s.137.358.491.034c.028.06.142.114.142.114a1.021 1.021 0 0 0-.729.713l.519.024" class="cls-21" transform="translate(-360.708 357.657)"/>
                        <path id="path5436" d="M298.662-578.828l.761-.693a.259.259 0 0 0 .077-.242l-.043-.21a.26.26 0 0 0-.111-.164l-.845-.562a.26.26 0 0 0-.321.026l-.092.087a.259.259 0 0 0-.082.176l-.068 1.277.723.307" class="cls-21" transform="translate(-248.521 610.078)"/>
                        <path id="path5438" d="M297.162-577.4l-.183-.892a.248.248 0 0 1 .25-.3l.4.011c.105 0 .372.507.372.507s-.3.289-.5-.2a.39.39 0 0 1-.193.045 1.115 1.115 0 0 1 .381 1.047l-.522-.221" class="cls-20" transform="translate(-247.744 608.346)"/>
                        <path id="path5440" d="M268.308-572.948a72.539 72.539 0 0 1-2.585 6.937 29.226 29.226 0 0 1-4.023 4.94l-1.661-3.977a18.481 18.481 0 0 0 4.172-3.081 31.077 31.077 0 0 0 3.115-5.326l.982.507" class="cls-36" transform="translate(-218.003 604.208)"/>
                        <path id="path5442" d="M213.822-589.5l-.5-.9a.259.259 0 0 1 0-.254l.108-.185a.258.258 0 0 1 .157-.12l.981-.262a.26.26 0 0 1 .3.128l.06.112a.26.26 0 0 1 .021.192l-.345 1.231-.783.058" class="cls-21" transform="translate(-180.361 618.518)"/>
                        <path id="path5444" d="M217.657-587.88l.459-.786a.248.248 0 0 0-.141-.363l-.378-.117c-.1-.031-.514.361-.514.361s.2.37.537-.027a.391.391 0 0 0 .169.1 1.115 1.115 0 0 0-.7.869l.565-.042" class="cls-21" transform="translate(-183.412 616.844)"/>
                        <path id="path5446" d="M189.372-421.609a5.251 5.251 0 0 0-.9 2.2c-.07.333.057.684-.486.707l-.078-1.817.2-1.523-.262.011-.035-.816s1.325-.284 1.517.185l.045 1.056" class="cls-11" transform="translate(-159.842 483.006)"/>
                        <path id="path5448" d="M196.009-422.2l-.955.133a.924.924 0 0 1-.076-1l.031-.058.945-.38.056 1.3" class="cls-21" transform="translate(-165.523 483.46)"/>
                        <path id="path5450" d="M207.794-485.989a19.286 19.286 0 0 0-.5 7.022 1.915 1.915 0 0 1-1.485 2.1 21.807 21.807 0 0 0-6.209 2.991l.064 1.506s9.092-1.212 10.94-2.595 2.383-9.912 2.383-9.912l-5.189-1.112" class="cls-11" transform="translate(-169.332 533.779)"/>
                        <path id="path5452" d="M223.817-573.312c2.128 1.281 1.544 9.744 1.544 9.744l-6.35-.483.418-6.261s-3.026-3.38-3.683-5.919a59.409 59.409 0 0 1-1.1-6.567l1.164-.05s1.526 5.212 2.405 6.512a16.694 16.694 0 0 0 3.7 3.072l1.908-.047" class="cls-36" transform="translate(-181.447 611.772)"/>
                        <g id="g5454" transform="translate(42.968 39.087)">
                            <g id="g5456" clip-path="url(#clip-path-10)">
                                <path id="path5468" fill="url(#linear-gradient-10)" d="M265.705-521.684c.053-.913.326-6.619-.886-8.833.024-.051.046-.1.068-.154 1.352 2.29.992 8.434.949 9.078-.043-.032-.088-.062-.132-.092" transform="translate(-264.819 530.671)"/>
                            </g>
                        </g>
                        <path id="path5470" d="M304.876-396.519a5.249 5.249 0 0 0 2.2.9c.333.07.684-.057.707.486l-1.817.078-1.523-.2.011.261-.816.035s-.285-1.325.185-1.517l1.056-.045" class="cls-11" transform="translate(-253.039 461.735)"/>
                        <path id="path5472" d="M304.29-401.422l.133.955a.924.924 0 0 1-1 .076l-.058-.031-.38-.945 1.3-.056" class="cls-21" transform="translate(-252.586 465.683)"/>
                        <path id="path5474" d="M254.613-539.153l.226-1.19 1.359.093.161 1.4a.282.282 0 0 1-.027.029 3.851 3.851 0 0 0-1.719-.328" class="cls-20" transform="translate(-213.633 577.546)"/>
                        <path id="path5476" d="M251.459-552.867l.434 1.837c.183-.041.328.137.324.317a.352.352 0 0 1 .056.131 2.164 2.164 0 0 0 1.727.082c1.133-.44.008-2.579.008-2.579l-2.546.212" class="cls-21" transform="translate(-211.094 587.801)"/>
                        <path id="path5478" d="M246.429-557.534a1.157 1.157 0 0 0-.392-.459c-.77-.453-.252-.981-.066-1.155.206-.192.082-.607.341-.9.4-.445.908-.153 1.193-.261s.4-.535.864-.406.482.475.646.592.344-.322.845.05c.762.566-.433 1.087-.433 1.087a2.3 2.3 0 0 1-1.6.219.3.3 0 0 0-.334.15 6.424 6.424 0 0 0 .119 1.883l-.348-.2a.853.853 0 0 1-.833-.6" class="cls-11" transform="translate(-206.399 593.969)"/>
                        <path id="path5480" d="M253.309-546.011a.289.289 0 0 0 .4.088.29.29 0 0 0 .087-.4.29.29 0 0 0-.4-.088.29.29 0 0 0-.088.4" class="cls-21" transform="translate(-212.546 582.468)"/>
                        <path id="path5482" d="M243.375-485.857s4.759 4.158 5.214 5.2 2.592 10.926 2.592 10.926l-1.3.056a32.812 32.812 0 0 1-3.732-7.426 3.427 3.427 0 0 0-2.425-2.37c-7.3-1.923-6.7-6.874-6.7-6.874l6.35.483" class="cls-22" transform="translate(-199.461 534.061)"/>
                        <path id="path5484" d="M254.834-536.945l.055.64-2.111-.328.409-.718 1.647.406" class="cls-7" transform="translate(-212.156 575.136)"/>
                        <path id="path5486" d="M557.859-540.941c4.371 1 7.974 1.537 8.049 1.209s-3.408-1.4-7.779-2.395-7.975-1.537-8.05-1.209 3.409 1.4 7.78 2.395" class="cls-4" transform="translate(-451.55 580.033)"/>
                        <path id="path5488" d="M461.572-541.916c4.459-.46 8.046-1.1 8.012-1.438s-3.677-.232-8.136.229-8.046 1.1-8.012 1.438 3.677.232 8.136-.228" class="cls-4" transform="translate(-373.73 580.128)"/>
                        <path id="path5490" d="M536.841-530.9c.388-4.466.431-8.11.1-8.139s-.92 3.568-1.308 8.034-.431 8.11-.1 8.139.92-3.568 1.308-8.034" class="cls-4" transform="translate(-439.656 576.496)"/>
                        <path id="path5492" d="M524.01-625.975c-.9-4.391-1.9-7.9-2.227-7.829s.135 3.682 1.036 8.073 1.9 7.9 2.227 7.829-.135-3.682-1.036-8.073" class="cls-2" transform="translate(-428.68 652.804)"/>
                        <path id="path5494" d="M524.01-625.975c-.9-4.391-1.9-7.9-2.227-7.829s.135 3.682 1.036 8.073 1.9 7.9 2.227 7.829-.135-3.682-1.036-8.073" class="cls-4" transform="translate(-428.68 652.804)"/>
                        <path id="path5496" d="M559.3-621.014c2.76-3.532 4.783-6.564 4.518-6.77s-2.716 2.489-5.477 6.022-4.783 6.564-4.518 6.77 2.716-2.489 5.477-6.022" class="cls-4" transform="translate(-454.545 647.965)"/>
                        <path id="path5498" d="M566.033-532.072c1.884 1.364 3.495 2.356 3.6 2.215s-1.342-1.362-3.227-2.726-3.495-2.356-3.6-2.215 1.342 1.362 3.227 2.726" class="cls-3" transform="translate(-461.794 573.091)"/>
                        <path id="path5500" d="M496.4-584.548c1.884 1.364 3.495 2.356 3.6 2.215s-1.343-1.362-3.227-2.726-3.495-2.356-3.6-2.215 1.342 1.362 3.227 2.726" class="cls-3" transform="translate(-405.724 615.347)"/>
                        <path id="path5502" d="M491.339-532.944c2.148-.895 3.834-1.75 3.767-1.911s-1.862.434-4.01 1.329-3.834 1.75-3.767 1.911 1.863-.434 4.01-1.329" class="cls-3" transform="translate(-401.021 573.148)"/>
                        <path id="path5504" d="M561.269-561.674c2.147-.895 3.834-1.75 3.767-1.911s-1.862.434-4.01 1.329-3.834 1.751-3.767 1.911 1.862-.434 4.01-1.329" class="cls-2" transform="translate(-457.33 596.282)"/>
                        <path id="path5506" fill="#a2debe" d="M617.033-571.952l.332 1.194 1.172.4-1.033.684-.022 1.239-.97-.771-1.185.362.433-1.161-.71-1.015 1.238.054.746-.989" transform="translate(-503.866 602.998)"/>
                        <path id="path5508" d="M469.9-509.275l.332 1.194 1.171.4-1.033.685-.022 1.239-.97-.771-1.185.362.433-1.161-.711-1.015 1.238.053.746-.99" class="cls-5" transform="translate(-385.393 552.529)"/>
                        <path id="path5510" d="M496.512-657.145l.186.668.656.226-.578.383-.013.694-.543-.432-.664.2.243-.65-.4-.568.693.03.418-.554" class="cls-4" transform="translate(-407.523 671.598)"/>
                        <path id="path5512" d="M560.086-488.974l.186.668.656.226-.578.383-.012.694-.544-.432-.663.2.243-.65-.4-.568.693.03.418-.554" class="cls-4" transform="translate(-458.714 536.182)"/>
                        <path id="path5514" d="M543.831-657.326c-1.317 6.945-2.117 12.625-1.787 12.688s1.665-5.516 2.982-12.461 2.117-12.625 1.788-12.687-1.665 5.516-2.982 12.461" class="cls-2" transform="translate(-445.021 681.778)"/>
                        <path id="path5516" d="M476.569-535.945c-3.992 5.833-7 10.716-6.726 10.905s3.738-4.385 7.73-10.219 7-10.716 6.727-10.905-3.738 4.385-7.73 10.219" class="cls-2" transform="translate(-386.928 582.237)"/>
                        <path id="path5518" d="M549-613.211c-5.616 4.293-10 7.989-9.8 8.255s4.922-3 10.537-7.29 10-7.989 9.8-8.255-4.922 3-10.537 7.29" class="cls-4" transform="translate(-442.787 642.103)"/>
                        <path id="path5520" d="M549-613.211c-5.616 4.293-10 7.989-9.8 8.255s4.922-3 10.537-7.29 10-7.989 9.8-8.255-4.922 3-10.537 7.29" class="cls-2" transform="translate(-442.787 642.103)"/>
                        <path id="path5522" d="M435.431-590.154c6.514 2.745 11.9 4.719 12.03 4.41s-5.044-2.785-11.558-5.53-11.9-4.719-12.03-4.41 5.044 2.785 11.558 5.53" class="cls-2" transform="translate(-349.924 622.133)"/>
                        <path id="path5524" d="M551.041-534.472c4.663 5.312 8.648 9.438 8.9 9.217s-3.323-4.707-7.987-10.019-8.648-9.438-8.9-9.217 3.324 4.707 7.987 10.019" class="cls-2" transform="translate(-445.884 580.893)"/>
                        <path id="path5526" d="M602.157-389.377l.36 2.141-1.831-1.068-6.079-4.239 7.549 3.166" class="cls-4" transform="translate(-487.406 458.533)"/>
                        <path id="path5528" d="M621.639-371.158l-3.284-1.258.952-.16z" class="cls-4" transform="translate(-506.528 442.456)"/>
                        <g id="g5530" transform="translate(107.202 65.99)">
                            <g id="g5532" clip-path="url(#clip-path-11)">
                                <path id="path5544" fill="url(#linear-gradient-11)" d="M602.157-389.377l1.15-1.615-8.7-1.551z" transform="translate(-594.608 392.543)"/>
                            </g>
                        </g>
                        <g id="g5546" transform="translate(107.202 65.99)">
                            <g id="g5548" clip-path="url(#clip-path-12)">
                                <path id="path5560" fill="url(#linear-gradient-12)" d="M594.608-392.543l6.079 4.239-1.818 2.278z" transform="translate(-594.608 392.543)"/>
                            </g>
                        </g>
                        <path id="path5562" d="M625.587-361.035a.17.17 0 0 0 .059-.022.165.165 0 0 0 .054-.227 4.613 4.613 0 0 0-.513-.686.164.164 0 0 0-.233-.011.165.165 0 0 0-.012.233 4.3 4.3 0 0 1 .477.637.165.165 0 0 0 .168.076" class="cls-4" transform="translate(-511.798 433.959)"/>
                        <path id="path5564" d="M586.646-351.7a2.362 2.362 0 0 0-1.408-.592.165.165 0 0 1-.156-.174.166.166 0 0 1 .174-.156 2.665 2.665 0 0 1 1.611.677.165.165 0 0 1 .011.233.162.162 0 0 1-.094.052.165.165 0 0 1-.138-.04zm-3.2.974a.165.165 0 0 1-.155-.174 1.833 1.833 0 0 1 .522-1.216 1.686 1.686 0 0 1 .385-.286.165.165 0 0 1 .224.066.165.165 0 0 1-.067.224 1.343 1.343 0 0 0-.309.23 1.491 1.491 0 0 0-.426 1 .165.165 0 0 1-.137.153.15.15 0 0 1-.035.002zm9.344-1.307a.165.165 0 0 1-.17-.161 5.307 5.307 0 0 0-.071-.733 5.02 5.02 0 0 0-.22-.85.165.165 0 0 1 .1-.211.164.164 0 0 1 .211.1 5.328 5.328 0 0 1 .235.906 5.608 5.608 0 0 1 .076.779.165.165 0 0 1-.137.167h-.023zm-4.96 2.581a6.125 6.125 0 0 0-.6-1.506.165.165 0 0 1 .058-.226.166.166 0 0 1 .226.058 6.451 6.451 0 0 1 .631 1.586.165.165 0 0 1-.116.2h-.016a.165.165 0 0 1-.181-.113zm-3.462 1.059a4.3 4.3 0 0 1-.3-.33 3.526 3.526 0 0 1-.624-1.13.165.165 0 0 1 .1-.209.165.165 0 0 1 .208.1 3.187 3.187 0 0 0 .565 1.023 3.97 3.97 0 0 0 .28.305.165.165 0 0 1 0 .233.164.164 0 0 1-.09.047.164.164 0 0 1-.137-.041zm7.766-1.08a.165.165 0 0 1-.071-.222 5 5 0 0 0 .5-1.53.165.165 0 0 1 .189-.137.165.165 0 0 1 .137.189 5.342 5.342 0 0 1-.528 1.631.166.166 0 0 1-.12.087.166.166 0 0 1-.1-.016zm-5.358 2.357a5.154 5.154 0 0 1-1.592-.639.165.165 0 0 1-.054-.227.165.165 0 0 1 .227-.054 4.824 4.824 0 0 0 1.49.6.165.165 0 0 1 .125.2.164.164 0 0 1-.133.127.16.16 0 0 1-.063 0zm3.455-.542a.165.165 0 0 1 .067-.224 4.2 4.2 0 0 0 .809-.567 4.189 4.189 0 0 0 .426-.443.165.165 0 0 1 .233-.022.165.165 0 0 1 .022.233 4.56 4.56 0 0 1-.459.477 4.553 4.553 0 0 1-.873.612.164.164 0 0 1-.051.017.165.165 0 0 1-.172-.086zm-1.66.936a.166.166 0 0 1-.189-.138l-.022-.138a5.441 5.441 0 0 1-.563.01.165.165 0 0 1-.159-.17.164.164 0 0 1 .17-.159c.166.005.331 0 .5-.008-.065-.365-.144-.747-.237-1.161a.165.165 0 0 1 .125-.2.166.166 0 0 1 .2.125c.1.43.178.825.245 1.2a5.041 5.041 0 0 0 .771-.16.165.165 0 0 1 .2.112.165.165 0 0 1-.112.2 5.356 5.356 0 0 1-.808.169l.019.12a.165.165 0 0 1-.136.188zm.139 2.661a.165.165 0 0 1-.158-.172 11.99 11.99 0 0 0-.047-1.644.167.167 0 0 1 .149-.18.165.165 0 0 1 .179.149 12.255 12.255 0 0 1 .048 1.689.166.166 0 0 1-.137.156.172.172 0 0 1-.033-.001zm-.573 2.594a.165.165 0 0 1-.093-.214l.027-.07a7.593 7.593 0 0 0 .387-1.5.165.165 0 0 1 .188-.138.165.165 0 0 1 .138.188 7.973 7.973 0 0 1-.4 1.571l-.029.075a.164.164 0 0 1-.126.1.165.165 0 0 1-.09-.015zm-1.553 2.145a.164.164 0 0 1 .008-.233 5.926 5.926 0 0 0 1.021-1.255.165.165 0 0 1 .227-.056.165.165 0 0 1 .056.227 6.236 6.236 0 0 1-1.078 1.325.159.159 0 0 1-.085.042.165.165 0 0 1-.148-.053zm-2.349 1.2a.165.165 0 0 1 .123-.2 4.638 4.638 0 0 0 1.469-.64.166.166 0 0 1 .229.049.165.165 0 0 1-.048.229 4.98 4.98 0 0 1-1.574.684h-.01a.165.165 0 0 1-.188-.125" class="cls-4" transform="translate(-478.295 427.496)"/>
                        <path id="path5566" d="M579.747-273.114a.166.166 0 0 0 .138-.158.165.165 0 0 0-.161-.169 3.559 3.559 0 0 1-.78-.107.165.165 0 0 0-.2.119.165.165 0 0 0 .119.2 3.879 3.879 0 0 0 .853.118.159.159 0 0 0 .032 0" class="cls-4" transform="translate(-474.628 362.72)"/>
                        <path id="path5570" d="M445.523-353.579c.834 5.012-2.032 6.581-2.032 6.581l1.361 3.106s6.819-4.85.671-9.688" class="cls-4" transform="translate(-365.723 427.159)"/>
                        <path id="path5574" d="M303.012-552.634a3.092 3.092 0 0 0 2.612-.4c-.949 3.086 3.735 2.089 3.735 2.089l-1.13 1.921c-6.4 1.6-5.217-3.615-5.217-3.615" class="cls-5" transform="translate(-252.536 587.761)"/>
                        <path id="path5576" d="M383.507-552.455c-.834 5.012 2.032 6.581 2.032 6.581l-1.361 3.106s-6.819-4.85-.671-9.687" class="cls-4" transform="translate(-315.354 587.298)"/>
                        <path id="path5578" d="M338.255-485.166s-1.064-2.019-.258-5.767a11.632 11.632 0 0 1-3.123 2.17s-.413 2.127 2.371 4.462a4.361 4.361 0 0 1 1.011-.865" class="cls-2" transform="translate(-278.244 537.76)"/>
                        <path id="path5580" d="M209.112-379.542a3.092 3.092 0 0 0 2.468.94c-2.345 2.22 2.224 3.657 2.224 3.657l-1.929 1.116c-6.36-1.755-2.763-5.714-2.763-5.714" class="cls-7" transform="translate(-176.178 448.064)"/>
                        <path id="path5582" d="M272.376-336.155c-3.192 3.953-1.469 6.73-1.469 6.73l-2.713 2.034s-3.551-7.577 4.182-8.764" class="cls-5" transform="translate(-223.914 413.128)"/>
                        <path id="path5584" d="M204.194-298.666s.067-2.281 2.613-5.148a11.638 11.638 0 0 1-3.787.352s-1.406 1.648-.131 5.051a4.356 4.356 0 0 1 1.305-.256" class="cls-3" transform="translate(-171.553 387.086)"/>
                        <path id="path5586" d="M464.025-647.27l3.417 3.14-4.842 1.84z" class="cls-19" transform="translate(-381.11 663.647)"/>
                        <path id="path5588" d="M484.076-630.045l3.626 2.9-4.7 2.171z" class="cls-5" transform="translate(-397.536 649.776)"/>
                        <path id="path5590" d="M505.181-614.051l3.794 2.674-4.564 2.449z" class="cls-19" transform="translate(-414.777 636.897)"/>
                        <path id="path5592" d="M525.407-599.053l3.773 2.7-4.583 2.414z" class="cls-5" transform="translate(-431.032 624.821)"/>
                        <path id="path5594" d="M547.443-584.215l3.951 2.435-4.4 2.725z" class="cls-19" transform="translate(-449.063 612.872)"/>
                        <path id="path5596" d="M570.361-570.745l4.09 2.193-4.234 2.984z" class="cls-5" transform="translate(-467.766 602.027)"/>
                        <path id="path5598" d="M120.377-564.392l3.981-2.386.39 5.165z" class="cls-4" transform="translate(-105.543 598.831)"/>
                        <path id="path5600" d="M142.176-578.465l3.806-2.655.746 5.126z" class="cls-5" transform="translate(-123.096 610.38)"/>
                        <path id="path5602" d="M163.144-593.873l3.64-2.879 1.052 5.072z" class="cls-4" transform="translate(-139.98 622.968)"/>
                        <path id="path5604" d="M183.312-609.052l3.662-2.851 1.014 5.08z" class="cls-5" transform="translate(-156.219 635.167)"/>
                        <path id="path5606" d="M203.377-625.577l3.456-3.1 1.363 5z" class="cls-4" transform="translate(-172.377 648.673)"/>
                        <path id="path5608" d="M222.433-643.334l3.264-3.3 1.66 4.907z" class="cls-5" transform="translate(-187.721 663.133)"/>
                    </g>
                </g>
            </g>
        </g>
    </g>
</svg>
