<svg xmlns="http://www.w3.org/2000/svg" width="150" height="150" viewBox="0 0 150 150">
    <defs>
        <style>
            .cls-15{fill:#fff}.cls-3{fill:#63c0c4}.cls-4{fill:#ffd147}.cls-5{fill:#f6a505}.cls-6{fill:#01888b}.cls-7{fill:#36a5f6}.cls-8{fill:#1a5aeb}.cls-9{fill:#b0d8c8}.cls-10{fill:#63c0c3}.cls-12{fill:#d9ece9}.cls-13{fill:#00878a}.cls-14{fill:#222c53}.cls-16{fill:#f7b58e}.cls-18{fill:#073c5d}.cls-19{fill:#ffd049}.cls-20{fill:#f39e84}.cls-21{fill:#64c0c3}.cls-23{fill:#00666b}.cls-25{fill:#c2e2de}.cls-26{fill:#eef6f5}
        </style>
    </defs>
    <g id="Group_3381" transform="translate(-500 -707)">
        <g id="Group_3376" transform="translate(500 707)">
            <g id="Group_3337">
                <path id="Rectangle_41" fill="#f7f8fa" d="M0 0H149V150H0z"/>
                <g id="Path_3377" fill="#fff" stroke="none">
                    <path d="M148.85 149.85H.15V.15h148.7v149.7z" transform="translate(1)"/>
                    <path fill="#ddd" d="M.3.3v149.4h148.4V.3H.3M0 0h149v150H0V0z" transform="translate(1)"/>
                </g>
                <g id="g5638" transform="translate(19.403 12.751)">
                    <g id="g5644" transform="translate(77.601 28.227)">
                        <path id="path5646" d="M2702.251-2957.653l-8.952-11.609a1.991 1.991 0 0 1-.332-2.17c.38-.474 1.144-.168 1.628.664l7.655 13.114" class="cls-3" transform="translate(-2692.767 2971.655)"/>
                    </g>
                    <g id="g5648" transform="translate(86.683 41.628)">
                        <path id="path5650" d="M2950.28-2593.57l9.363 12.14c.6.775.611 1.619.038 1.812-.565.19-1.455-.34-1.918-1.135l-7.483-12.818" class="cls-3" transform="translate(-2950.28 2593.57)"/>
                    </g>
                    <g id="g5652" transform="translate(86.524 23.736)">
                        <path id="path5654" d="M2945.767-3079.917l21.346-16.378c2.037-1.562 4.271-2.48 4.69-1.881.421.6-1.228 2.42-3.4 3.809l-22.633 14.451" class="cls-3" transform="translate(-2945.767 3098.362)"/>
                    </g>
                    <g id="g5656" transform="translate(74.752 41.672)">
                        <path id="path5658" d="M2624.48-2592.3l-11.139 8.533c-.513.393-1.11.476-1.3.191-.193-.288.1-.836.65-1.186l11.79-7.538" class="cls-3" transform="translate(-2611.981 2592.303)"/>
                    </g>
                    <g id="g5660" transform="translate(86.77 18.256)">
                        <path id="path5662" d="M2952.743-3228.922l4.852-20.566c.391-1.66 1.382-3.3 2.131-3.48.771-.184.9 1.259.29 3.028l-7.273 21.018" class="cls-4" transform="translate(-2952.743 3252.983)"/>
                    </g>
                    <g id="g5664" transform="translate(82.351 41.534)">
                        <path id="path5666" d="M2832.094-2596.2l-3.2 13.535c-.162.683-.643 1.163-1.034 1.045-.389-.117-.533-.777-.307-1.432l4.542-13.148" class="cls-4" transform="translate(-2827.445 2596.205)"/>
                    </g>
                    <g id="g5668" transform="translate(86.487 41.896)">
                        <path id="path5670" d="M2944.723-2586.005l22.075.62c1.866.052 3.164.693 2.728 1.365-.431.665-2.346 1.028-4.052.8l-20.75-2.783" class="cls-4" transform="translate(-2944.723 2586.005)"/>
                    </g>
                    <g id="g5672" transform="translate(72.529 40.151)">
                        <path id="path5674" d="M2563.688-2633.42l-13.585-.39c-.668-.02-1.205-.385-1.171-.792.036-.414.647-.7 1.326-.612l13.43 1.794" class="cls-4" transform="translate(-2548.93 2635.231)"/>
                    </g>
                    <g id="g5676" transform="translate(86.679 30.682)">
                        <path id="path5678" d="M2950.157-2890.726l6.178-10.365c.466-.781 1.167-1.384 1.5-1.279.34.106.139.887-.419 1.654l-7.26 9.989" class="cls-4" transform="translate(-2950.157 2902.381)"/>
                    </g>
                    <g id="g5680" transform="translate(81.499 41.925)">
                        <path id="path5682" d="M2808.741-2585.169l-4.51 7.561c-.239.4-.62.641-.822.524-.2-.118-.144-.545.132-.924l5.2-7.161" class="cls-4" transform="translate(-2803.288 2585.169)"/>
                    </g>
                    <g id="g5684" transform="translate(86.62 42.041)">
                        <path id="path5686" d="M2948.483-2581.907l9.243 3.647c.64.252.981.711.729.981-.25.269-.975.228-1.55-.083l-8.423-4.545" class="cls-4" transform="translate(-2948.483 2581.907)"/>
                    </g>
                    <g id="g5688" transform="translate(78.693 38.153)">
                        <path id="path5690" d="M2732.03-2687.533l-7.7-3.042c-.435-.172-.707-.544-.585-.8.123-.265.6-.3 1.017-.074l7.272 3.922" class="cls-4" transform="translate(-2723.712 2691.605)"/>
                    </g>
                    <g id="g5692" transform="translate(86.581 37.282)">
                        <path id="path5694" d="M2947.4-2711.254l11.672-4.652c.9-.359 1.739-.375 1.778-.026.04.35-.742.9-1.653 1.169l-11.8 3.51" class="cls-5" transform="translate(-2947.397 2716.185)"/>
                    </g>
                    <g id="g5696" transform="translate(77.941 42.051)">
                        <path id="path5698" d="M2711.5-2581.624l-8.2 3.265c-.427.17-.843.123-.9-.1-.06-.224.268-.533.71-.665l8.392-2.5" class="cls-5" transform="translate(-2702.393 2581.624)"/>
                    </g>
                    <g id="g5700" transform="translate(86.773 41.922)">
                        <path id="path5702" d="M2952.825-2585.269l2.157 8.147c.127.482-.022.945-.318 1-.295.053-.61-.325-.678-.812l-1.161-8.333" class="cls-5" transform="translate(-2952.825 2585.269)"/>
                    </g>
                    <g id="g5704" transform="translate(84.423 31.942)">
                        <path id="path5706" d="M2888.646-2856.443l-2.367-8.938c-.156-.587-.026-1.248.284-1.421.315-.177.673.232.762.873l1.32 9.487" class="cls-5" transform="translate(-2886.213 2866.844)"/>
                    </g>
                    <g id="g5708" transform="translate(99.419 15.863)">
                        <path id="path5710" d="M3311.414-3319.131l1.263-.212.543-1.166.591 1.142 1.271.158-.9.918.242 1.264-1.146-.575-1.121.623.19-1.274-.936-.878" class="cls-3" transform="translate(-3311.414 3320.509)"/>
                    </g>
                    <g id="g5712" transform="translate(88.862 57.042)">
                        <path id="path5714" d="M3012.065-2157.729l.846-.142.364-.781.4.765.851.106-.6.614.162.847-.768-.385-.75.417.127-.853-.626-.589" class="cls-6" transform="translate(-3012.065 2158.652)"/>
                    </g>
                    <g id="g5716" transform="translate(5.206 40.606)">
                        <path id="path5718" d="M649.446-2608.4l-8.952-11.608a1.991 1.991 0 0 1-.331-2.17c.379-.474 1.143-.168 1.629.664l7.654 13.114" class="cls-3" transform="translate(-639.962 2622.402)"/>
                    </g>
                    <g id="g5720" transform="translate(14.288 54.006)">
                        <path id="path5722" d="M897.477-2244.309l9.363 12.14c.6.775.61 1.62.037 1.813-.565.19-1.454-.34-1.918-1.134l-7.482-12.818" class="cls-3" transform="translate(-897.477 2244.309)"/>
                    </g>
                    <g id="g5724" transform="translate(14.128 36.115)">
                        <path id="path5726" d="M892.946-2730.669l21.347-16.378c2.036-1.563 4.271-2.48 4.69-1.881.421.6-1.227 2.419-3.4 3.808l-22.633 14.45" class="cls-3" transform="translate(-892.946 2749.113)"/>
                    </g>
                    <g id="g5728" transform="translate(2.357 54.051)">
                        <path id="path5730" d="M571.677-2243.048l-11.138 8.533c-.512.393-1.11.476-1.3.19-.192-.287.1-.835.65-1.185l11.79-7.538" class="cls-3" transform="translate(-559.179 2243.048)"/>
                    </g>
                    <g id="g5732" transform="translate(14.375 30.635)">
                        <path id="path5734" d="M899.942-2879.671l4.852-20.566c.392-1.661 1.382-3.3 2.132-3.481.771-.184.9 1.259.289 3.028l-7.273 21.019" class="cls-4" transform="translate(-899.942 2903.733)"/>
                    </g>
                    <g id="g5736" transform="translate(9.956 53.912)">
                        <path id="path5738" d="M779.292-2246.96l-3.2 13.535c-.162.684-.643 1.163-1.034 1.045-.389-.117-.533-.777-.306-1.432l4.541-13.148" class="cls-4" transform="translate(-774.643 2246.96)"/>
                    </g>
                    <g id="g5740" transform="translate(14.092 54.274)">
                        <path id="path5742" d="M891.911-2236.746l22.075.62c1.866.052 3.163.694 2.727 1.365-.431.664-2.346 1.027-4.052.8l-20.75-2.783" class="cls-4" transform="translate(-891.911 2236.746)"/>
                    </g>
                    <g id="g5744" transform="translate(.134 52.53)">
                        <path id="path5746" d="M510.882-2284.163l-13.586-.39c-.668-.02-1.2-.385-1.17-.792.035-.415.647-.7 1.325-.613l13.43 1.794" class="cls-4" transform="translate(-496.124 2285.974)"/>
                    </g>
                    <g id="g5748" transform="translate(14.284 43.061)">
                        <path id="path5750" d="M897.352-2541.465l6.177-10.365c.465-.781 1.167-1.384 1.5-1.279.339.106.138.887-.419 1.654l-7.26 9.99" class="cls-4" transform="translate(-897.352 2553.12)"/>
                    </g>
                    <g id="g5752" transform="translate(9.104 54.304)">
                        <path id="path5754" d="M755.927-2235.92l-4.511 7.561c-.239.4-.62.641-.822.524-.2-.117-.143-.545.132-.924l5.2-7.161" class="cls-4" transform="translate(-750.474 2235.92)"/>
                    </g>
                    <g id="g5756" transform="translate(14.225 54.419)">
                        <path id="path5758" d="M895.68-2232.66l9.244 3.647c.64.252.981.711.729.981-.251.269-.975.227-1.55-.083l-8.423-4.545" class="cls-4" transform="translate(-895.68 2232.66)"/>
                    </g>
                    <g id="g5760" transform="translate(6.298 50.531)">
                        <path id="path5762" d="M679.238-2338.3l-7.7-3.042c-.436-.172-.706-.544-.585-.8.123-.265.6-.3 1.017-.075l7.272 3.922" class="cls-4" transform="translate(-670.92 2342.37)"/>
                    </g>
                    <g id="g5764" transform="translate(14.186 49.66)">
                        <path id="path5766" d="M894.584-2362l11.672-4.653c.9-.359 1.739-.375 1.778-.026.039.35-.743.9-1.653 1.168l-11.8 3.511" class="cls-5" transform="translate(-894.584 2366.935)"/>
                    </g>
                    <g id="g5768" transform="translate(5.546 54.429)">
                        <path id="path5770" d="M658.708-2232.377l-8.2 3.264c-.427.17-.843.123-.9-.1-.06-.224.267-.533.71-.666l8.393-2.5" class="cls-5" transform="translate(-649.599 2232.377)"/>
                    </g>
                    <g id="g5772" transform="translate(14.378 54.3)">
                        <path id="path5774" d="M900.036-2236.028l2.156 8.148c.128.482-.022.945-.318 1-.3.053-.609-.324-.677-.812l-1.161-8.333" class="cls-5" transform="translate(-900.036 2236.028)"/>
                    </g>
                    <g id="g5776" transform="translate(12.029 44.321)">
                        <path id="path5778" d="M835.843-2507.19l-2.367-8.938c-.155-.586-.026-1.248.284-1.421.316-.176.673.233.763.873l1.32 9.486" class="cls-5" transform="translate(-833.41 2517.59)"/>
                    </g>
                    <g id="g5780" transform="translate(10.672 33.752)">
                        <path id="path5782" d="M794.934-2814.408l1.263-.212.543-1.166.591 1.143 1.271.159-.9.917.243 1.264-1.146-.575-1.121.623.19-1.273-.936-.879" class="cls-3" transform="translate(-794.934 2815.785)"/>
                    </g>
                    <path id="path5784" d="M959.26-1808.486l.846-.142.364-.781.4.765.852.106-.6.614.163.847-.768-.385-.751.417.127-.853-.627-.589" class="cls-6" transform="translate(-942.793 1878.829)"/>
                    <g id="g5786" transform="translate(20.859 58.888)">
                        <path id="path5788" d="M1083.8-2052.4h53.913v-54.183H1083.8v54.183" class="cls-7" transform="translate(-1083.802 2106.585)"/>
                    </g>
                    <g id="g5790" transform="translate(74.772 50.032)">
                        <path id="path5792" d="M2612.542-2293.411l12.882-9.477v-53.561l-12.882 8.856v54.182" class="cls-8" transform="translate(-2612.542 2356.449)"/>
                    </g>
                    <g id="g5794" transform="translate(20.859 50.032)">
                        <path id="path5796" d="M1083.8-2347.593l13.731-8.856h53.069l-12.882 8.856H1083.8" class="cls-7" transform="translate(-1083.8 2356.449)"/>
                    </g>
                    <path id="path5798" d="M1757.472-2052.4h-8.9v-54.182h8.9v54.182" class="cls-9" transform="translate(-1704.266 2165.469)"/>
                    <g id="g5800" transform="translate(44.303 50.032)">
                        <path id="path5802" d="M1757.476-2347.575l9.466-8.855h-8.88l-9.489 8.855h8.9" class="cls-10" transform="translate(-1748.573 2356.431)"/>
                    </g>
                    <g id="g5804" transform="translate(20.477 78.602)">
                        <path id="path5806" d="M1127.2-1543.385h-54.239v-6.971h54.239v6.971" class="cls-9" transform="translate(-1072.958 1550.356)"/>
                    </g>
                    <g id="g5808" transform="translate(74.715 71.876)">
                        <path id="path5810" d="M2610.926-1726.425l13.576-6.971-.15-6.726-13.426 6.726v6.971" class="cls-9" transform="translate(-2610.926 1740.122)"/>
                    </g>
                    <g id="g5812" transform="translate(31.616 74.46)">
                        <path id="path5814" fill="#1f2c54" d="M1423.559-1665.305l-.019-.487c-.074-2.02-5.258-3.295-17.143 6.052-12.543-8.435-17.618-6.777-17.543-4.756l.017.486a2.877 2.877 0 0 1-.06-.479l.358 9.693c.122 3.3 5.736 2 10.251 1.531l-6.127 12.025c-.226.449.025.663.557.478l2.632-.918a1.109 1.109 0 0 1 1.356.477l1.052 2.213c.213.448.573.448.8 0l6.76-18.082 6.4 17.676c.213.449.571.449.8 0l1.116-2.213a1.137 1.137 0 0 1 1.372-.478l2.6.916c.528.185.785-.03.572-.479l-6.039-12.171c4.7.2 10.8 1.161 10.669-2.272l-.358-9.693a2.86 2.86 0 0 1-.025.481" transform="translate(-1388.812 1667.23)"/>
                    </g>
                    <path id="path5816" d="M1465-1572.029c1.977-3.316 11.3 2.322 11.3 2.322s-13.207.872-11.3-2.322" class="cls-12" transform="translate(-1430.517 1650.87)"/>
                    <g id="g5818" transform="translate(52.55 76.868)">
                        <path id="path5820" d="M1982.41-1595.232s8.882-6.317 11.1-3.158c2.136 3.044-11.1 3.158-11.1 3.158" class="cls-12" transform="translate(-1982.41 1599.275)"/>
                    </g>
                    <path id="path5822" d="M1857.307-452.347l-.793 2.108a.7.7 0 0 0 .226.822 2.625 2.625 0 0 0 .416.192 25.107 25.107 0 0 0 1.06-2.877l-.009-.017a.751.751 0 0 0-.9-.227" class="cls-13" transform="translate(-1808.368 569.927)"/>
                    <path id="path5824" d="M1875.742-440.8l1.059-2.877.139.081-1.067 2.851-.131-.054" class="cls-14" transform="translate(-1826.954 561.505)"/>
                    <path id="path5826" d="M1869.185-427.066l-.07.191.366.07.069-.184-.365-.077" class="cls-15" transform="translate(-1820.561 545.48)"/>
                    <path id="path5828" d="M1864.864-415.572l-.069.191.365.07.069-.184-.365-.077" class="cls-15" transform="translate(-1816.393 534.394)"/>
                    <path id="path5830" d="M1846.471-464.625l.879.5a.569.569 0 0 1-.194.572l-.031.025-.971-.251.316-.844" class="cls-16" transform="translate(-1798.411 581.709)"/>
                    <path id="path5832" fill="#00666c" d="M1559.165-839.958a5.084 5.084 0 0 1 1.1 2.6 34.319 34.319 0 0 1-.307 4.231 3.551 3.551 0 0 0 1.514 3.023l4.716 3.444-.316.844s-6.455-.973-8.149-3.878-2.1-9.483-2.1-9.483l3.542-.786" transform="translate(-1518.124 943.738)"/>
                    <path id="path5834" d="M1717.881-940.971l2.426 5.443a3.283 3.283 0 0 1 1.428.5 1.043 1.043 0 0 1 .154.94.334.334 0 0 1-.547.194 2.31 2.31 0 0 0-.836-.533 1.006 1.006 0 0 1-.777-.526l-3.48-5.485 1.632-.535" class="cls-16" transform="translate(-1673.086 1041.171)"/>
                    <path id="path5836" d="M1334.439-1475.664l-1.243-1.068.963-5.276 1.121-.576a.2.2 0 0 0-.146-.363h-.011a1.368 1.368 0 0 1-.681.05s-.5.509.033.274a.68.68 0 0 1 .459-.145.6.6 0 0 0 .415-1.026.615.615 0 0 0-.434-.172 1.768 1.768 0 0 0-1.261.59.638.638 0 0 0-.115.284l-.143.979s-1.927 5.31-1.927 5.877 1.08 1.344 1.08 1.344l1.891-.776" class="cls-16" transform="translate(-1301.875 1564.917)"/>
                    <path id="path5838" d="M1451.213-844.864s.748.906.3 3.009a13.65 13.65 0 0 1-2.389 4.2 3.71 3.71 0 0 0-.437 2.9 25.118 25.118 0 0 1-.415 8.581h-.9s-1.346-6.913-1.745-11.772a14.071 14.071 0 0 1 1.545-7.664l4.037.748" class="cls-6" transform="translate(-1411.967 949.191)"/>
                    <path id="path5840" d="M1361.905-1245.443c1.6 1.183 3.49 6.873 3.49 6.873l-1.407.793-2.29-3.159a30.718 30.718 0 0 0 .325 6.462c-.249 1.052-1.438.933-3.365.566a9.543 9.543 0 0 1-3.19-1.2s-.083-5.074-.332-7.764.243-2.978-.432-2.889a24.014 24.014 0 0 1-3.973-3.626l2.291-.448 4.935 2.905a21.315 21.315 0 0 1 3.949 1.489" class="cls-18" transform="translate(-1320.457 1339.09)"/>
                    <path id="path5842" d="M1538.977-1315.73l-1.19 1.182a2.081 2.081 0 0 0-.565 1.926l.14.631 1.615-3.739" class="cls-16" transform="translate(-1500.325 1402.648)"/>
                    <path id="path5844" d="M1434.681-1328.344c2.891 0 1.661 5.577 1.661 5.577s-.515 3.618-1.661 5.071c-.992 1.258-2.955.879-3.885.276a3.543 3.543 0 0 0-1.5-.557 1.719 1.719 0 0 1-1.725-1.873c0-1.344 1.6-2.384 2.648-3.126a3.485 3.485 0 0 0 1.362-2.024c.336-1.377 1.157-3.343 3.1-3.343" class="cls-19" transform="translate(-1394.587 1414.814)"/>
                    <path id="path5846" d="M1436.4-269.076h-2.243c-.3.042-.631.155-.686.5a2.667 2.667 0 0 0-.032.458 24.739 24.739 0 0 0 3.053-.017l.013-.014a.76.76 0 0 0-.1-.926" class="cls-13" transform="translate(-1400.252 393.093)"/>
                    <path id="path5848" d="M1433.348-242.436l3.053-.017-.026.159h-3.031v-.143" class="cls-18" transform="translate(-1400.157 367.41)"/>
                    <path id="path5850" d="M1486.732-269.079h-.2l.063.369h.2l-.057-.371" class="cls-15" transform="translate(-1451.468 393.093)"/>
                    <path id="path5852" d="M1474.452-269.079h-.2l.063.369h.2l-.057-.371" class="cls-15" transform="translate(-1439.621 393.093)"/>
                    <path id="path5854" d="M1497.253-297.253l-.154 1a.562.562 0 0 1-.6.019l-.034-.02-.108-1h.9" class="cls-16" transform="translate(-1460.948 420.268)"/>
                    <path id="path5856" d="M1403.293-1455.6h.011a.2.2 0 0 1 .146.363l-.62.319-.041-.018a4.584 4.584 0 0 0-.659-.241 8.172 8.172 0 0 1 1.163-.419" class="cls-16" transform="translate(-1370.045 1537.578)"/>
                    <path id="path5858" d="M807.079-1494.239l.077 1.422-1.221.249-.553-2.095 1.7.424" class="cls-20" transform="translate(-794.342 1575.239)"/>
                    <path id="path5860" d="M771.993-1440.353v-3.971a4.394 4.394 0 0 0-2.729-1.017 5.214 5.214 0 0 0-.713-.029c-.01 0-2.677-.2-2.185 4.046 1.065 3.609.553 5.2.553 5.2s2.786 1.142 4.342.336c-.391-.9.33-3.381.721-4.584l.01.018" class="cls-21" transform="translate(-756.644 1527.694)"/>
                    <path id="path5862" d="M785.428-1460.84a2.179 2.179 0 0 0-.718 1.791 2.367 2.367 0 0 0 .781 1.272 2.035 2.035 0 0 1 .406 2.271l-.016.034a.879.879 0 0 0-.025.762 1.077 1.077 0 0 0 1.987-.14 4.9 4.9 0 0 0 .266-1.148 1.268 1.268 0 0 0-.533-1.309.57.57 0 0 1-.191-.784c.311-.483.575-1.171-.024-1.607a4.859 4.859 0 0 1-1.407-1.525l-.526.383" class="cls-14" transform="translate(-774.373 1542.984)"/>
                    <path id="path5864" d="M741.5-933.455l.746.13c.154-.93 2.475-5.341 2.664-7.632a51.974 51.974 0 0 1 .8-5.375l-2.5-.746s-.632 0 .062 5.184c-1.561 2.06-1.98 6.732-1.774 8.439" class="cls-20" transform="translate(-732.67 1047.061)"/>
                    <path id="path5866" d="M802.009-1581.063l-2.279.353-.086 1.644v.069c.04.015.079.031.118.048l.019.009.019.008a1.5 1.5 0 0 1 .814 1.193 2.563 2.563 0 0 0 .928.161.939.939 0 0 0 .525-.12c.635-.906-.06-3.367-.06-3.367" class="cls-16" transform="translate(-788.807 1658.577)"/>
                    <path id="path5868" d="M770.9-1597.106c.6-.052-.345.07.6-.052-.074-.5 1.256-2.119 1.506-2.443a1.964 1.964 0 0 0 .417-1.623s-1.873-1.351-2.8-.8a1.9 1.9 0 0 0-.908 1.559c-.035.394-.136 1.074 1.183 3.354" class="cls-14" transform="translate(-759.922 1678.919)"/>
                    <path id="path5870" d="M794.97-1000.264s.586 3.546 1.4 7.338c-.852 2.29.446 8.68.47 8.657.1-.093.546.463.546.463s.947-5.64 1.156-8.182.53-5.644.53-5.644l-4.1-2.631" class="cls-16" transform="translate(-784.297 1098.363)"/>
                    <path id="path5872" d="M836.9-559.039a.839.839 0 0 0-.29.689c.065.386.157 1.29.157 1.29h.365l-.011-.844c0-.055.784.844.916.844h1.934s.128-.569-1.007-.752a4.132 4.132 0 0 1-2.064-1.227" class="cls-18" transform="translate(-824.462 672.776)"/>
                    <path id="path5874" fill="#ffda71" d="M798.226-1468.266l-.578.118a.241.241 0 0 1-.283-.189l-.011-.056a.242.242 0 0 1 .187-.284l.578-.118a.241.241 0 0 1 .283.188l.011.056a.242.242 0 0 1-.187.284" transform="translate(-786.592 1550.292)"/>
                    <path id="path5876" d="M754.328-1199.41a43.72 43.72 0 0 1 .633 5.362c0 .979-.45 5.134-.45 5.134s-3.7.108-4.457.108c-.1-2.945-1.189-4.887-1.189-7.244a5.149 5.149 0 0 1 1.458-3.113l4-.247" class="cls-23" transform="translate(-739.819 1290.451)"/>
                    <path id="path5878" d="M904.473-1412.292l-.167.048a1.037 1.037 0 0 0-.7.7l-.04.133a17.389 17.389 0 0 1-3.091.716c-1.662-4.754-2.224-5.113-2.224-5.113a1.677 1.677 0 0 0-1.072 1.645c0 1.092.726 4.185 2.106 5.153a1.3 1.3 0 0 0 1.3.089c2.219-1.059 3.784-1.964 3.784-1.964l1.675-.93-.74-.391a1.113 1.113 0 0 0-.831-.084" class="cls-16" transform="translate(-882.902 1499.181)"/>
                    <path id="path5880" d="M743.656-585.48l-.052.8a.753.753 0 0 0 .132.476 3.006 3.006 0 0 0 .581.607c-.561.181-1.07-.45-1.338-.87a1.006 1.006 0 0 1-.145-.689l.094-.633.727.305" class="cls-20" transform="translate(-733.99 698.574)"/>
                    <path id="path5882" d="M718.5-564.692s-.493.044-.575.422-.315 1.139-.315 1.139l.269.216.379-.756a11.227 11.227 0 0 0 .945 1.159h2.11s0-.7-1.321-.734c-1.217-.029-1.493-1.446-1.493-1.446" class="cls-14" transform="translate(-709.663 678.229)"/>
                    <g id="g5884" transform="translate(39.419 20.517)">
                        <path id="path5886" fill="#36c2f6" d="M1610.082-3153.345h35.682v-35.861h-35.682v35.861" transform="translate(-1610.082 3189.206)"/>
                    </g>
                    <g id="g5888" transform="translate(75.101 14.656)">
                        <path id="path5890" d="M2621.861-3312.832l8.526-6.273v-35.449l-8.526 5.861v35.861" class="cls-8" transform="translate(-2621.861 3354.554)"/>
                    </g>
                    <g id="g5892" transform="translate(39.419 14.656)">
                        <path id="path5894" d="M1610.072-3348.693l9.088-5.861h35.12l-8.526 5.861h-35.682" class="cls-7" transform="translate(-1610.072 3354.554)"/>
                    </g>
                    <g id="g5896" transform="translate(54.936 20.517)">
                        <path id="path5898" d="M2055.965-3153.345h-5.892v-35.861h5.892v35.861" class="cls-12" transform="translate(-2050.073 3189.206)"/>
                    </g>
                    <g id="g5900" transform="translate(54.935 14.656)">
                        <path id="path5902" d="M2055.948-3348.693l6.265-5.861h-5.877l-6.28 5.861h5.892" class="cls-9" transform="translate(-2050.056 3354.554)"/>
                    </g>
                    <g id="g5904" transform="translate(39.166 33.564)">
                        <path id="path5906" d="M1638.806-2816.453h-35.9v-4.614h35.9v4.614" class="cls-12" transform="translate(-1602.908 2821.067)"/>
                    </g>
                    <g id="g5908" transform="translate(75.064 29.113)">
                        <path id="path5910" d="M2620.813-2937.6l8.986-4.614-.1-4.452-8.886 4.452v4.614" class="cls-9" transform="translate(-2620.813 2946.663)"/>
                    </g>
                    <g id="g5912" transform="translate(59.692 30.068)">
                        <path id="path5914" d="M2196.77-2919.036a3.117 3.117 0 0 1 1.253 2.771c-.014 2.029-1.56 3.442-3.871 3.736s-7.756.49-9.218 0c0 0 6.183-.5 4.539-4.394-.893-2.116 3.857-2.785 3.857-2.785s2.45-.112 3.438.672" class="cls-25" transform="translate(-2184.934 2919.713)"/>
                    </g>
                    <g id="g5916" transform="translate(55.291 29.808)">
                        <path id="path5918" d="M2064.766-2920.791c3.04.452 7.561-7.841 11.626-5.318-1.141-1.47-9.779-.771-9.779-.771a3.954 3.954 0 0 0-2.994 2.085c-.793 1.313-.4 3.483-3.463 3.933 2.02.616 2.623-.226 4.609.07" class="cls-15" transform="translate(-2060.156 2927.045)"/>
                    </g>
                    <g id="g5920" transform="translate(57.891 36.751)">
                        <path id="path5922" d="M2135.829-2730.842s2.214-.554 6.976 1.718a19.907 19.907 0 0 0 10.29 1.805 9.505 9.505 0 0 1-6.656 2.043c.488 1.417 2.716 3.023 2.716 3.023.162.266-4.753-.075-9.064-2.519-4.128-2.34-3.565-4.982-5.57-5.92s1.309-.151 1.309-.151" class="cls-26" transform="translate(-2133.876 2731.151)"/>
                    </g>
                    <g id="g5924" transform="translate(54.103 34.643)">
                        <path id="path5926" fill="#0e3a5d" d="M2026.578-2787.892a2.427 2.427 0 0 1 .516-2.489c.683-.361 2.366-.491 2.909.81a1.516 1.516 0 0 1-.82 1.939 9.393 9.393 0 0 1-2.605-.259" transform="translate(-2026.461 2790.627)"/>
                    </g>
                    <g id="g5928" transform="translate(42.634 30.339)">
                        <path id="path5930" d="M1716.813-2907.92s-2.912 1.518-3.921-1.039c-1.142-2.894-3.8-3.288-4.65-2.714s-8.591.322-6.712-.225c5.626-1.636 7.185 8.363 15.09 6.721a8.947 8.947 0 0 0 2-.548l-1.8-2.195" class="cls-25" transform="translate(-1701.237 2912.08)"/>
                    </g>
                    <g id="g5932" transform="translate(39.127 30.062)">
                        <path id="path5934" d="M1614.467-2919.176s-1.5-.64-6.127-.705-5.667.342-6.28 1.839-.6 4.865 6.183 5.644 8.864-.37 12.141-.313.293-.377.293-.377-4.159.608-6.531-.084a3.75 3.75 0 0 1-2.826-3.737c.081-1.344 1.265-3 3.147-2.267" class="cls-15" transform="translate(-1601.811 2919.887)"/>
                    </g>
                    <g id="g5936" transform="translate(56.526 37.635)">
                        <path id="path5938" d="M2095.448-2706.224h-.3.3" class="cls-12" transform="translate(-2095.152 2706.228)"/>
                    </g>
                    <g id="g5940" transform="translate(55.13 34.063)">
                        <path id="path5942" fill="#d7ecea" d="M2055.786-2806.379l-.031-.011a1.318 1.318 0 0 1-.177-.094 4.212 4.212 0 0 1 2.152-.526c1.991-.006 3.62.42 3.62 1.987 0 1.414-.961 1.5-.961 1.5s-1.579.1-3.117.092a1.517 1.517 0 0 0 .82-1.938 1.977 1.977 0 0 0-2.307-1.007" transform="translate(-2055.579 2807.009)"/>
                    </g>
                    <g id="g5944" transform="translate(38.652 37.197)">
                        <path id="path5946" d="M1595.324-2712.486a18.9 18.9 0 0 1-6.99-1.05s5.862-.986 9.246-2.715a30.614 30.614 0 0 1 6.479-2.322h3.236l-.468.437c-2.062-.287-2.567 4.1-5.89 6.167a13.016 13.016 0 0 1-7.213 1.973 6.377 6.377 0 0 0 1.6-2.491" class="cls-26" transform="translate(-1588.333 2718.572)"/>
                    </g>
                    <g id="g5948" transform="translate(53.795 34.03)">
                        <path id="path5950" d="M2017.722-2805.734c0-1.206 1.58-2.184 3.53-2.184s3.529.978 3.529 2.184-1.58 2.184-3.529 2.184-3.53-.978-3.53-2.184" class="cls-25" transform="translate(-2017.722 2807.918)"/>
                    </g>
                    <g id="g5952" transform="translate(36.521 46.352)">
                        <path id="path5954" d="M1530.37-2458.428l.024.148-.537.762-1.937-1.381.969-1.374 1.481 1.844" class="cls-16" transform="translate(-1527.92 2460.272)"/>
                    </g>
                    <g id="g5956" transform="translate(29.507 29.993)">
                        <path id="path5958" fill="#ad4128" d="M1330.1-2921.844a3.879 3.879 0 0 0 .2 5.456c2.712 2.688 10.211 5 10.211 5a6.3 6.3 0 0 0-1.828 1.859c-.758 1.206-1.41 3.03-2.436 4.517l2.39 1.7s5.239-5.161 6.249-6.825.687-2.271-.47-3.26-9.175-8.264-9.175-8.264l-5.136-.185" transform="translate(-1329.035 2921.844)"/>
                    </g>
                    <g id="g5960" transform="translate(35.112 47.697)">
                        <path id="path5962" d="M1489.456-2422.326l2.08 1.379a10.9 10.9 0 0 0 .583 1.529c.161.191.694.585.881.752a1.2 1.2 0 0 1-.037 1.531l-5-3.565 1.494-1.627" class="cls-18" transform="translate(-1487.962 2422.326)"/>
                    </g>
                    <g id="g5964" transform="translate(35.112 49.02)">
                        <path id="path5966" d="M1488.18-2385.01l-.226.305 5 3.564a1.684 1.684 0 0 0 .185-.334l-4.96-3.535" class="cls-13" transform="translate(-1487.954 2385.01)"/>
                    </g>
                    <g id="g5968" transform="translate(20.785 14.128)">
                        <path id="path5970" d="M1085.678-3367.439l-.275-.773-3.626-1.25s-.214.631.19.854a19.192 19.192 0 0 1 2.039.714 4.087 4.087 0 0 1 .177.456h1.5" class="cls-16" transform="translate(-1081.72 3369.462)"/>
                    </g>
                    <g id="g5972" transform="translate(42.409 14.764)">
                        <path id="path5974" d="M1694.877-3348.891l.516-.512 2.112-2.108s1.138 1.485.5 2.057a4.021 4.021 0 0 1-1.593.781l-.644.761-.892-.979" class="cls-16" transform="translate(-1694.877 3351.511)"/>
                    </g>
                    <g id="g5976" transform="translate(27.767 53.143)">
                        <path id="path5978" d="M1280.279-2268.672l-.594 1.333 2.506.5.905-1.828h-2.817" class="cls-16" transform="translate(-1279.685 2268.672)"/>
                    </g>
                    <g id="g5980" transform="translate(31.084 17.384)">
                        <path id="path5982" d="M1373.773-3270.491a15.626 15.626 0 0 1 2.538-1.058 29.316 29.316 0 0 0 4.689-1.751c.557-.4 4.073-4.3 4.073-4.3l1.689 1.436s-2.688 4.2-2.952 4.593a22.926 22.926 0 0 1-5.552 3.357c-1.455.4-4.836-1.92-4.485-2.281" class="cls-18" transform="translate(-1373.748 3277.596)"/>
                    </g>
                    <g id="g5984" transform="translate(30.644 21.458)">
                        <path id="path5986" fill="#f39f84" d="M1361.274-3161.7l.116.835 1.578-.479v-1.3h-1.454l-.239.946" transform="translate(-1361.274 3162.648)"/>
                    </g>
                    <g id="g5988" transform="translate(31.431 18.563)">
                        <path id="path5990" d="M1383.944-3241.288s.181.706.593.741 1.26-.158 1.339-.654a3.194 3.194 0 0 0-1.425-3.12c-.282.008-.912 1.717-.868 1.752s.362 1.28.362 1.28" class="cls-16" transform="translate(-1383.58 3244.32)"/>
                    </g>
                    <g id="g5992" transform="translate(29.228 18.358)">
                        <path id="path5994" d="M1323.727-3247.416s.4-.083.16-.814c-.108-.331.7-.434.423-1.162a1.67 1.67 0 0 0-2.32-.387 2.1 2.1 0 0 0-.615 2.719c.268.327.926.633 1.143 1.127a7.861 7.861 0 0 0 1.208-1.483" class="cls-14" transform="translate(-1321.116 3250.108)"/>
                    </g>
                    <g id="g5996" transform="translate(31.286 20.718)">
                        <path id="path5998" d="M1380.008-3183.336s-.188-.262-.405-.153-.167.8.267 1.033.369-.48.138-.88" class="cls-16" transform="translate(-1379.477 3183.516)"/>
                    </g>
                    <g id="g6000" transform="translate(30.64 22.676)">
                        <path id="path6002" d="M1361.141-3127.829l1.81-.459.038.459-1.666.455-.182-.455" class="cls-10" transform="translate(-1361.141 3128.288)"/>
                    </g>
                    <g id="g6004" transform="translate(29.261 23.091)">
                        <path id="path6006" d="M1322.944-3115.818a8.449 8.449 0 0 1 1.835-.643 1.855 1.855 0 0 1 2.031.513 4.747 4.747 0 0 1 1.4 2.579c.115.809.278 3.894.278 3.894l-6.081 2.106-.364-8.059.9-.39" class="cls-18" transform="translate(-1322.041 3116.562)"/>
                    </g>
                    <g id="g6008" transform="translate(22.587 16.151)">
                        <path id="path6010" d="M1132.793-3312.369h2.269s2.03 4.658 2.241 4.985a47.028 47.028 0 0 0 3.706 2.983c.579.418.814 2.041.459 2.993s-1.225 1.7-1.589 1.646-4.117-5.033-4.586-5.927-2.5-6.679-2.5-6.679" class="cls-18" transform="translate(-1132.793 3312.369)"/>
                    </g>
                    <g id="g6012" transform="translate(27.872 30.178)">
                        <path id="path6014" fill="#f84217" d="M1290.507-2916.628s.861 10.859.938 11.495a4.543 4.543 0 0 1-.441 2.559c-.5 1.059-5.3 10.086-5.3 10.086l-3.035-1.174 3.76-10.2s-2.592-6.217-2.5-8.1a6.24 6.24 0 0 1 .489-2.556l6.081-2.106" transform="translate(-1282.674 2916.628)"/>
                    </g>
                    <g id="g6016" transform="translate(26.59 54.317)">
                        <path id="path6018" d="M1247.514-2235.551l2.334.593.563.491s1.466.244 1.7.307a1.415 1.415 0 0 1 .818 1.2h-6.619a8.986 8.986 0 0 1 1.2-2.589" class="cls-18" transform="translate(-1246.31 2235.551)"/>
                    </g>
                    <g id="g6020" transform="translate(26.59 56.462)">
                        <path id="path6022" d="M1246.393-2175.023c-.06.268-.086.444-.086.444h6.619a1.229 1.229 0 0 0-.1-.444h-6.436" class="cls-13" transform="translate(-1246.307 2175.023)"/>
                    </g>
                    <g id="g6024" transform="translate(30.854 18.039)">
                        <path id="path6026" d="M1369.585-3258.391c0 .393-.528.711-1.18.711s-1.18-.318-1.18-.711.528-.71 1.18-.71 1.18.318 1.18.71" class="cls-14" transform="translate(-1367.225 3259.101)"/>
                    </g>
                    <g id="g6028" transform="translate(66.853 123.914)">
                        <path id="path6030" d="M2392.188-271.887h-3.17c-.421.044-.892.164-.97.532a2.14 2.14 0 0 0-.045.485c.112.132 4.316-.017 4.316-.017l.018-.016a.672.672 0 0 0-.148-.98" class="cls-18" transform="translate(-2388.001 271.891)"/>
                    </g>
                    <g id="g6032" transform="translate(66.848 124.914)">
                        <path id="path6034" d="M2387.854-243.674l4.316-.017-.037.169h-4.285l.006-.151" class="cls-21" transform="translate(-2387.847 243.692)"/>
                    </g>
                    <g id="g6036" transform="translate(69.501 123.914)">
                        <path id="path6038" d="M2463.349-271.894h-.286l.089.391h.277l-.08-.393" class="cls-15" transform="translate(-2463.063 271.894)"/>
                    </g>
                    <g id="g6040" transform="translate(68.889 123.914)">
                        <path id="path6042" d="M2446-271.892h-.285l.089.391h.277l-.08-.393" class="cls-15" transform="translate(-2445.711 271.892)"/>
                    </g>
                    <g id="g6044" transform="translate(69.99 122.857)">
                        <path id="path6046" d="M2478.212-301.733l-.217 1.061a1.022 1.022 0 0 1-.85.02l-.048-.021-.153-1.06h1.269" class="cls-16" transform="translate(-2476.943 301.733)"/>
                    </g>
                    <g id="g6048" transform="translate(74.263 123.914)">
                        <path id="path6050" d="M2602.307-271.888h-3.171c-.421.044-.891.164-.97.532a2.124 2.124 0 0 0-.046.485c.112.132 4.316-.017 4.316-.017l.019-.016a.672.672 0 0 0-.148-.98" class="cls-18" transform="translate(-2598.119 271.892)"/>
                    </g>
                    <g id="g6052" transform="translate(74.258 124.914)">
                        <path id="path6054" d="M2597.982-243.675l4.316-.017-.038.169h-4.285l.006-.151" class="cls-21" transform="translate(-2597.975 243.693)"/>
                    </g>
                    <g id="g6056" transform="translate(76.911 123.914)">
                        <path id="path6058" d="M2673.473-271.892h-.285l.089.391h.277l-.081-.393" class="cls-15" transform="translate(-2673.188 271.892)"/>
                    </g>
                    <g id="g6060" transform="translate(76.299 123.914)">
                        <path id="path6062" d="M2656.11-271.893h-.285l.089.391h.277l-.081-.393" class="cls-15" transform="translate(-2655.825 271.893)"/>
                    </g>
                    <g id="g6064" transform="translate(77.045 122.857)">
                        <path id="path6066" d="M2678.254-301.733l.138 1.061a1.022 1.022 0 0 1-.85.02l-.048-.021-.508-1.06h1.268" class="cls-16" transform="translate(-2676.986 301.733)"/>
                    </g>
                    <g id="g6068" transform="translate(71.618 87.165)">
                        <path id="path6070" d="M2525.059-1308.755l2.611 1.711-.806 2.074c-.011.029-.027.057-.04.085-.058 0-.115-.007-.173-.007h-.055a2.012 2.012 0 0 0-1.665 1.014 3.457 3.457 0 0 1-1.233-.322 1.27 1.27 0 0 1-.58-.442c-.28-1.471 1.94-4.113 1.94-4.113" class="cls-16" transform="translate(-2523.094 1308.755)"/>
                    </g>
                    <g id="g6072" transform="translate(68.751 84.483)">
                        <path id="path6074" d="M2444.6-1383.036a.277.277 0 0 0 .033-.253l-.341-.948a.276.276 0 0 0-.411-.138l-1.461.962a.278.278 0 0 0-.126.232v1.442s-.732 3.9-.387 5.432 1.443.35 1.741.089a14.8 14.8 0 0 1-.324-4.985l1.275-1.833" class="cls-16" transform="translate(-2441.815 1384.42)"/>
                    </g>
                    <g id="g6076" transform="translate(72.223 91.72)">
                        <path id="path6078" d="M2542.186-1179.926l.229 1.432h-2.015l-.146-1.755 1.935.323" class="cls-20" transform="translate(-2540.25 1180.249)"/>
                    </g>
                    <g id="g6080" transform="translate(65.577 85.057)">
                        <path id="path6082" d="M2355.187-1357.682s-2.384-.763-3.131-1.789.517-6.642.517-6.642l-.164-1.011a.939.939 0 0 1 .916-1.091l.637-.006a.365.365 0 0 1 .336.515l-.838 1.895s-.628 4.253.252 4.576a9.886 9.886 0 0 0 2.239.467l-.764 3.086" class="cls-16" transform="translate(-2351.82 1368.221)"/>
                    </g>
                    <g id="g6084" transform="translate(72.559 86.336)">
                        <path id="path6086" d="M2550.653-1326.424l.614-1.367-.4-.251a.755.755 0 0 1-.311-.881l.437-1.288s-1.242-.153-1.205-1.316c0-.6.821-.6.821-.6a1.193 1.193 0 0 0 1.006.6 1.978 1.978 0 0 1 1.828 1.141 3.3 3.3 0 0 1-.126 2.671 2.426 2.426 0 0 1-1.931 1.3h-.734" class="cls-14" transform="translate(-2549.788 1332.129)"/>
                    </g>
                    <g id="g6088" transform="translate(70.651 103.526)">
                        <path id="path6090" d="M2500.892-847.142a45.389 45.389 0 0 1-.754 6.074 5.45 5.45 0 0 0 .186 2.793c1.424 4.251 3.419 10.642 3.419 10.642h-1.776s-4.022-7.554-5.059-11.3-1.214-4.937-1.214-4.937l1.234-3.272h3.964" class="cls-14" transform="translate(-2495.695 847.142)"/>
                    </g>
                    <g id="g6092" transform="translate(73.425 89.824)">
                        <path id="path6094" d="M2575.277-1233.521a.582.582 0 0 1-.33.637c-.256.136-.521.072-.595-.143a.582.582 0 0 1 .33-.637c.255-.136.521-.072.595.143" class="cls-16" transform="translate(-2574.333 1233.735)"/>
                    </g>
                    <g id="g6096" transform="translate(67.172 92.418)">
                        <path id="path6098" d="M2399.925-1149.422h5.79v-7.464a3.162 3.162 0 0 0-2.859-3.154l-4.026-.49s-.473.728-1.792 2.42a13.549 13.549 0 0 0 3.42 1.438l-.533 7.249" class="cls-19" transform="translate(-2397.038 1160.529)"/>
                    </g>
                    <g id="g6100" transform="translate(67.921 103.526)">
                        <path id="path6102" d="M2426.208-847.143a17.375 17.375 0 0 1-3.835 6.307 3.913 3.913 0 0 0-1.126 3.031l.623 10.171h-1.8s-2.195-8.446-1.721-12.609a19.177 19.177 0 0 1 2.071-6.9h5.79" class="cls-18" transform="translate(-2418.281 847.143)"/>
                    </g>
                    <g id="g6104" transform="translate(84.87 58.156)">
                        <path id="path6106" d="M2911.218-2070.688l-12.346-56.411.744-.115 12.347 56.411-.745.116" class="cls-18" transform="translate(-2898.872 2127.215)"/>
                    </g>
                    <g id="g6108" transform="translate(78.109 59.208)">
                        <path id="path6110" d="M2719.516-2041.026l-12.347-56.411.745-.116 12.347 56.411-.745.116" class="cls-18" transform="translate(-2707.169 2097.554)"/>
                    </g>
                    <g id="g6112" transform="translate(81.688 72.807)">
                        <path id="path6114" d="M2815.764-1713.868l-.012.871-7 1.084-.108-.853 7.125-1.1" class="cls-18" transform="translate(-2808.639 1713.868)"/>
                    </g>
                    <g id="g6116" transform="translate(80.31 67.369)">
                        <path id="path6118" d="M2776.684-1867.29l-.011.872-7 1.084-.109-.853 7.125-1.1" class="cls-18" transform="translate(-2769.559 1867.29)"/>
                    </g>
                    <g id="g6120" transform="translate(79.183 61.892)">
                        <path id="path6122" d="M2744.744-2021.807l-.011.871-7.005 1.084-.108-.853 7.125-1.1" class="cls-18" transform="translate(-2737.62 2021.807)"/>
                    </g>
                    <g id="g6124" transform="translate(82.892 78.344)">
                        <path id="path6126" d="M2849.913-1557.632l-.01.871-7.006 1.085-.108-.853 7.125-1.1" class="cls-18" transform="translate(-2842.789 1557.632)"/>
                    </g>
                    <g id="g6128" transform="translate(84.018 83.893)">
                        <path id="path6130" d="M2881.835-1401.063l-.011.871-7 1.085-.109-.853 7.125-1.1" class="cls-18" transform="translate(-2874.711 1401.063)"/>
                    </g>
                    <g id="g6132" transform="translate(85.466 89.66)">
                        <path id="path6134" d="M2922.61-1238.371l.272.828-7.005 1.084-.109-.853 6.841-1.059" class="cls-18" transform="translate(-2915.769 1238.371)"/>
                    </g>
                    <g id="g6136" transform="translate(86.705 95.414)">
                        <path id="path6138" d="M2957.761-1076l.272.827-7 1.085-.108-.853 6.841-1.059" class="cls-18" transform="translate(-2950.919 1076)"/>
                    </g>
                    <g id="g6140" transform="translate(87.862 101.049)">
                        <path id="path6142" d="M2990.551-917.012l.272.828-7.005 1.084-.11-.853 6.843-1.059" class="cls-18" transform="translate(-2983.708 917.012)"/>
                    </g>
                    <g id="g6144" transform="translate(88.807 106.845)">
                        <path id="path6146" d="M3017.344-753.5l.272.827-7 1.085-.109-.853 6.842-1.059" class="cls-18" transform="translate(-3010.502 753.503)"/>
                    </g>
                    <g id="g6148" transform="translate(84.877 97.023)">
                        <path id="path6150" d="M2901.243-1030.337a4.748 4.748 0 0 1-1.654 1.6c-.274.174-.629.15-.465.721l1.646-.477 1.291-.671.079.274.74-.214s-.2-1.46-.679-1.515l-.957.277" class="cls-14" transform="translate(-2899.083 1030.615)"/>
                    </g>
                    <g id="g6152" transform="translate(86.833 95.928)">
                        <path id="path6154" d="M2954.527-1061.161l.205 1.031a.773.773 0 0 0 .916-.227l.041-.05.019-1.095-1.18.342" class="cls-16" transform="translate(-2954.527 1061.502)"/>
                    </g>
                    <g id="g6156" transform="translate(95.253 95.57)">
                        <path id="path6158" d="M3194.213-1070.879a4.779 4.779 0 0 1-.649 2.216c-.152.287-.474.443-.05.858l1.2-1.232.792-1.224.2.2.538-.554s-.889-1.172-1.335-.979l-.7.716" class="cls-14" transform="translate(-3193.303 1071.616)"/>
                    </g>
                    <g id="g6160" transform="translate(95.478 94.63)">
                        <path id="path6162" d="M3199.658-1097.246l.685.794a.779.779 0 0 0 .685-.653l.01-.063-.523-.961-.858.883" class="cls-16" transform="translate(-3199.658 1098.129)"/>
                    </g>
                    <g id="g6164" transform="translate(88.81 79.725)">
                        <path id="path6166" d="M3019.064-1518.541a10.947 10.947 0 0 1-3.39 5.132 2.817 2.817 0 0 0-.342 3.222 25.723 25.723 0 0 1 3.125 6.668l-.992 1.022s-6.207-7.877-6.83-10.211 4.491-5.97 4.491-5.97l3.937.137" class="cls-14" transform="translate(-3010.583 1518.678)"/>
                    </g>
                    <g id="g6168" transform="translate(80.48 64.7)">
                        <path id="path6170" d="M2782.395-1937.064l-3.336-.052-3.7-5.468-.958.081s2.721 7.1 3.626 7.314c1.5.348 2.839.805 2.839.805l1.529-2.68" class="cls-16" transform="translate(-2774.4 1942.584)"/>
                    </g>
                    <g id="g6172" transform="translate(79.421 62.83)">
                        <path id="path6174" d="M2745.414-1993.4l-.367-.855c-.338-.354-.9-.305-.608-.924a2.062 2.062 0 0 1 1.562-.031c.613.251.663.323.651.729a2.121 2.121 0 0 1-.279 1l-.958.081" class="cls-16" transform="translate(-2744.355 1995.347)"/>
                    </g>
                    <g id="g6176" transform="translate(85.354 63.49)">
                        <path id="path6178" d="M2913.561-1976.744l3.7 5.468 2.931.046a8.488 8.488 0 0 0-.21 1.085l-.913 1.6-2.962-.258-3.5-7.86.958-.081" class="cls-16" transform="translate(-2912.604 1976.744)"/>
                    </g>
                    <g id="g6180" transform="translate(84.295 61.619)">
                        <path id="path6182" d="M2883.636-2027.567l-.368-.856c-.338-.354-.9-.306-.608-.924a2.058 2.058 0 0 1 1.562-.031c.614.251.663.323.652.729a2.131 2.131 0 0 1-.28 1l-.958.081" class="cls-16" transform="translate(-2882.577 2029.518)"/>
                    </g>
                    <g id="g6184" transform="translate(90.337 64.339)">
                        <path id="path6186" d="M3054.881-1952.784l2.738.959-.268 2.054c0 .029-.011.057-.017.085l-.157.033-.026.007h-.025a1.88 1.88 0 0 0-1.278 1.29 3.22 3.22 0 0 1-1.185-.014 1.194 1.194 0 0 1-.623-.269c-.578-1.266.84-4.15.84-4.15" class="cls-16" transform="translate(-3053.903 1952.784)"/>
                    </g>
                    <g id="g6188" transform="translate(91.099 68.615)">
                        <path id="path6190" d="M3077.318-1832.143l.524 1.242-1.823.453-.519-1.552 1.82-.143" class="cls-20" transform="translate(-3075.498 1832.143)"/>
                    </g>
                    <g id="g6192" transform="translate(90.856 63.722)">
                        <path id="path6194" d="M3070.01-1965.135l.25-1.372-.417-.138c-.307-.1-.073-.9-.044-1.221a2.415 2.415 0 0 0-.817-1.034c-.36-.257-.663-.669.109-1.111a2.237 2.237 0 0 1 2.558.668 3.06 3.06 0 0 1 .479 2.441 2.263 2.263 0 0 1-1.456 1.6l-.663.164" class="cls-14" transform="translate(-3068.61 1970.192)"/>
                    </g>
                    <g id="g6196" transform="translate(91.883 66.625)">
                        <path id="path6198" d="M3098.525-1888.138a.542.542 0 0 1-.156.649c-.2.18-.456.182-.569 0a.541.541 0 0 1 .157-.649c.2-.18.455-.182.569 0" class="cls-16" transform="translate(-3097.745 1888.271)"/>
                    </g>
                    <g id="g6200" transform="translate(86.946 69.531)">
                        <path id="path6202" d="M2962.687-1795.037l5.716-1.42-1.813-7.37a3.2 3.2 0 0 0-3.588-2.412l-4.094.5s-.291.835-1.182 2.829a13.754 13.754 0 0 0 3.725.581l1.234 7.288" class="cls-23" transform="translate(-2957.727 1806.275)"/>
                    </g>
                    <g id="g6204" transform="translate(86.356 79.349)">
                        <path id="path6206" d="M2952.285-1529.272s1.362 3.467-5.294 6.424c-.849.377-3.314 1.206-3.247 2.273a37.239 37.239 0 0 1-.959 8.341l-1.385.32s-.806-9.269-.075-11.572 5.215-4.619 5.215-4.619l5.744-1.167" class="cls-18" transform="translate(-2941.019 1529.272)"/>
                    </g>
                    <g id="g6208" transform="translate(36.579 12.082)">
                        <path id="path6210" d="M1529.609-3423.928a2.587 2.587 0 0 1 2.188.375c-.75-2.621 3.171-1.706 3.171-1.706l-.919-1.64c-5.353-1.452-4.44 2.971-4.44 2.971" class="cls-13" transform="translate(-1529.55 3427.192)"/>
                    </g>
                    <g id="g6212" transform="translate(49.396 7.692)">
                        <path id="path6214" d="M1895.071-3542.874c-.623-4.245 1.81-5.526 1.81-5.526l-1.1-2.645s-5.806 3.988-.715 8.17" class="cls-19" transform="translate(-1892.98 3551.044)"/>
                    </g>
                    <g id="g6216" transform="translate(42.011)">
                        <path id="path6218" d="M1686.491-3767.326a7.688 7.688 0 0 0-.307 4.866 9.768 9.768 0 0 0-2.591-1.881s-.313-1.8 2.062-3.731a3.682 3.682 0 0 0 .836.746" class="cls-18" transform="translate(-1683.58 3768.073)"/>
                    </g>
                    <g id="g6220" transform="translate(99.358 56.963)">
                        <path id="path6222" d="M3312.029-2160.9a2.608 2.608 0 0 1-1.662 1.479c2.5 1.055-.664 3.553-.664 3.553l1.848.307c4.48-3.283.479-5.339.479-5.339" class="cls-13" transform="translate(-3309.702 2160.896)"/>
                    </g>
                    <g id="g6224" transform="translate(104.235 68.459)">
                        <path id="path6226" d="M3451.56-1832.381a7.642 7.642 0 0 0-3.581-3.289 9.736 9.736 0 0 0 3.082-.851s1.595.883 1.6 3.953a3.657 3.657 0 0 0-1.1.187" class="cls-10" transform="translate(-3447.979 1836.52)"/>
                    </g>
                    <path id="path6228" d="M585.507-1834.982a2.6 2.6 0 0 0 1.9 1.155c-2.273 1.49 1.288 3.375 1.288 3.375l-1.763.636c-4.995-2.421-1.425-5.166-1.425-5.166" class="cls-18" transform="translate(-581.029 1903.496)"/>
                    <path id="path6230" d="M493.576-1483.033a7.658 7.658 0 0 1 2.935-3.883 9.717 9.717 0 0 1-3.184-.28s-1.411 1.157-.869 4.177a3.635 3.635 0 0 1 1.118-.015" class="cls-10" transform="translate(-492.334 1568.037)"/>
                    <g id="g6232" transform="translate(77.146 2.986)">
                        <path id="path6234" fill="#afd7c7" d="M2681.033-3683.834a2.972 2.972 0 0 1-1.191 1.878c2.442.074.109 3.368.109 3.368l1.709-.362c3.352-4.439-.628-4.884-.628-4.884" transform="translate(-2679.842 3683.834)"/>
                    </g>
                    <g id="g6236" transform="translate(83.053 11.217)">
                        <path id="path6238" d="M2851.2-3448.1s-1-1.325-3.847-1.679a10.957 10.957 0 0 0 2.583-1.809s1.6.233 2.21 2.945a3.976 3.976 0 0 0-.947.543" class="cls-18" transform="translate(-2847.352 3451.593)"/>
                    </g>
                </g>
            </g>
        </g>
    </g>
</svg>
